<svg data-name="Layer 1" version="1.1" viewBox="0 0 512 512" xmlns="http://www.w3.org/2000/svg">
  <polygon transform="matrix(.59348 0 0 .59348 -1.5778e-5 64.674)" points="629.94 546.44 629.94 612.64 612.78 612.64 604.61 546.44" fill="#9e616a"/>
  <path d="m379.24 445.92h-7.3058l-1.304-6.8975-3.3398 6.8975h-19.377a4.3557 4.3557 0 0 1-2.475-7.94l15.474-10.687v-6.9731l16.276 0.97143z" fill="#2f2e41" stroke-width=".59348"/>
  <polygon transform="matrix(.59348 0 0 .59348 -1.5778e-5 64.674)" points="692.42 537.85 731.92 590.98 718.15 601.22 672.08 552.97" fill="#9e616a"/>
  <g fill="#2f2e41">
    <path d="m449.23 426.37-5.8625 4.3594-5.1623-4.7568 1.4358 7.5279-15.549 11.562a4.3557 4.3557 0 0 1-6.724-4.8946l6.04-17.809-4.161-5.5956 13.64-8.9323z" stroke-width=".59348"/>
    <path d="m385.72 225.53s19.329 16.699 10.411 64.305l-10.888 46.646 35.508 58.907-11.322 13.773-46.161-63.76-16.728-39.237-4.6937-69.835z" stroke-width=".59348"/>
    <polygon transform="matrix(.59348 0 0 .59348 -1.5778e-5 64.674)" points="631.69 580.45 637.08 488.41 599.45 425.75 597.49 456.08 603.48 585.36"/>
  </g>
  <polygon transform="matrix(.59348 0 0 .59348 -1.5778e-5 64.674)" points="237.44 569 237.44 628.21 252.8 628.21 260.1 569" fill="#ffb6b6"/>
  <path d="m138.6 434.53 2.5643-1e-4 10.011-4.0714 5.3658 4.0708h6e-4a11.434 11.434 0 0 1 11.434 11.434v0.37155l-29.375 1e-3z" fill="#2f2e41" stroke-width=".59348"/>
  <polygon transform="matrix(.59348 0 0 .59348 -1.5778e-5 64.674)" points="309.97 560.78 296.93 618.54 311.9 621.92 332.07 565.77" fill="#ffb6b6"/>
  <g stroke-width=".59348">
    <path d="m174.61 428.35 2.5013 0.56476 10.662-1.7661 4.3373 5.1528 6e-4 1.6e-4a11.434 11.434 0 0 1 8.6343 13.671l-0.0818 0.36242-28.654-6.4697z" fill="#2f2e41"/>
    <path d="m129.38 222.68c-4.2713 12.882-3.8198 26.866 1.0267 41.874l2.0718 84.499s-3.0868 55.413 6.8737 74.912h14.445l7.1521-79.973 0.89812-53.678 30.969 45.286-19.725 87.057 17.779 1.5894 32.009-94.477-39.493-91.659z" fill="#2f2e41"/>
    <path d="m295.97 185.99c11.049-9.9566 27.484-14.963 41.269-9.38a68.527 68.527 0 0 0-30.795 35.57c-2.1946 5.839-4.0276 12.562-9.4256 15.688-3.3587 1.9452-7.5374 2.0402-11.303 1.1012-3.7661-0.93911-7.2181-2.8215-10.623-4.6851l-0.96867-0.0219c4.3489-14.223 10.797-28.316 21.846-38.272z" fill="#e6e6e6"/>
  </g>
  <g fill="#fff" stroke-width=".59348">
    <path d="m337.16 176.91a58.572 58.572 0 0 0-32.586 15.389 25.223 25.223 0 0 0-4.9528 6.1584 14.467 14.467 0 0 0-1.6721 7.4278c0.0597 2.4086 0.39962 4.8653-0.12723 7.2464a8.858 8.858 0 0 1-4.4063 5.75c-2.6979 1.5508-5.7921 2.0396-8.8346 2.4126-3.3781 0.41407-6.8935 0.79063-9.8176 2.6854-0.35431 0.22958-0.68981-0.3336-0.33605-0.56283 5.0876-3.2966 11.525-2.0971 16.996-4.2972 2.5526-1.0266 4.8113-2.8287 5.6108-5.5533 0.69909-2.3826 0.35069-4.9163 0.2692-7.3545a15.437 15.437 0 0 1 1.3644-7.3238 23.318 23.318 0 0 1 4.6978-6.3261 56.826 56.826 0 0 1 14.441-10.338 59.611 59.611 0 0 1 19.347-5.9696c0.41733-0.0538 0.4207 0.60216 6e-3 0.6556z"/>
    <path d="m307.3 189.41a8.7877 8.7877 0 0 1 0.9688-11.338c0.30047-0.29599 0.77454 0.15702 0.47367 0.45342a8.1372 8.1372 0 0 0-0.87964 10.548c0.24637 0.34239-0.31787 0.67647-0.56283 0.33605z"/>
    <path d="m297.76 204.67a16.938 16.938 0 0 0 12.103-2.4235c0.35511-0.22831 0.69072 0.3348 0.33605 0.56284a17.618 17.618 0 0 1-12.6 2.4962c-0.41594-0.0749-0.25332-0.71013 0.16036-0.63562z"/>
    <path d="m323.92 180.01a4.9743 4.9743 0 0 0 3.7203 2.9048c0.41669 0.0696 0.25361 0.70478-0.16036 0.63562a5.5741 5.5741 0 0 1-4.1228-3.2043 0.33878 0.33878 0 0 1 0.11339-0.44945 0.32942 0.32942 0 0 1 0.44944 0.1134z"/>
  </g>
  <path d="m352.42 224.62c-0.26142-0.0361-0.52286-0.0721-0.7881-0.10421a65.508 65.508 0 0 0-10.613-0.53912c-0.27432 4e-3 -0.55226 0.0122-0.82589 0.024a69.06 69.06 0 0 0-24.778 5.7035 67.066 67.066 0 0 0-8.9989 4.7808c-3.9691 2.513-8.0726 5.5536-12.509 6.5785a11.505 11.505 0 0 1-1.4019 0.24977l-18.332-15.873c-0.0236-0.057-0.0509-0.10998-0.0747-0.16714l-0.76092-0.60029c0.14168-0.10419 0.29085-0.20921 0.43253-0.31341 0.0819-0.0608 0.16795-0.11802 0.24985-0.1788 0.0559-0.0394 0.11206-0.0787 0.16024-0.1174 0.0186-0.0132 0.0373-0.0262 0.0523-0.0352 0.0482-0.0387 0.0971-0.0696 0.14167-0.10419q1.2484-0.88399 2.5135-1.7535c4e-3 -4e-3 4e-3 -4e-3 0.0113-5e-3a98.611 98.611 0 0 1 20.535-11.038c0.21772-0.0822 0.43887-0.16886 0.66497-0.24386a63.996 63.996 0 0 1 10.053-2.8288 56.576 56.576 0 0 1 5.6694-0.7919 47.047 47.047 0 0 1 14.673 1.0396c9.5808 2.2216 18.344 7.4826 23.535 15.687 0.1327 0.20998 0.26148 0.41658 0.39049 0.63075z" fill="#e6e6e6" stroke-width=".59348"/>
  <g fill="#fff" stroke-width=".59348">
    <path d="m352.18 224.82a58.572 58.572 0 0 0-35.284-7.3315 25.223 25.223 0 0 0-7.6623 1.9352 14.467 14.467 0 0 0-5.8072 4.924c-1.4025 1.959-2.6102 4.1253-4.4644 5.7093a8.8579 8.8579 0 0 1-6.9801 1.9382c-3.0878-0.38612-5.8527-1.8587-8.5065-3.3927-2.9465-1.7032-5.9801-3.5191-9.4556-3.7668-0.42111-0.03-0.34992-0.68168 0.0705-0.65172 6.0469 0.43094 10.465 5.2646 16.157 6.8015 2.6562 0.71715 5.5447 0.63816 7.8234-1.056 1.9926-1.4814 3.24-3.7142 4.6428-5.7101a15.437 15.437 0 0 1 5.4988-5.0262 23.318 23.318 0 0 1 7.5597-2.2226 56.825 56.825 0 0 1 17.755 0.44013 59.611 59.611 0 0 1 19.042 6.8821c0.36558 0.20831-0.0267 0.73407-0.38986 0.52712z"/>
    <path d="m320.81 216.83a8.7877 8.7877 0 0 1 7.5997-8.4694c0.41811-0.0554 0.52388 0.5917 0.10522 0.6472a8.1373 8.1373 0 0 0-7.0532 7.8927c-9e-3 0.42171-0.66109 0.34874-0.65172-0.0705z"/>
    <path d="m304 223.26a16.938 16.938 0 0 0 11.123 5.3521c0.421 0.0315 0.34994 0.68318-0.0706 0.65172a17.618 17.618 0 0 1-11.563-5.5928c-0.28699-0.31026 0.22529-0.71952 0.51072-0.41095z"/>
    <path d="m339.74 219.33a4.9743 4.9743 0 0 0 1.2216 4.5592c0.29081 0.30647-0.22183 0.71542-0.51072 0.41095a5.5741 5.5741 0 0 1-1.3626-5.0407 0.33877 0.33877 0 0 1 0.36113-0.29058 0.32942 0.32942 0 0 1 0.29058 0.36113z"/>
  </g>
  <path d="m30.43 436.87c-0.86055 3.2286-3.1217 5.917-5.8517 7.8755-0.44511 0.32048-0.9021 0.61722-1.365 0.89616-0.14244 0.0831-0.28487 0.17211-0.43324 0.24926q-0.24036 0.14244-0.48072 0.26707h-12.837c-0.23146-0.46885-0.45698-0.94364-0.68251-1.4125-5.5016-11.561-9.3652-24.036-8.7064-36.743a47.036 47.036 0 0 1 3.0683-14.392c3.5253-9.1812 9.9587-17.128 18.807-21.128 0.21959-0.10089 0.45105-0.20178 0.67657-0.29674-0.07122 0.2552-0.14244 0.50446-0.21365 0.75966a65.749 65.749 0 0 0-2.006 10.439c-0.03561 0.273-0.06528 0.54601-0.08902 0.82494a68.876 68.876 0 0 0 2.2078 25.336c0.0059 0.0178 0.01181 0.0415 0.0178 0.0593q0.75673 2.733 1.7567 5.3829c0.52226 1.3947 1.0861 2.7716 1.7033 4.1247 2.5757 5.6797 6.0298 11.733 4.4274 17.757z" fill="#e6e6e6" stroke-width=".59348"/>
  <g fill="#fff" stroke-width=".59348">
    <path d="m22.786 372.45c-0.12463 0.16618-0.24929 0.32642-0.37389 0.49259a58.238 58.238 0 0 0-6.5995 11.134c-0.09496 0.19585-0.18398 0.3917-0.26113 0.59348a58.051 58.051 0 0 0-4.641 17.353 0.88429 0.88429 0 0 0-0.01187 0.12463c-0.14837 1.4006-0.23739 2.8131-0.273 4.2256a25.211 25.211 0 0 0 0.84868 7.8577 14.106 14.106 0 0 0 3.2404 5.5906c0.14837 0.16024 0.29674 0.32048 0.45698 0.47479 0.1187 0.12463 0.24926 0.24926 0.37389 0.36796 1.1988 1.1454 2.5104 2.2078 3.6381 3.4363a12.719 12.719 0 0 1 1.3947 1.7804 8.8453 8.8453 0 0 1 0.94957 7.1812c-0.80714 3.003-2.6529 5.5372-4.5401 7.9527-0.94364 1.2107-1.917 2.4333-2.7597 3.7271-0.30858 0.46292-0.59348 0.93177-0.85458 1.4125h-0.74779c0.24926-0.48072 0.52226-0.94957 0.81901-1.4125 2.1662-3.4125 5.2464-6.3443 6.8429-10.101 1.0801-2.5341 1.4066-5.4066 0.04154-7.8933a10.494 10.494 0 0 0-1.4422-2.006c-1.0861-1.2285-2.3858-2.279-3.5668-3.3888-0.29674-0.27894-0.58755-0.56381-0.86649-0.86055a14.816 14.816 0 0 1-3.3472-5.282 23.283 23.283 0 0 1-1.1514-7.7924c0-1.6855 0.089023-3.3828 0.2552-5.0684 0.0178-0.21365 0.04154-0.43324 0.06528-0.65283a59.803 59.803 0 0 1 11.674-29.217c0.1187-0.16617 0.24333-0.32641 0.36796-0.48665 0.25517-0.33239 0.72401 0.13056 0.46882 0.45698z"/>
    <path d="m10.515 402.41a8.7877 8.7877 0 0 1-7.332-8.7021 0.32805 0.32805 0 0 1 0.65553-0.0144 8.1373 8.1373 0 0 0 6.8368 8.0809c0.41631 0.0679 0.25356 0.70311-0.16036 0.63563z"/>
    <path d="m14.55 419.94a16.938 16.938 0 0 0 6.8447-10.272c0.08965-0.41254 0.72515-0.25168 0.63562 0.16036a17.618 17.618 0 0 1-7.1443 10.675c-0.3471 0.24112-0.68126-0.32302-0.33604-0.56284z"/>
    <path d="m15.616 384.01a4.9743 4.9743 0 0 0 4.6846-0.57667c0.34387-0.24542 0.67768 0.31902 0.33604 0.56283a5.5741 5.5741 0 0 1-5.181 0.64944 0.33877 0.33877 0 0 1-0.23762-0.39798 0.32942 0.32942 0 0 1 0.39799-0.23762z"/>
  </g>
  <path d="m67.309 395.4c-0.20772 0.16024-0.42137 0.32048-0.62909 0.48665a65.498 65.498 0 0 0-7.8874 7.1218c-0.18992 0.19585-0.37983 0.39764-0.56381 0.59942l-0.0059 6e-3a69.05 69.05 0 0 0-13.448 21.448l-0.0178 0.0534c-0.0059 0.0178-0.01187 0.0297-0.01781 0.0475a67.92 67.92 0 0 0-2.9852 9.745c-0.72405 3.2404-1.3175 6.7123-2.4511 9.834-0.17211 0.48073-0.36202 0.95551-0.56381 1.4125h-26.386c0.08902-0.46885 0.18398-0.94363 0.27894-1.4125a95.136 95.136 0 0 1 6.2553-20c0.09496-0.21365 0.18992-0.4273 0.29674-0.64096a64.277 64.277 0 0 1 5.1099-9.11 0.0058161 0.0058161 0 0 1 0.0059-6e-3 56.355 56.355 0 0 1 3.4422-4.5639 46.956 46.956 0 0 1 11.11-9.6382c0.02374-0.0178 0.05341-0.0297 0.07715-0.0475 8.3325-5.1692 18.208-7.6322 27.65-5.5016h0.0059c0.24333 0.0534 0.48073 0.10686 0.72405 0.16618z" fill="#e6e6e6" stroke-width=".59348"/>
  <g fill="#fff" stroke-width=".59348">
    <path d="m67.279 395.72c-0.20178 0.0534-0.40357 0.11276-0.59942 0.17211a58.511 58.511 0 0 0-11.971 4.9081c-0.18992 0.10089-0.37983 0.20772-0.56974 0.31454a58.313 58.313 0 0 0-14.119 11.033 0.020772 0.020772 0 0 0-0.0059 0.0119c-0.04748 0.0475-0.10089 0.10089-0.14244 0.14837-0.94957 1.0208-1.8635 2.0831-2.73 3.1751a25.383 25.383 0 0 0-4.0476 6.7835 14.05 14.05 0 0 0-0.77746 6.4156c0.01781 0.21959 0.04748 0.43325 0.07715 0.65284 0.02374 0.17211 0.04748 0.34422 0.07715 0.52226 0.3917 2.3799 1.0683 4.7657 0.87836 7.193a8.8483 8.8483 0 0 1-3.5668 6.3087 14.121 14.121 0 0 1-2.184 1.3888 21.871 21.871 0 0 1-3.4244 1.4125h-2.3324c0.31455-0.089 0.62316-0.17805 0.9377-0.26707a28.613 28.613 0 0 0 3.282-1.1454 15.972 15.972 0 0 0 1.7804-0.87836c2.3858-1.3709 4.374-3.4719 4.7894-6.279 0.36202-2.457-0.33829-4.914-0.75372-7.3176-0.07122-0.41544-0.1365-0.82494-0.17211-1.2344a14.504 14.504 0 0 1 0.50446-6.2078 23.183 23.183 0 0 1 3.7746-6.92 49.47 49.47 0 0 1 3.2523-3.8873q0.21365-0.24033 0.44511-0.48073a59.883 59.883 0 0 1 14.368-11.116h0.0059a58.926 58.926 0 0 1 12.522-5.187h0.0059c0.19585-0.0593 0.39763-0.1187 0.59348-0.17211 0.40952-0.10687 0.50446 0.54007 0.10089 0.65283z"/>
    <path d="m39.447 412.24a8.7877 8.7877 0 0 1-0.61493-11.363c0.25646-0.33485 0.78883 0.048 0.53203 0.38323a8.1373 8.1373 0 0 0 0.5936 10.568c0.29152 0.30485-0.22086 0.71405-0.51072 0.41094z"/>
    <path d="m32.112 428.67a16.938 16.938 0 0 0 11.65-4.0806c0.31996-0.27541 0.73052 0.23561 0.41094 0.51072a17.618 17.618 0 0 1-12.131 4.2216c-0.42232-0.0164-0.34947-0.66808 0.07055-0.65171z"/>
    <path d="m54.598 400.63a4.9743 4.9743 0 0 0 4.0876 2.36c0.42232 0.0111 0.34901 0.66273-0.07055 0.65171a5.5741 5.5741 0 0 1-4.5278-2.6008 0.33878 0.33878 0 0 1 0.04991-0.46084 0.32942 0.32942 0 0 1 0.46083 0.0499z"/>
  </g>
  <g stroke-width=".59348">
    <path d="m270.86 167.42a6.8841 6.8841 0 0 1-10.544 0.4971l-22.434 9.7569 2.1852-12.523 20.969-7.3454a6.9214 6.9214 0 0 1 9.8244 9.6148z" fill="#ffb8b8"/>
    <path d="m255.88 171.33-52.106 23.21-0.11178-0.04-59.388-21.163a19.561 19.561 0 0 1-8.7727-25.375 19.54 19.54 0 0 1 27.886-8.6865l44.196 26.623 42.856-5.5543z" fill="#e6e6e6"/>
    <path d="m512 446.64a0.70417 0.70417 0 0 1-0.70624 0.70625h-510.57a0.70625 0.70625 0 0 1 0-1.4125h510.57a0.70417 0.70417 0 0 1 0.70624 0.70624z" fill="#ccc"/>
    <path d="m185.96 240.82-52.527-8.4018a10.026 10.026 0 0 1-5.9085-14.034l2.382-4.7647-0.92529-50.058a37.082 37.082 0 0 1 18.004-32.436l5.1223-3.0628 2.5887-6.5738 23.87 0.5822 0.0695 8.6217 8.5484 13.631-2.9e-4 0.0565-0.5364 74.194-2.356 7.6568 3.5623 8.9057z" fill="#e6e6e6"/>
    <circle cx="168.82" cy="91.624" r="21.688" fill="#ffb8b8"/>
    <path d="m146.24 96.352c-0.6469-2.7252-0.3499-6.5601 0.0157-9.304 0.95838-7.1938 4.9534-14.033 11.023-18.084a7.9406 7.9406 0 0 1 3.9553-1.5718c1.4359-0.05994 2.9923 0.70873 3.4331 2.0766a7.1174 7.1174 0 0 1 4.0152-3.9817 12.544 12.544 0 0 1 5.7157-0.77002 20.889 20.889 0 0 1 17.426 12.457c0.57929 1.3762 2.1974-3.707 2.9313-2.4067a5.7809 5.7809 0 0 0 3.2783 2.8804c1.4382 0.40131 2.0223 6.3267 2.5883 4.945a6.5867 6.5867 0 0 1-6.2972 9.1843c-1.4638-0.05478-2.8635-0.59317-4.3099-0.82494-5.1723-0.82875-10.659 2.9218-11.765 8.042a14.236 14.236 0 0 0-1.8728-4.1668 4.8183 4.8183 0 0 0-3.8655-2.1239c-1.4716 0.05508-2.7651 1.0172-3.7199 2.1383-0.95482 1.1211-1.6719 2.4291-2.6338 3.5442-2.8223 3.2719-6.6396 10.902-10.662 10.346-3.1741-0.43914-8.3738-8.6588-9.257-12.38z" fill="#2f2e41"/>
    <path d="m299.93 192a4.2332 4.2332 0 0 0-2.8529-4.661l-58.407-19.453a4.2328 4.2328 0 0 0-1.7407-0.19988l-14.639 1.3844-8.4 0.79678-15.501 1.4649a4.2465 4.2465 0 0 0-3.7885 3.5548l-7.8704 49.163a4.265 4.265 0 0 0 2.6614 4.6268l59.016 22.781a4.1227 4.1227 0 0 0 0.85839 0.23049 4.2352 4.2352 0 0 0 1.2912 0.01l38.135-5.652a4.2259 4.2259 0 0 0 3.5746-3.5604z" fill="#fff"/>
    <path d="m190.72 225.21 59.016 22.779a0.53242 0.53242 0 0 0 0.27122 0.0319l38.13-5.6513a0.52432 0.52432 0 0 0 0.44802-0.44607l7.6677-50.486a0.53692 0.53692 0 0 0-0.35572-0.58251l-0.3927-0.1329-58.018-19.315a0.4023 0.4023 0 0 0-0.0816-0.0197 0.52661 0.52661 0 0 0-0.1365-7e-3l-35.706 3.3788-2.8334 0.26584a0.536 0.536 0 0 0-0.47165 0.44382l-7.869 49.161a0.53256 0.53256 0 0 0 0.33209 0.58024z" fill="#cb63ff"/>
    <path d="m201.57 174.76 35.706-3.3788a0.52661 0.52661 0 0 1 0.1365 7e-3 0.4023 0.4023 0 0 1 0.0815 0.0197l58.018 19.315-15.304 1.62-5.7274 0.60339-16.297 1.7218a1.1508 1.1508 0 0 1-0.14292-2e-3c-0.029-9e-3 -0.0579-0.0174-0.0928-0.0268z" fill="#2f2e41"/>
  </g>
  <g fill="#3f3d56">
    <g stroke-width=".59348">
      <path d="m189.39 228.68 59.016 22.779a3.9896 3.9896 0 0 0 0.86085 0.22533 4.2871 4.2871 0 0 0 1.2922 0.0161l38.13-5.6513a4.2346 4.2346 0 0 0 3.5778-3.5632l7.6618-50.486a4.2672 4.2672 0 0 0-0.24831-2.2058c-0.0388-0.0931-0.0776-0.18626-0.12285-0.27403a4.1486 4.1486 0 0 0-1.3435-1.601 4.2362 4.2362 0 0 0-1.137-0.5796l-0.0692-0.0245-58.335-19.429a5.3149 5.3149 0 0 0-0.72833-0.1769 4.2053 4.2053 0 0 0-1.0176-0.0197l-14.637 1.3797-8.3993 0.80121-15.504 1.4638a4.2088 4.2088 0 0 0-1.7914 0.59196 0.78902 0.78902 0 0 0-0.12015 0.072 0.70755 0.70755 0 0 0-0.0771 0.0582 4.2423 4.2423 0 0 0-1.7964 2.8272l-7.8755 49.166a4.2696 4.2696 0 0 0 2.6637 4.6305zm6.2566-53.625a3.1453 3.1453 0 0 1 0.75363-1.5854 2.7606 2.7606 0 0 1 0.40103-0.39096 3.1557 3.1557 0 0 1 1.379-0.64327 2.4089 2.4089 0 0 1 0.30218-0.0427l26.104-2.466 12.442-1.184c0.0844-0.01 0.16175-8e-3 0.23969-0.0129a2.9714 2.9714 0 0 1 0.56239 0.0418 2.4599 2.4599 0 0 1 0.5013 0.11943l58.404 19.454c0.0461 0.0163 0.0864 0.0321 0.13248 0.0484a3.0968 3.0968 0 0 1 1.349 0.98144 3.1212 3.1212 0 0 1 0.66514 2.4602l-7.6682 50.492a3.1746 3.1746 0 0 1-2.6758 2.6716l-38.135 5.6508a3.2128 3.2128 0 0 1-1.6159-0.18421l-59.017-22.773a3.2062 3.2062 0 0 1-1.9936-3.4695z"/>
      <path d="m196.27 172.32a0.52063 0.52063 0 0 1 0.15906-0.22922 0.62394 0.62394 0 0 1 0.0766-0.0523c0.0247-0.01 0.05-0.025 0.0748-0.0346a0.5184 0.5184 0 0 1 0.37023-6e-3l1.2285 0.43334 60.01 21.169 14.045-1.4839 7.8594-0.82895 16.635-1.7611 1.4875-0.15596 0.28922-0.032a0.53669 0.53669 0 0 1 0.56509 0.38786 0.43881 0.43881 0 0 1 0.0157 0.0849 0.52998 0.52998 0 0 1-0.32649 0.54712 0.58662 0.58662 0 0 1-0.1469 0.0396l-2.0234 0.2121-16.382 1.7316-5.7274 0.60339-16.297 1.7218a1.1508 1.1508 0 0 1-0.14292-2e-3c-0.029-9e-3 -0.0579-0.0174-0.0928-0.0268l-61.147-21.564-0.2076-0.0735a0.39778 0.39778 0 0 1-0.13022-0.0721 0.54016 0.54016 0 0 1-0.19227-0.60858z"/>
      <path d="m249.42 251.84a0.53043 0.53043 0 0 1-0.44066-0.60282l8.6155-57.173a0.53057 0.53057 0 0 1 0.60357-0.44545l5e-3 5.9e-4a0.53044 0.53044 0 0 1 0.44067 0.60283l-8.6155 57.173a0.53057 0.53057 0 0 1-0.60357 0.44544z"/>
      <path d="m271.26 248.21-5.73 0.60469 6.7024-56.698s7.6527-1.3856 7.8574-0.82996c0.12596 0.33172-8.7753 56.56-8.8299 56.924z"/>
    </g>
    <polygon transform="matrix(.59348 0 0 .59348 -1.5778e-5 64.674)" points="435.81 218.28 331.25 182.53 330.99 226.1 408.12 255.49"/>
    <path d="m298.22 189.37a3.1461 3.1461 0 0 0-1.4819-1.0306l-58.402-19.453a3.0302 3.0302 0 0 0-0.50327-0.12264 2.9727 2.9727 0 0 0-0.5642-0.0422l0.0948-0.59188 0.58465-0.4233 13.869-10.041 46.316 14.194 0.0804 16.055z" stroke-width=".59348"/>
  </g>
  <path d="m198.92 214.51a0.89809 0.89809 0 0 1 0.19348 0.0406l17.919 5.8855a0.89031 0.89031 0 0 1-0.55524 1.6918l-17.919-5.8855a0.89046 0.89046 0 0 1 0.36174-1.7324z" fill="#fff" stroke-width=".59348"/>
  <g fill="#f2f2f2" stroke-width=".59348">
    <circle cx="271.22" cy="315.86" r="7.1218"/>
    <circle cx="89.618" cy="341.97" r="7.1218"/>
    <circle cx="237.99" cy="106.36" r="7.1218"/>
  </g>
  <g stroke-width=".59348">
    <path d="m249.67 224.99a6.8841 6.8841 0 0 1-9.4407-4.7224l-24.34-2.4591 8.03-9.8556 21.882 3.8462a6.9214 6.9214 0 0 1 3.8682 13.191z" fill="#ffb8b8"/>
    <path d="m234.7 221.08-56.801-5.2336-0.078-0.0896-41.455-47.5a19.561 19.561 0 0 1 4.7557-26.424 19.54 19.54 0 0 1 28.572 6.0589l25.533 44.834 40.099 16.111z" fill="#e6e6e6"/>
    <path d="m377.27 129.73c-1.4106-10.347-3.1798-21.455-10.477-28.925a24.54 24.54 0 0 0-35.457 0.367c-5.3121 5.667-7.6581 13.624-7.8728 21.389-0.2147 7.7646 1.5146 15.443 3.433 22.97a70.796 70.796 0 0 0 29.547-5.8158c2.3301-1.0113 4.6226-2.1547 7.0844-2.7813 2.4617-0.62654 4.2164 0.9501 6.5063 2.0495l1.257-2.4068c1.029 1.9149 4.2152 1.3473 5.3709-0.49392 1.1555-1.8412 0.90239-4.1992 0.60866-6.3531z" fill="#2f2e41"/>
    <path d="m337.03 187.48-41.47 0.8869a6.5607 6.5607 0 1 0-2.9316 9.2428c5.5002 0.31261 48.53 6.4199 51.097 2.484 2.6056-3.9948 16.513-18.093 16.513-18.093l-10.69-15.219z" fill="#9e616a"/>
    <circle cx="347.13" cy="120.48" r="19.484" fill="#9e616a"/>
    <path d="m255.62 166.5" fill="#6c63ff"/>
    <path d="m378.34 157.97c-2.2961-4.5697-3.4118-10.215-8.3068-11.697-3.3055-1.0004-16.675 0.49881-19.688 2.1875-5.0111 2.809-0.46997 8.0728-3.4264 12.999-3.2138 5.3548-11.948 16.101-15.162 21.456-2.2094 3.6813 5.2328 14.487 4.0381 18.61-1.1945 4.1238-1.252 8.7523 0.78312 12.533 1.8213 3.3837-0.81389 6.377 1.0179 9.7551 1.9048 3.5132 4.2425 16.649 2.4696 20.231l-1.187 3.5609c11.779 0.69206 21.683-13.38 33.388-14.862 2.9074-0.36815 5.9263-0.84911 8.3221-2.5368 3.5291-2.4859 4.9242-6.9967 5.7962-11.224a94.557 94.557 0 0 0-8.0457-61.012z" fill="#615e84"/>
    <path d="m396 206.22c-1.6406-4.4782-4.6108-24.058-4.6108-24.058l-18.59-0.5451 9.0889 22.417-24.802 34.72s0.0459 0.0763 0.12943 0.21233a6.5592 6.5592 0 1 0 5.5014 6.9704 0.45286 0.45286 0 0 0 0.5686-0.0976c2.7597-3.4632 34.355-35.141 32.715-39.62z" fill="#9e616a"/>
    <path d="m397.89 193.86c-1.7063-7.2018-3.4253-14.443-6.3021-21.262-2.8768-6.8192-6.9952-13.26-12.788-17.867-1.852-1.4729-3.9223-2.7729-6.2439-3.2309-2.3214-0.45796-4.9376 0.0545-6.5679 1.7694-2.6091 2.744-1.824 7.1486-0.86713 10.812q4.2324 16.202 8.4647 32.405 12.222-1.2955 24.444-2.5911z" fill="#3f3d56"/>
    <path d="m371.01 123.18c-0.71757-4.7134-1.467-9.4663-3.1528-13.904-1.6857-4.4382-4.4029-8.5951-8.3007-11.109-6.1715-3.9805-14.162-3.2128-21.081-0.92313-5.351 1.7708-10.574 4.4622-14.348 8.7891-3.7736 4.3269-5.893 10.501-4.4893 16.159q11.071-2.6157 22.142-5.2315l-0.80795 0.57093a17.827 17.827 0 0 1 9.514 12.399 18.47 18.47 0 0 1-3.8965 15.34q7.5506-2.6785 15.101-5.357c3.107-1.1022 6.4324-2.3722 8.2747-5.1992 2.1362-3.2777 1.6398-7.6221 1.0441-11.534z" fill="#2f2e41"/>
  </g>
</svg>
