<?xml version="1.0" encoding="UTF-8" standalone="no"?>
<!-- Created with Inkscape (http://www.inkscape.org/) -->

<svg
   width="960"
   height="1600"
   viewBox="0 0 960 1600"
   version="1.1"
   id="svg5"
   inkscape:version="1.1 (ce6663b3b7, 2021-05-25)"
   sodipodi:docname="splash_1.svg"
   inkscape:export-filename="/home/leanwell09/Downloads/splash.png"
   inkscape:export-xdpi="273.20001"
   inkscape:export-ydpi="273.20001"
   xmlns:inkscape="http://www.inkscape.org/namespaces/inkscape"
   xmlns:sodipodi="http://sodipodi.sourceforge.net/DTD/sodipodi-0.dtd"
   xmlns="http://www.w3.org/2000/svg"
   xmlns:svg="http://www.w3.org/2000/svg">
  <sodipodi:namedview
     id="namedview7"
     pagecolor="#ffffff"
     bordercolor="#a6a6a6"
     borderopacity="1"
     inkscape:pageshadow="0"
     inkscape:pageopacity="0"
     inkscape:pagecheckerboard="false"
     inkscape:document-units="px"
     showgrid="false"
     borderlayer="true"
     units="px"
     inkscape:zoom="0.33540614"
     inkscape:cx="350.32155"
     inkscape:cy="833.31808"
     inkscape:window-width="1920"
     inkscape:window-height="1055"
     inkscape:window-x="1920"
     inkscape:window-y="0"
     inkscape:window-maximized="1"
     inkscape:current-layer="layer1" />
  <defs
     id="defs2" />
  <g
     inkscape:label="Layer 1"
     inkscape:groupmode="layer"
     id="layer1">
    <rect
       x="0.20407049"
       y="0.20407049"
       width="959.59186"
       height="1599.5919"
       fill="#f6dfeb"
       fill-rule="evenodd"
       stroke="#000000"
       stroke-width="0.408141"
       id="rect2"
       style="display:inline" />
    <path
       d="m 532.32859,700.2068 c -21.69403,0 -41.69969,11.37731 -52.3286,29.7502 -10.62716,-18.37221 -30.63581,-29.74783 -52.32858,-29.74783 -33.17935,0 -60.07968,29.90061 -60.07968,62.13578 0,80.96509 112.40826,137.44825 112.40826,137.44825 0,0 112.40828,-56.48551 112.40828,-137.44825 0,-32.23517 -26.90033,-62.13578 -60.08216,-62.13578 z"
       stroke-width="2.05674"
       id="path4"
       style="display:inline;fill:#ffffff" />
    <path
       d="M 480.00001,580 C 421.48052,580 365.39927,603.35024 324.2068,644.66182 283.02239,685.96663 260,741.82578 260,800 c 0,58.17421 23.02267,114.03333 64.2068,155.33825 C 365.39658,996.64841 421.48052,1020 480.00001,1020 c 58.5195,0 114.60342,-23.34999 155.79321,-64.66174 C 676.97764,914.03333 700,858.17421 700,800 700,741.82578 676.97739,685.96663 635.79322,644.66182 594.60343,603.35158 538.51951,580 480.00001,580 Z m 0,42.16935 c 46.68975,0 91.49002,18.55654 124.69611,51.86054 33.20073,33.2971 51.97569,78.63802 51.97569,125.97011 0,47.3321 -18.77467,92.673 -51.97569,125.97011 -33.20609,33.30241 -78.00636,51.86052 -124.69611,51.86052 -46.68975,0 -91.49001,-18.5568 -124.69612,-51.86052 C 322.10317,892.673 303.32823,847.3321 303.32823,800 c 0,-47.33209 18.77521,-92.67301 51.97566,-125.97011 33.20611,-33.30507 78.00637,-51.86054 124.69612,-51.86054 z"
       color="#000000"
       stroke-width="15.9585"
       style="display:inline;fill:#ffffff;fill-rule:evenodd;-inkscape-stroke:none"
       id="path6" />
    <path
       d="m 480.00001,520.00001 c -74.38055,0 -145.7016,29.63132 -198.15816,82.17879 C 229.3853,654.72626 200,725.87354 200,800 c 0,74.12648 29.38263,145.27641 81.84185,197.82119 C 334.29841,1050.3687 405.61946,1080 480.00001,1080 c 74.38055,0 145.70165,-29.6313 198.15817,-82.17881 C 730.61477,945.2738 760,874.12648 760,800 760,725.87354 730.61741,654.72361 678.15818,602.1788 625.70166,549.63133 554.38056,520.00001 480.00001,520.00001 Z m 0,45.86705 c 61.74445,0 120.97231,24.53702 164.76949,68.40878 43.79705,43.87172 68.48893,103.49568 68.48893,165.72416 0,62.22848 -24.69213,121.85213 -68.48893,165.72415 -43.79718,43.87205 -103.02504,68.40875 -164.76949,68.40875 -61.7444,0 -120.97231,-24.537 -164.76943,-68.40875 C 271.43344,921.85213 246.74156,862.22848 246.74156,800 c 0,-62.22848 24.69215,-121.85213 68.48902,-165.72416 43.79712,-43.87202 103.02503,-68.40878 164.76943,-68.40878 z"
       color="#000000"
       fill-opacity="0.98867"
       stroke-width="0.264864"
       style="display:inline;fill:#ffffff;fill-rule:evenodd;-inkscape-stroke:none"
       id="path8" />
    <path
       d="M 480,460 C 389.83536,460 303.33996,495.82799 239.58397,559.58398 175.82799,623.33997 140,709.83532 140,800 c 0,90.16464 35.82799,176.66004 99.58397,240.416 C 303.33996,1104.172 389.83536,1140 480,1140 c 90.16465,0 176.66006,-35.828 240.41604,-99.584 C 784.17203,976.66004 820,890.16464 820,800 820,709.83532 784.17203,623.33997 720.41604,559.58398 656.66006,495.82799 570.16465,460 480,460 Z m 0,46.61496 c 77.81844,0 152.42796,30.90281 207.45376,85.9313 55.02581,55.02584 85.93126,129.63531 85.93126,207.45374 0,77.81843 -30.90277,152.42799 -85.93126,207.4537 -55.02848,55.0259 -129.63532,85.9313 -207.45376,85.9313 -77.8184,0 -152.42791,-30.9027 -207.45375,-85.9313 C 217.52043,952.42799 186.61497,877.81843 186.61497,800 c 0,-77.81843 30.9028,-152.4279 85.93128,-207.45374 C 327.57209,537.52043 402.1816,506.61496 480,506.61496 Z"
       color="#000000"
       style="display:inline;fill:#ffffff;fill-rule:evenodd;stroke-width:0.266082;-inkscape-stroke:none"
       id="path10" />
  </g>
</svg>
