<svg xmlns="http://www.w3.org/2000/svg" data-name="Layer 1" width="821" height="708.317"><circle cx="115.177" cy="394.031" r="110.853" fill="#f0f0f0"/><path fill="#f0f0f0" d="M115.481 394.03h.305l5.482 314.287h-11.573l5.786-314.287z"/><circle cx="353.177" cy="479.085" r="80.853" fill="#f0f0f0"/><path fill="#f0f0f0" d="M353.399 479.085h.223l3.998 229.232h-8.441l4.22-229.232z"/><circle cx="251.349" cy="183.976" r="183.976" fill="#f858a5"/><path d="M576.69 156.936a183.99 183.99 0 0 1-306.558 194.715A183.992 183.992 0 1 0 576.69 156.936Z" transform="translate(-189.5 -95.842)" opacity=".1" style="isolation:isolate"/><path fill="#3f3d56" d="M250.843 183.975h-.506l-9.098 521.602h19.207l-9.603-521.602z"/><path d="M820 708.15H1a1 1 0 0 1 0-2h819a1 1 0 0 1 0 2Z" fill="#cacaca"/><path fill="#ffb6b6" d="M676.812 698.025h-9.798l-4.661-37.79h14.46l-.001 37.79z"/><path d="m679.31 707.522-31.59-.001v-.4a12.297 12.297 0 0 1 12.295-12.296h.001l19.295.001Z" fill="#2f2e41"/><path fill="#ffb6b6" d="M722.243 698.025h-9.797l-4.661-37.79h14.46l-.002 37.79z"/><path d="m724.742 707.522-31.59-.001v-.4a12.297 12.297 0 0 1 12.295-12.296h.001l19.295.001Z" fill="#2f2e41"/><path fill="#ffb6b6" d="M557.784 698.025h9.798l1.818-37.994-11.617.204.001 37.79z"/><path d="M555.285 694.826h19.295a12.297 12.297 0 0 1 12.296 12.295v.4l-31.59.001Z" fill="#2f2e41"/><path fill="#ffb6b6" d="M518.178 698.025h9.797l1.942-37.994-11.741.204.002 37.79z"/><path d="M515.679 694.826h19.295a12.297 12.297 0 0 1 12.296 12.295v.4l-31.59.001Z" fill="#2f2e41"/><path d="M602.995 537.912a6.953 6.953 0 0 1 5.151-9.335l33.451-53.777 11.304 10.044-36.435 49.702a6.991 6.991 0 0 1-13.47 3.366Zm152.883 19.904a6.953 6.953 0 0 1-2.959-10.244l-14.372-61.679 15.095-.891 9.38 60.909a6.991 6.991 0 0 1-7.144 11.905Z" fill="#ffb6b6"/><path d="M613.616 535.259a7.767 7.767 0 0 0-9.388-7.33l-14.305-23.606-6.149 12.959 14.527 20.43a7.81 7.81 0 0 0 15.315-2.453ZM494.08 559.95a7.767 7.767 0 0 0-2.892-11.553l3.246-27.411-12.82 6.433-1.117 25.044a7.81 7.81 0 0 0 13.583 7.488Z" fill="#ffb6b6"/><path fill="#2f2e41" d="m669.045 532.184-4.155 8.44-3.272 143.408 21.377 1.566 20.061-105.176 4.838 103.61 17.58.168 19.017-141.304-75.446-10.712zm-105.515 0 6.937 4.11s5.638 3.588 3.742 28.548-4.161 124.963-4.161 124.963H557.75l-19.918-119.458-7.268 120.753-12.945-.647s-26.449-137.478-15.004-152.398Z"/><path d="m667.526 428.906 23.352-7.793 28.674.42 19.509 7.787 5.43 113.576s-42.689 25.573-79.6-2.272Z" fill="#e4e4e4"/><path d="M667.526 427.906s-9.213-1.08-14.348 14.211-18.715 35.978-18.715 35.978l14.854 13.929 29.71-41.203Zm64.288 3.559 7.247-2.145s16.413 2.188 17.067 19.845 3.759 45.292 3.759 45.292l-16.741 3.337Z" fill="#e4e4e4"/><path d="M498.428 443.851s33.74-10.846 60.961-.734l-2.228 52.509 16.791 40.959s-53.382 20.707-71.172 3.305l5.188-41.028Z" fill="#f858a5"/><path d="m550.319 449.284 7.07-6.167s4.716-.055 8.775 7.2 11.412 30.677 11.412 30.677l23.54 39.875-10.356 7.12-37.335-52.215Zm-50.639-2.844.481-3.29s-13.146.973-14.258 13.64-5.178 84.144-5.178 84.144l13.004 2.59 12.935-73.361Z" fill="#f858a5"/><circle cx="707.082" cy="388.833" r="21.818" fill="#ffb6b6"/><path d="m545.254 424.874-39.44 7.766a3.122 3.122 0 0 1-3.663-2.457l-3.348-17a23.218 23.218 0 1 1 45.56-8.972l3.348 17a3.122 3.122 0 0 1-2.457 3.663Z" fill="#2f2e41"/><circle cx="526.848" cy="410.738" r="17.023" fill="#ffb6b6"/><path d="m550.088 404.85-24.117 4.748-.93-3.413-.554 3.706-3.714.731-1.841-6.766-1.1 7.345-7.185 1.415-.067-.34a18.387 18.387 0 0 1 14.472-21.569l3.4-.67a18.387 18.387 0 0 1 21.569 14.473Z" fill="#2f2e41"/><path d="M530.014 431.171a3.186 3.186 0 0 1-.551.059l-18.273.362-5.748-29.186 19.44-3.828-.37.655c-5.159 9.129 2.38 20.798 7.332 26.942a3.073 3.073 0 0 1 .39 3.248 3.106 3.106 0 0 1-2.22 1.748Zm155.836-62.007c2.667-.822 5.55-.415 8.273.195l-.26.66c6.502-3.767 14.24-5.852 21.616-4.408 7.375 1.443 14.173 6.878 15.957 14.178a21.735 21.735 0 0 1 .118 8.872 31.132 31.132 0 0 1-14.339 20.982c-.935.566-2.376.97-2.928.027-.627-1.07.788-2.158 1.21-3.325.462-1.277-.378-2.693-1.47-3.501s-2.423-1.227-3.564-1.963a10.135 10.135 0 0 1-4.128-7.043 30.037 30.037 0 0 1 .255-8.377 43.448 43.448 0 0 1-13.665 2.627 9.972 9.972 0 0 1-4.843-.766c-1.959-.998-3.14-3.024-4.213-4.944l-1.347-2.411a10.234 10.234 0 0 1-1.71-4.828c.001-2.79 2.372-5.154 5.039-5.975Z" fill="#2f2e41"/></svg>