<svg xmlns="http://www.w3.org/2000/svg" data-name="Layer 1" width="684.763" height="506.494"><path fill="#9e616a" d="m140.266 494.709 10.572-.001 5.029-40.775-15.603.001.002 40.775z"/><path d="M137.57 491.257h2.975l11.617-4.724 6.227 4.724a13.268 13.268 0 0 1 13.268 13.267v.431l-34.087.001Z" fill="#2f2e41"/><path fill="#9e616a" d="m189.379 494.709 10.572-.001 5.029-40.775-15.603.001.002 40.775z"/><path d="M186.683 491.257h2.975l11.617-4.724 6.226 4.724h.001a13.268 13.268 0 0 1 13.268 13.267v.431l-34.087.001Zm11.147-219.692-83.06 2.167 1.445 40.446s-1.444 10.833 1.445 13.722 4.333 2.89 2.889 7.945 6.187 13.313 5.26 14.24-3.094 5.983-3.094 5.983l7.223 41.168s5.056 71.503 6.5 72.947 2.89 0 1.445 3.612-2.89 2.166-1.445 3.611a53.196 53.196 0 0 1 3.611 4.333h17.462s1.317-7.222 1.317-7.944 1.444-5.056 1.444-5.778-1.276-2-1.276-2a23.761 23.761 0 0 1-.89-4.5c0-1.445-4.334-57.058-4.334-57.058l8.667-72.225 20.945 70.78s0 62.114 1.445 63.558 1.444.722.722 3.611-3.611 2.167-1.444 4.334 2.889-1.445 2.166 2.167l-.722 3.61 21.668.31s2.889-6.087 1.444-8.254-1.358-1.575.405-5.12 2.484-4.269 1.762-4.991-.722-4.564-.722-4.564l-3.612-69.106s-.722-72.947-.722-75.114a7.204 7.204 0 0 1 .6-3.249v-2.94l-2.767-10.422Z" fill="#2f2e41"/><path d="M291.826 114.04a8.065 8.065 0 0 1-11.61 4.262l-36.053 30.205-1.96-14.764 35.264-26.995a8.109 8.109 0 0 1 14.359 7.293Z" fill="#9e616a"/><circle cx="132.848" cy="104.117" r="22.39" fill="#9e616a"/><path d="M151 81.835c-2.085-4.969-11.018-7.918-25.154-7.474s-16.61 17.3-16.61 17.3c-7.787 7.258 4.783 29.915 6.964 26.791 2.181-3.124 5.843-.171 5.843-.171l-3.49-19.627c3.685 1.418 7.648 2.37 11.114.718l-5.743-3.07 14.279 1.776-5.889-4.53c.143-.047.286-.096.428-.144a20.925 20.925 0 0 0 7.46 1.694c3.002-.023 6.193-1.43 7.45-4.155a6.139 6.139 0 0 0 .533-2.376c4.14 1.344 6.313 6.193 6.313 6.193A76.403 76.403 0 0 0 151 81.835Z" fill="#2f2e41"/><path d="M150.77 127.508c-5 0-8.22.69-16 2-14.36 2.42-5.76 16.065-5.76 16.065s.65-.33-1.11 0-7.76 5.52-7.76 5.52l-10.73 9.53c-16.17 12.69-12.55 32.49-12.55 32.49l23.58 23.73-10.33 47.61s4.39 7.07 2.12 10.24 20 2.26 20 2.26c15.37 6.85 69.52 1.06 69.52 1.06-.75-1.96-8-17.15-8-17.15 3.15-5.44.15-13.3.15-13.3s-3.13-37.18-5.13-42.32 5.12-32.99 9.8-32.69 34.91-15.12 34.91-15.12-.76-1.21 9.22-5.29a48.911 48.911 0 0 0 15.49-9.77l4.1-8.19c-1.97.76-8.62-11.78-8.62-11.78l-2.9 1.105-1.68-.485s-13.11 3.73-15.79 6.45-3.58 1.96-6 2.57-2.72 2.31-3.48 2.12-2.11 2.11-3.17 1.81-3.33.91-4.84 1.21-12.24 4.84-12.24 4.84c-6.64-3.36-24.64-2-24.64-2s-5.89-3.47-7.56 0a5.69 5.69 0 0 1-5.13 3.33l-7.18-3.07c-.418 1.523-8.25-14.354-8.29-12.775Z" fill="#f858a5"/><path d="M116.49 313.841a8.065 8.065 0 0 1 1.8-12.235l-10.172-39.988 13.908 5.329 7.729 37.761a8.109 8.109 0 0 1-13.265 9.133Z" fill="#9e616a"/><path d="m97.77 185.508-1.256 15.969s-1.562 17.543-1.153 20.787 1.17 23.055 1.17 23.055l13.239 26.19 15-4-.898-12.286.898 11.285 2-10-5-17 3-6-1.513-20.14Z" fill="#f858a5"/><path d="m452.91 148.188 4.953 1.06a28.51 28.51 0 0 1 .77-6.148 18.464 18.464 0 0 0 2.788 6.908l28.403 6.066 27.268-28.777c.042-14.389-7.948-25.323-22.274-25.323-.864 0-1.759.041-2.664.125a30.299 30.299 0 0 0-34.686 23.814c-10.154 9.998-6.471 15.876-4.557 22.275Z" fill="#2f2e41"/><path fill="#ffb6b6" d="M438.947 484.723h-10.302l-4.901-39.738h15.205l-.002 39.738z"/><path d="M443.556 504.286h-7.31l-1.306-6.902-3.342 6.902H412.21a4.359 4.359 0 0 1-2.476-7.946l15.483-10.693v-6.978l16.286.972Z" fill="#2f2e41"/><path fill="#ffb6b6" d="m559.646 473.509-8.961 5.084-23.873-32.144 13.225-7.503 19.609 34.563z"/><path d="m573.308 488.25-6.358 3.607-4.54-5.36.498 7.653-16.863 9.568a4.359 4.359 0 0 1-6.075-5.688l8.19-16.941-3.444-6.07 14.644-7.191Z" fill="#2f2e41"/><path d="M400.866 155.15a9.124 9.124 0 0 1 7.354 11.902l15.765 13.645-5.956 11.603-21.992-19.583a9.174 9.174 0 0 1 4.829-17.567Z" fill="#ffb6b6"/><path d="m414.493 197.619-10.544-16.775 11.724-11.987L424 178.99l10.314 4.602 14.156 8.625c2.815-3.313 24.505-28.23 34.183-21.056a9.743 9.743 0 0 1 4.196 6.983c.684 6.67-5.295 13.456-5.522 13.707l-12.785 17.246c-.397 1.084-4.627 12.252-11.228 15.256a7.507 7.507 0 0 1-6.035.197c-17.493-6.819-29.279-14.511-34.538-22.476a20.216 20.216 0 0 1-2.248-4.454Zm39.017 35.012s-30.293 48.252-24.805 53.74 14.029 6.93 14.029 6.93l18.9-24.492Z" fill="#2f2e41"/><path d="m480.293 166.73-14.277 9.659a36.827 36.827 0 0 0-14.348 42.012l4.02 12.217Zm25.246 131.715 1.909 6.648 6.513 80.171 32.54 60.644-15.531 11.093-44.373-57.685-17.55-57.278-27.563 126.796-20.707-1.479 14.381-175.801 27.291-49.483 43.09 56.374z" fill="#2f2e41"/><path d="m482.721 169.16-19.87 16.239a27.062 27.062 0 0 0-8.984 13.833 27.062 27.062 0 0 0-.95 7.575l.593 35.264-18.219 48.69s49.393 18.66 55.979 2.196-8.549-123.798-8.549-123.798Z" fill="#f858a5"/><path d="m455.048 276.493-3.293-13.172.804-32.773c.064-1.904 10.215-31.542 23.007-63.023l11.005-11.005 5.933-3.86 13.06 12.054s-1.66 32.997-1.123 66.776c.149 9.346-1.494 20.26-2.195 28.538l6 26.663v14.84l-.39.08c-.39.078-6.403-.108-31.078-.108-20.444 0-6.834-14.495-21.73-25.01Z" fill="#2f2e41"/><path opacity=".2" d="m500.028 194.141 3.001 18.723-20.308 8.377 17.307-27.1z"/><circle cx="479.572" cy="129.265" r="19.882" fill="#ffb6b6"/><path d="M512.886 230.144a36.52 36.52 0 0 1-43.839 8.86l-4.327-2.141Z" opacity=".2"/><path d="M443.701 225.567a9.124 9.124 0 0 1 13.985.422l20.074-5.635 6.4 11.363-28.46 7.56a9.174 9.174 0 0 1-11.999-13.71Z" fill="#ffb6b6"/><path d="m486.65 237.6-19.809-.446-3.541-16.39 13.043-1.364 9.524-6.07 14.998-7.06c-1.213-4.175-10.052-36.006 1.268-40.128a9.743 9.743 0 0 1 8.139.347c5.943 3.105 8.31 11.833 8.395 12.161l7.346 20.173c.685.928 7.673 10.613 6.542 17.777a7.507 7.507 0 0 1-3.161 5.144c-15.33 10.839-28.244 16.435-37.788 16.434a20.216 20.216 0 0 1-4.956-.579Zm-30.92-121.415c1.592 2.07 7.075 3.902 13.588 5.38-.01-.136-.01-.271-.01-.407a28.51 28.51 0 0 1 .77-6.148 18.463 18.463 0 0 0 2.787 6.908c.104.156.208.312.323.468 5.587 1.103 11.496 1.956 16.126 2.528-3.184 11.465-15.387 20.87-14.066 27.84l35.758 7.304a28.032 28.032 0 0 1 .687-8.635 18.587 18.587 0 0 0 5.18 9.832l3.039.624.905-4.463c7.844-18.842-3.09-38.13-21.006-48.108a21.777 21.777 0 0 0-13.795-9.259l-4.463-.916a21.88 21.88 0 0 0-25.823 17.052Z" fill="#2f2e41"/><path d="m17.09 480.089-.481-10.832a34.983 34.983 0 0 0-16.318-4.13c7.837 6.407 6.858 18.758 12.171 27.374a21.043 21.043 0 0 0 15.43 9.724l6.559 4.016a35.26 35.26 0 0 0-7.432-28.573 34.06 34.06 0 0 0-6.26-5.817c-1.57 4.142-3.669 8.238-3.669 8.238Z" fill="#f2f2f2"/><path d="M1.19 506.494h682.383a1.19 1.19 0 0 0 0-2.382H1.19a1.19 1.19 0 0 0 0 2.382Z" fill="#cacaca"/><path d="M371.38 68.054c2.475 10.87 3.65 23.193-2.948 32.92a22.6 22.6 0 0 1-11.698 8.862 33.194 33.194 0 0 1-14.907.915c-11.255-1.56-21.258-7.422-32.328-9.698-4.885-1.004-10.069-1.336-14.771.597-3.524 1.448-7.235 4.36-7.252 8.514-.017 4.266 3.688 7.097 7.372 8.41 4.917 1.75 10.026 1.072 15.126.851 5.493-.237 11.093.26 15.656 3.623a27.23 27.23 0 0 1 8.701 11.797c2.294 5.566 3.225 11.55 4.691 17.358a77.073 77.073 0 0 0 5.533 15.126 78.352 78.352 0 0 0 19.143 24.814c3.94 3.39 8.726 6.844 14.106 7.155 4.15.24 9.194-1.504 10.793-5.707a8.195 8.195 0 0 0-3.836-9.73c-3.557-1.794-7.43.766-8.578 4.28a5.477 5.477 0 0 0 .57 4.939c1.079 1.608-1.519 3.111-2.59 1.514-2.487-3.708-1.187-8.696 1.859-11.666a8.737 8.737 0 0 1 11.499-.857 11.361 11.361 0 0 1 4.153 11.74c-1.28 4.616-5.816 7.553-10.346 8.28-5.594.899-10.978-1.3-15.493-4.476a69.453 69.453 0 0 1-12.27-11.333 81.44 81.44 0 0 1-16.246-29.05c-3.302-10.58-3.542-24.559-13.354-31.705-5.049-3.677-11.235-3.269-17.155-2.931-5.225.298-10.323.243-15.117-2.122-3.958-1.954-7.152-5.56-7.218-10.153-.066-4.637 3.226-8.366 7.105-10.478 10.248-5.581 22.554-1.08 32.622 2.648 10.125 3.75 21.684 8.151 32.444 4.205a20.125 20.125 0 0 0 11.117-10.623c2.606-5.525 2.976-11.794 2.374-17.79a77.427 77.427 0 0 0-1.65-9.431c-.427-1.88 2.465-2.683 2.894-.798Z" fill="#3f3d56"/><path d="M352.992 37.562a100.843 100.843 0 0 0 13.26 27.84q2.16 3.15 4.54 6.14a32.493 32.493 0 0 1 4.45-6.22c6.05-6.65 14.16-11 22.03-15.36 7.87-4.36 15.86-9.04 21.42-16.11a28.4 28.4 0 0 0 5.24-10.79c1.26-5.33.78-10.89-2.33-15.34-4.52-6.47-13.53-8.75-21.19-6.88-7.67 1.87-14.09 7.2-19.07 13.32 1.63-7.52-6.3-14.78-13.97-14.12-7.67.67-13.82 7.37-15.86 14.79-2.05 7.41-.72 15.35 1.48 22.73Z" fill="#f858a5"/><path d="M366.252 65.402q2.16 3.15 4.54 6.14a32.493 32.493 0 0 1 4.45-6.22c6.05-6.65 14.16-11 22.03-15.36 7.87-4.36 15.86-9.04 21.42-16.11a28.4 28.4 0 0 0 5.24-10.79 75.766 75.766 0 0 0-45.9 24.35 73.709 73.709 0 0 0-11.78 17.99Z" opacity=".2"/></svg>