<svg xmlns="http://www.w3.org/2000/svg" data-name="Layer 1" width="637.67" height="652.457"><path d="M637.67 651.267a1.186 1.186 0 0 1-1.19 1.19H1.19a1.19 1.19 0 0 1 0-2.38h635.29a1.187 1.187 0 0 1 1.19 1.19Z" fill="#ccc"/><path d="M517.096 29.478a24.79 24.79 0 0 0-5.62-11.8 47.502 47.502 0 0 0-67.04-4.33l-.4.36a48.46 48.46 0 0 0-77.96 15 45.146 45.146 0 0 0 2.03 40.99 47.43 47.43 0 0 0 5.59 7.82c2.19 2.5 61.31 68.27 61.9 68.93a.747.747 0 0 0 .57.26c.02 0 .05-.01.08-.01a.267.267 0 0 0 .12-.03.766.766 0 0 0 .47-.34l.31-.51.37-.63 5.47-9.14c15.17-25.35 35.62-49.27 60.79-71.09a39.03 39.03 0 0 0 4.49-4.6 40.469 40.469 0 0 0 9.3-22.76 31.925 31.925 0 0 0-.47-8.12Z" fill="#f858a5"/><path d="m245.86 543.634 11.133-36.26a122.386 122.386 0 0 0-48.92-32.776c18.3 30.318.567 69.87 7.957 104.504a73.616 73.616 0 0 0 39.43 50.167l16.895 20.935a123.357 123.357 0 0 0 9.067-102.888 119.156 119.156 0 0 0-13.797-26.518c-10.04 11.804-21.766 22.836-21.766 22.836Z" fill="#f2f2f2"/><path d="m184.638 548.267-6.206-37.42a122.386 122.386 0 0 0-58.404-7.518c29.902 18.974 31.669 62.283 53.729 89.987a73.616 73.616 0 0 0 57.665 27.317l24.459 11.202a123.357 123.357 0 0 0-37.771-96.133 119.156 119.156 0 0 0-24.175-17.581c-3.723 15.042-9.297 30.146-9.297 30.146Z" fill="#f2f2f2"/><path fill="#ffb6b6" d="m306.87 302.876-3.074 7.15 5.024 25.396 51.255-7.127-.409-30.966-1.029-6.783-51.767 12.33zm-26.481 329.129h11.308l5.381-43.616h-16.689v43.616z"/><path d="m311.938 642.786-17.17-11.862v-7.746l-1.995.125-12.384.737-3.686.215-2.28 27.343h8.109l1.44-7.655 3.709 7.655h21.513a4.834 4.834 0 0 0 2.744-8.812Z" fill="#2f2e41"/><path fill="#ffb6b6" d="M343.907 632.005h11.308l6.652-64.213-21.248-1.27 3.288 65.483z"/><path d="m375.457 642.786-17.17-11.862v-7.746l-2.177.125-12.6.76-3.288.192-2.28 27.343h8.109l1.44-7.655 3.708 7.655h21.514a4.834 4.834 0 0 0 2.744-8.812Zm-99.868-48.394h.044l2.175-70.918a18.544 18.544 0 0 1 .243-17.524l.311-.564-.807-3.742a23.836 23.836 0 0 1 1.362-14.346l2.03-66.154c-7.25-46.974 27.293-77.609 27.293-77.609l-3.174-24.62 55.87 1.27-.95 23.35 11.109 38.169c5.846 56.96 6.194 112.761.213 167.23a1.04 1.04 0 0 0 .068.46 13.906 13.906 0 0 1-1.123 11.223 4.244 4.244 0 0 0-.506 1.392c-1.232 9.549-1.392-2.53-3.025 6.934l.318.161c1.144.395 1.634 1.98 1.096 3.54s-1.902 2.505-3.046 2.11l-29.867.32c-1.144-.396-1.635-1.98-1.097-3.54.539-1.56 1.903-2.505 3.047-2.11l1.858.94-3.109-10.172-1.09-1.017a4.737 4.737 0 0 1 .603-7.402l.903-29.527.44-12.5-.906-14.18-4.19-63.786-15.854 78.438-16.196 84.964a2.968 2.968 0 0 1 .93 2.752 3.077 3.077 0 0 1-3.066 2.435H275.51a2.995 2.995 0 0 1-2.884-3.79 3.031 3.031 0 0 1 2.963-2.187Zm19.551-412.19a27.662 27.662 0 1 0 47.578-19.186l-.132-.133a19.729 19.729 0 0 0-.675-.686.01.01 0 0 1-.011-.011 5.806 5.806 0 0 1-.875-.786c-3.734-5.218-7.968-9.593-18.223-6.86-14.765 3.936-27.662 12.382-27.662 27.662Z" fill="#2f2e41"/><path d="M447.091 170.36a10.132 10.132 0 0 1-11.479 10.47l-71.337 58.547-10.897-19.152 73.55-51.527a10.187 10.187 0 0 1 20.163 1.662Z" fill="#ffb6b6"/><path d="M334.153 256.643s2.323 4.822 11.362-2.027c7.236-5.484 41.78-29.142 49.454-39.143a7.96 7.96 0 0 0 9.49-2.276l-18.874-18.172c-5.922.4-5.983 4.363-5.475 6.64l-15.169 6.026-39.506 22.698 6.976 22.798Z" fill="#e6e6e6"/><circle cx="329.617" cy="188.602" r="23.195" fill="#ffb7b7"/><path d="m361.259 303.656.238-12.94c.941-1.292 8.834-12.576 7.065-23.849-.828-5.307-3.708-9.764-8.54-13.234l-3.118-7.258-4.616-10.729-13.507-8.04-1.87-3.81-1.543-3.165-18.633-1.86-4.593 6.181-.09.012a30.148 30.148 0 0 0-11.625 5.443 30.676 30.676 0 0 0-12.134 24.473l.113 15.038.023 2.154.011 2.087 11.625 31.289.442 1.213 4.559 12.26-.783 1.292a6.864 6.864 0 0 0 1.509 8.812l.544 7.666.987-.272 5.613-1.565 42.46-11.85a7.71 7.71 0 0 0 4.025-2.711 1.658 1.658 0 0 0 .102-.148 4.267 4.267 0 0 0 .443-.669c.964-2.438 1.066-3.096 1.077-3.776a9.312 9.312 0 0 0 .454-11.726Z" fill="#e6e6e6"/><path d="M305.342 194.683c.21-.033.42-.078.63-.11 3.619-.643 7.237-1.273 10.844-1.926l.332-8.177 4.37 7.325c9.97 3.308 19.297 1.438 28.071-2.689a79.25 79.25 0 0 0 8.41-4.636c.89-13.828-4.7-22.681-15.104-21.753-.38.034-.652-.354-.984-.52a.01.01 0 0 1-.011-.011c-.565-.266-1.14-.52-1.715-.752a25.55 25.55 0 0 0-26.821 5.2c-7.081 6.76-10.268 17.925-8.022 28.049Z" fill="#2f2e41"/><path d="M320.455 155.207a4.3 4.3 0 0 1-3.55 3.062c-3.118 3.856-6.69 7.939-11.578 8.71a5.569 5.569 0 0 1-4.072-.703 2.26 2.26 0 0 1-.408-.329c-1.157-1.1-1.247-3.312.125-4.14-6.147 2.439-9.742 9.073-10.649 15.617-.907 6.543.352 13.155 1.18 19.71.827 6.554 1.19 13.438-1.384 19.528-3.04 7.179-10.025 12.339-17.646 13.983-.68.148-1.361.272-2.053.352a20.942 20.942 0 0 0-3.38-8.687 18.738 18.738 0 0 1-.804 8.982 35.787 35.787 0 0 1-16.41-4.242c-6.907-3.64-12.656-9.197-17.363-15.423 8.109 5.75 19.313 7.904 28.136 3.357 7.893-4.083 12.554-12.656 14.596-21.298 2.04-8.653-6.539-19.254-5.609-28.089.941-8.834 11.596-16.332 17.425-23.034 3.72-4.276 9.21-7.44 14.868-6.907a13.36 13.36 0 0 1 11.704 16.5c1.61-2.279 5.772-1.78 6.804.817a3.36 3.36 0 0 1 .068 2.234Z" fill="#2f2e41"/><path d="M305.973 194.572s6.87-25.648 36.325-31.567a4.05 4.05 0 0 0 .288-.122c.088-.055.199-.11.31-.166a21.215 21.215 0 0 0-.985-.52.01.01 0 0 1-.011-.011 29.689 29.689 0 0 0-.875-.786l-.84.034s-29.554-4.68-34.212 33.138Z" fill="#fd6584"/><path d="M379.893 316.795a3.913 3.913 0 0 0-3.243-2.456 9.314 9.314 0 0 0-4.209.609 32.36 32.36 0 0 0-13.682 8.895l.063 2.597a12.428 12.428 0 0 0 .204 15.588 7.663 7.663 0 0 0 3.979 2.576 4.476 4.476 0 0 0 4.385-1.322c1.568-1.91.81-4.786-.342-6.971a25.399 25.399 0 0 0-8.558-9.383 41.192 41.192 0 0 0 17.303-4.3 9.757 9.757 0 0 0 3.166-2.222 3.923 3.923 0 0 0 .934-3.611Z" fill="#2f2e41"/><path d="m487.702 469.55-11.224.444a36.244 36.244 0 0 0-4.363 16.885c6.678-8.087 19.47-7.01 28.423-12.471a21.801 21.801 0 0 0 10.153-15.937l4.193-6.775a36.532 36.532 0 0 0-29.64 7.555 35.288 35.288 0 0 0-6.058 6.456c4.283 1.648 8.516 3.843 8.516 3.843Zm-56 122-11.224.444a36.244 36.244 0 0 0-4.363 16.885c6.678-8.087 19.47-7.01 28.423-12.471a21.801 21.801 0 0 0 10.153-15.937l4.193-6.775a36.532 36.532 0 0 0-29.64 7.555 35.288 35.288 0 0 0-6.058 6.456c4.283 1.648 8.516 3.843 8.516 3.843ZM167.164 418.814l-9.514-5.973a36.244 36.244 0 0 0-13.136 11.47c10.079-2.902 20.026 5.211 30.5 5.761a21.801 21.801 0 0 0 17.379-7.418l7.286-3.223a36.532 36.532 0 0 0-28.727-10.505 35.288 35.288 0 0 0-8.645 1.907c2.603 3.779 4.857 7.98 4.857 7.98Z" fill="#f2f2f2"/><path d="M447.499 158.31c-.224-1.504 1.407-2.575 2.017-3.967a6.341 6.341 0 0 0 0-3.817c-.353-1.687-.758-3.477-1.98-4.693a8.04 8.04 0 0 0-4.41-1.849 38.648 38.648 0 0 0-11.943-.211l3.01.183a15.852 15.852 0 0 0-5.614.652 5.673 5.673 0 0 0-3.767 3.922c-.372 1.858.898 4.034 2.786 4.193a3.641 3.641 0 0 0-1.493 7.128c-.435 1.174-1.727 1.737-2.833 2.322-1.107.586-2.271 1.59-2.084 2.828.247 1.637 2.434 1.973 4.088 1.901l18.002-.785a9.63 9.63 0 0 0 4.491-.933c1.335-.778 2.265-2.484 1.649-3.9-.476-1.095-1.743-1.794-1.919-2.975ZM238.708 318.65c-2.475 10.87-3.65 23.193 2.949 32.92a22.6 22.6 0 0 0 11.698 8.861 33.194 33.194 0 0 0 14.906.916c11.255-1.56 21.259-7.422 32.328-9.698 4.885-1.005 10.07-1.337 14.772.596 3.523 1.449 7.234 4.361 7.251 8.515.018 4.266-3.687 7.097-7.372 8.409-4.917 1.75-10.026 1.073-15.126.852-5.492-.238-11.093.259-15.656 3.623a27.23 27.23 0 0 0-8.701 11.797c-2.294 5.566-3.224 11.55-4.69 17.358a77.073 77.073 0 0 1-5.533 15.125 78.352 78.352 0 0 1-19.144 24.815c-3.94 3.39-8.726 6.844-14.106 7.155-4.15.24-9.193-1.504-10.793-5.707a8.195 8.195 0 0 1 3.837-9.73c3.556-1.794 7.429.766 8.577 4.28a5.477 5.477 0 0 1-.57 4.939c-1.079 1.607 1.519 3.11 2.59 1.514 2.487-3.709 1.187-8.696-1.859-11.666a8.737 8.737 0 0 0-11.499-.857 11.361 11.361 0 0 0-4.153 11.74c1.28 4.616 5.816 7.552 10.346 8.28 5.594.898 10.978-1.3 15.493-4.477a69.453 69.453 0 0 0 12.27-11.333 81.44 81.44 0 0 0 16.246-29.049c3.302-10.58 3.542-24.559 13.354-31.705 5.049-3.677 11.235-3.27 17.155-2.932 5.225.298 10.323.244 15.117-2.122 3.958-1.953 7.152-5.558 7.218-10.152.067-4.637-3.226-8.366-7.105-10.479-10.248-5.58-22.554-1.08-32.622 2.65-10.124 3.749-21.684 8.15-32.443 4.204a20.125 20.125 0 0 1-11.118-10.623c-2.605-5.525-2.976-11.794-2.374-17.79a77.427 77.427 0 0 1 1.65-9.432c.427-1.88-2.464-2.682-2.893-.797Z" fill="#3f3d56"/><path d="M288.393 379.138a10.132 10.132 0 0 1 3.123-15.22l-15.249-45.144 12.452-47.841 20.078 9.077-12.39 36.085 9.27 52.525a10.187 10.187 0 0 1-17.284 10.518Z" fill="#ffb6b6"/><path d="M306.772 231.514s-4.716-2.532-7.996 8.324c-2.625 8.691-20.494 55.88-20.816 68.482a7.96 7.96 0 0 0-6.335 7.423l25.953 3.591c4.554-3.807 2.271-7.048.522-8.59l8.84-14.972 18.474-40.42-15.2-22.068Z" fill="#e6e6e6"/><path d="M257.096 288.158a100.843 100.843 0 0 1-13.26 27.84q-2.16 3.15-4.54 6.14a32.493 32.493 0 0 0-4.45-6.22c-6.05-6.65-14.16-11-22.03-15.36-7.87-4.36-15.86-9.04-21.42-16.11a28.4 28.4 0 0 1-5.24-10.79c-1.26-5.33-.78-10.89 2.33-15.34 4.52-6.47 13.53-8.75 21.19-6.88 7.67 1.87 14.09 7.2 19.07 13.32-1.63-7.52 6.3-14.78 13.97-14.12 7.67.67 13.82 7.37 15.86 14.79 2.05 7.41.72 15.35-1.48 22.73Z" fill="#f858a5"/><path d="M405.362 13.034a30.397 30.397 0 0 0-20.208 12.863 29.385 29.385 0 0 0-3.914 24.18 29.973 29.973 0 0 0 6.992 12.652c1.318 1.416 3.436-.71 2.122-2.122a27.504 27.504 0 0 1-7.021-21.45 26.384 26.384 0 0 1 11.228-18.591 27.297 27.297 0 0 1 11.598-4.64c1.903-.286 1.095-3.177-.797-2.892Z" fill="#3f3d56"/><path d="M508.266 60.358a39.03 39.03 0 0 1-4.49 4.6c-25.17 21.82-45.62 45.74-60.79 71.09l-5.47 9.14-.37.63a15.042 15.042 0 0 1-3.33-3.47c-3.5-5.09-3.52-11.78-2.66-17.9a74.633 74.633 0 0 1 77.11-64.09Zm-264.43 255.639q-2.16 3.15-4.54 6.14a32.493 32.493 0 0 0-4.45-6.22c-6.05-6.65-14.16-11-22.03-15.36-7.87-4.36-15.86-9.04-21.42-16.11a28.4 28.4 0 0 1-5.24-10.79 75.766 75.766 0 0 1 45.9 24.35 73.709 73.709 0 0 1 11.78 17.99Z" opacity=".2"/><circle cx="435.586" cy="141.598" r="4" fill="#3f3d56"/></svg>