<svg xmlns="http://www.w3.org/2000/svg" data-name="Layer 1" width="865.67" height="711.472"><path data-name="Path 339" d="M443.986 168.892h-3.9V61.915A61.915 61.915 0 0 0 378.171 0h-226.65a61.915 61.915 0 0 0-61.916 61.914v586.884a61.915 61.915 0 0 0 61.915 61.915h226.648a61.915 61.915 0 0 0 61.915-61.915V245.04h3.9Z" fill="#3f3d56"/><path data-name="Path 340" d="M427.46 57.768v595.175a46.959 46.959 0 0 1-46.943 46.952h-231.3a46.966 46.966 0 0 1-46.973-46.952V57.768a46.965 46.965 0 0 1 46.971-46.951h28.058a22.329 22.329 0 0 0 20.656 30.74h131.868a22.329 22.329 0 0 0 20.656-30.74h30.055a46.959 46.959 0 0 1 46.951 46.942Z" fill="#fff"/><path d="M373.765 572.21H160.153a29.01 29.01 0 0 1-28.978-28.977V242.729c0-72.962 59.359-132.321 132.32-132.321h110.27a29.01 29.01 0 0 1 28.977 28.977v403.848a29.01 29.01 0 0 1-28.977 28.978Z" fill="#e6e6e6"/><circle data-name="Ellipse 7" cx="147.357" cy="629.168" r="15.379" fill="#e6e6e6"/><circle data-name="Ellipse 7" cx="386.863" cy="629.168" r="15.379" fill="#e6e6e6"/><path fill="#ffb6b6" d="m388.948 571.619-9.534 10.39-44.609-31.828 14.071-15.334 40.072 36.772z"/><path d="m401.45 578.21-30.74 33.5-.423-.389a17.697 17.697 0 0 1-1.075-25.003v-.001l.973-10.38 15.119-7.156 2.683-2.924Z" fill="#2f2e41"/><path fill="#ffb6b6" d="m395.181 687.559-14.1-.001-6.708-54.387 20.811.001-.003 54.387z"/><path d="m398.777 701.227-45.465-.002v-.575a17.697 17.697 0 0 1 17.696-17.696h.001l8.305-6.3 15.495 6.301h3.97Z" fill="#2f2e41"/><path data-name="Path 17" d="M327.09 413.002s-86.139 83.167-31.684 108.91h16.831s5.058-17.97 16.637-33.123c1.59-2.08 7.548-1.658 9.202-3.686 10.102-12.383 21.053-23.018 28.616-22.596l4.95 57.425-2.442 16.83a88.193 88.193 0 0 0 1.194 31.835l-1.722 67.175 30.202.017s1.22-15.743 2.24-35.434c.274-5.275 2.543-8.95 2.76-14.566.522-13.46-1.206-29.13-1.539-40.115l22.772-120.791Z" fill="#2f2e41"/><path data-name="Path 22" d="m366.874 236.79-14.045 18.788-33.663 19.8 19.8 51.484.751 38.306-1.843 4.621 2.082 7.568s-.96 8.857-6.082 15.432c-8.953 11.497-22.625 23.992-8.769 27.142 21.782 4.951 99.01 15.841 102.97 6.931 1.369-3.082 1.199-16.116.39-31.848-.151-2.941-3.4-6.142-3.59-9.225-.143-2.313 2.781-4.489 2.622-6.835-1.766-26.145-4.373-53.081-4.373-53.081l7.75-72.084-31-8-3.48-8.872Z" fill="#ff7bc2"/><path data-name="Path 18" d="m291.27 516.972 4.604 5.817s42.345 29.625 43.799 32.394l6.692 6.332 16.192-17.309-8.42-10.554a66.102 66.102 0 0 0-25.357-19.413l-12.906-11.45Z" fill="#2f2e41"/><path d="m318.176 433.824 7.712-74.639 2.035-30.719-21.583-3.903s-3.232 21.118-6.06 33.511c-2.79 12.23 3.717 74.111 3.89 75.743a10.5 10.5 0 1 0 14.006.007Z" fill="#ffb9b9"/><path d="m290.29 371.724 37.26 9.458-.26-10.458 2.828-3 5.65-29.597 8.106-17.338-2.107-59.289-20.588 10.92-.025.019a55.663 55.663 0 0 0-8.928 13.22c-7.762 15.778-15.218 50.533-19.12 70.719a2.203 2.203 0 0 1-.743 1.07 11.415 11.415 0 0 0-2.073 14.276Z" fill="#ff7bc2"/><path d="M511.551 390.78s-45.359-47.82-45.782-48.722c-3.168-24.06-12.281-34.674-13.647-33.522l-23.521 8.148s6.996 22.155 11.733 35.315c4.526 12.574 56.693 43.288 57.563 44.804a11.188 11.188 0 1 0 13.654-6.023Z" fill="#ffb9b9"/><path d="M409.608 255.435s23.089-11.316 32.044 10.909c4.91 12.547 17.466 42.998 23.723 61.743a1.4 1.4 0 0 0 .17.336 15.241 15.241 0 0 1 2.597 8.41 2.862 2.862 0 0 0 .068.648s-25.373 4.943-32.92 18.243l-2.993-3.248-.532-2.276-21.89-58.41Z" fill="#ff7bc2"/><path d="M786.671 346.143H516.35a9.095 9.095 0 0 1-9.085-9.085v-39.591a9.095 9.095 0 0 1 9.085-9.085h270.322a9.095 9.095 0 0 1 9.085 9.085v39.59a9.095 9.095 0 0 1-9.085 9.086Z" fill="#e6e6e6"/><path d="M760.406 340.015H522.478a9.095 9.095 0 0 1-9.085-9.085V303.6a9.095 9.095 0 0 1 9.085-9.085h258.065a9.095 9.095 0 0 1 9.085 9.085v7.193a29.255 29.255 0 0 1-29.222 29.222Z" fill="#fff"/><path d="M678.335 314.446h-108.65a2.343 2.343 0 1 1 0-4.686h108.65a2.343 2.343 0 0 1 0 4.686Z" fill="#ff7bc2"/><path d="M733.335 324.029h-163.65a2.343 2.343 0 1 1 0-4.686h163.65a2.343 2.343 0 0 1 0 4.686ZM786.671 430.143H516.35a9.095 9.095 0 0 1-9.085-9.085v-39.591a9.095 9.095 0 0 1 9.085-9.085h270.322a9.095 9.095 0 0 1 9.085 9.085v39.59a9.095 9.095 0 0 1-9.085 9.086Z" fill="#e6e6e6"/><path d="M760.406 424.015H522.478a9.095 9.095 0 0 1-9.085-9.085V387.6a9.095 9.095 0 0 1 9.085-9.085h258.065a9.095 9.095 0 0 1 9.085 9.085v7.193a29.255 29.255 0 0 1-29.222 29.222Z" fill="#fff"/><path d="M678.335 398.446h-108.65a2.343 2.343 0 1 1 0-4.686h108.65a2.343 2.343 0 0 1 0 4.686Z" fill="#ff7bc2"/><path d="M733.335 408.029h-163.65a2.343 2.343 0 1 1 0-4.686h163.65a2.343 2.343 0 0 1 0 4.686ZM786.671 514.143H516.35a9.095 9.095 0 0 1-9.085-9.085v-39.591a9.095 9.095 0 0 1 9.085-9.085h270.322a9.095 9.095 0 0 1 9.085 9.085v39.59a9.095 9.095 0 0 1-9.085 9.086Z" fill="#e6e6e6"/><path d="M760.406 508.015H522.478a9.095 9.095 0 0 1-9.085-9.085V471.6a9.095 9.095 0 0 1 9.085-9.085h258.065a9.095 9.095 0 0 1 9.085 9.085v7.193a29.255 29.255 0 0 1-29.222 29.222Z" fill="#fff"/><path d="M678.335 482.446h-108.65a2.343 2.343 0 1 1 0-4.686h108.65a2.343 2.343 0 0 1 0 4.686Z" fill="#ff7bc2"/><path d="M733.335 492.029h-163.65a2.343 2.343 0 1 1 0-4.686h163.65a2.343 2.343 0 0 1 0 4.686Z" fill="#e6e6e6"/><circle data-name="Ellipse 5" cx="381.674" cy="202.486" r="28.272" fill="#ffb9b9"/><path d="M360.886 220.669a3.092 3.092 0 0 1-.997-.161 6.537 6.537 0 0 1-3.014-2.68c-4.868-7-7.218-16.334-6.985-27.742.099-4.827.645-10.998 4.025-15.916 2.842-4.136 8.592-7.419 13.95-5.771a5.792 5.792 0 0 1 2.89-5.347c2.03-1.243 4.473-1.472 6.628-1.675 5.442-.51 11.068-1.037 16.579.007 6.179 1.172 11.23 4.357 13.86 8.738l.055.137.534 2.596a2.465 2.465 0 0 0 3.282 1.81 2.237 2.237 0 0 1 3.002 2.415l-.15 1.033 1.555-.29a2.238 2.238 0 0 1 2.51 2.974l-.44 1.188a2.354 2.354 0 0 1 1.712.753 2.164 2.164 0 0 1 .293 2.55 20.27 20.27 0 0 1-7.16 7.203 16.923 16.923 0 0 1-5.233 2.058 100.501 100.501 0 0 1-36.46 1.097 20.555 20.555 0 0 1 .815 7.38c-.388 3.112-2.215 5.68-4.656 6.543a11.243 11.243 0 0 1-1.701.41 9.976 9.976 0 0 0-1.625.395 4.754 4.754 0 0 0-1.391 8.125l1.203-1.254-.391 1.594a2.288 2.288 0 0 1-1.167 1.452 3.205 3.205 0 0 1-1.523.378Z" fill="#2f2e41"/><path d="m754.18 647.556 1.144-25.72a83.066 83.066 0 0 1 38.745-9.807c-18.609 15.214-16.283 44.54-28.9 65a49.964 49.964 0 0 1-36.639 23.089l-15.572 9.534a83.724 83.724 0 0 1 17.647-67.845 80.873 80.873 0 0 1 14.863-13.81c3.73 9.834 8.712 19.56 8.712 19.56Z" fill="#f2f2f2"/><path d="M865.67 710.282a1.186 1.186 0 0 1-1.19 1.19H1.19a1.19 1.19 0 0 1 0-2.38h863.29a1.187 1.187 0 0 1 1.19 1.19Z" fill="#ccc"/></svg>