<svg width="24" height="24" xmlns="http://www.w3.org/2000/svg">
  <path fill="currentColor" d="M10.762 2.447a8.323 8.323 0 0 0-1.973.237 8.393 8.393 0 0 0-.766.226A8.32 8.32 0 0 0 4.94 4.822a8.36 8.36 0 0 0-.568.621 8.48 8.48 0 0 0-.947 1.407 8.294 8.294 0 0 0-.5 1.13 8.3 8.3 0 0 0-.016 5.504 8.318 8.318 0 0 0 1.115 2.139 8.297 8.297 0 0 0 .516.64 8.297 8.297 0 0 0 .586.596 8.352 8.352 0 0 0 .654.543 8.383 8.383 0 0 0 1.762 1.01 8.261 8.261 0 0 0 2.559.621 8.285 8.285 0 0 0 1.962-.078 8.306 8.306 0 0 0 1.907-.543 8.286 8.286 0 0 0 1.761-1.01l.313-.234 4.148 4.148a.82.82 0 0 0 .264.178.795.795 0 0 0 .45.043.792.792 0 0 0 .286-.117.82.82 0 0 0 .229-.229.8.8 0 0 0 .133-.437c0-.05-.006-.1-.016-.15a.792.792 0 0 0-.117-.288.82.82 0 0 0-.104-.125v-.002l-.136-.134v-.002l-4.01-4.012.234-.313a8.496 8.496 0 0 0 .87-1.441 8.23 8.23 0 0 0 .546-1.539 8.288 8.288 0 0 0 .243-1.986 8.317 8.317 0 0 0-.084-1.192 8.332 8.332 0 0 0-1.743-4.011 8.224 8.224 0 0 0-1.506-1.454 8.486 8.486 0 0 0-1.44-.869 8.298 8.298 0 0 0-1.15-.44 8.236 8.236 0 0 0-2.378-.349zm.025 1.66a6.663 6.663 0 0 1 .682.035 6.624 6.624 0 0 1 .662.102 6.672 6.672 0 0 1 .951.27 6.607 6.607 0 0 1 2.426 1.552 6.79 6.79 0 0 1 .63.727 6.684 6.684 0 0 1 .669 1.102 6.627 6.627 0 0 1 .359.908 6.588 6.588 0 0 1 .266 1.302 6.667 6.667 0 0 1 .035.682 6.781 6.781 0 0 1-.528 2.596 6.694 6.694 0 0 1-.281.584 6.702 6.702 0 0 1-.336.55 6.702 6.702 0 0 1-.385.514 6.757 6.757 0 0 1-.906.905 6.749 6.749 0 0 1-.513.384 6.727 6.727 0 0 1-2.715 1.067 6.689 6.689 0 0 1-3.614-.448 6.63 6.63 0 0 1-.294-.134 6.686 6.686 0 0 1-.29-.147 6.69 6.69 0 0 1-.55-.336 6.687 6.687 0 0 1-2.871-4.52 6.662 6.662 0 0 1-.041-.333 6.666 6.666 0 0 1-.036-.682 6.664 6.664 0 0 1 .035-.682 6.626 6.626 0 0 1 .102-.662 6.673 6.673 0 0 1 .27-.95 6.607 6.607 0 0 1 1.552-2.427 6.788 6.788 0 0 1 .727-.63 6.686 6.686 0 0 1 1.102-.668 6.628 6.628 0 0 1 .908-.36 6.603 6.603 0 0 1 1.302-.265 6.665 6.665 0 0 1 .682-.036z"/>
</svg>