<svg width="24px" height="24px" viewBox="0 0 24 24" fill="currentColor" xmlns="http://www.w3.org/2000/svg"
  version="1.1">
  <path
    d="M12 2C6.483 2 2 6.483 2 12s4.483 10 10 10 10-4.483 10-10S17.517 2 12 2Zm0 .952A9.04 9.04 0 0 1 21.048 12 9.04 9.04 0 0 1 12 21.048 9.04 9.04 0 0 1 2.952 12 9.04 9.04 0 0 1 12 2.952Zm.007 3.68-.04.013-.062.002c-.379.01-.75.091-1.06.227l-.006.001-.003.002c-.565.233-1.077.631-1.397 1.144l-.004.008-.006.007A2.98 2.98 0 0 0 8.91 9.77a.47.47 0 0 0 .477.476.47.47 0 0 0 .476-.476c0-.41.124-.817.359-1.163a2.101 2.101 0 0 1 2.141-.884h.002c.41.081.776.285 1.065.562l.004.004.004.004c.293.293.494.668.57 1.077a2.1 2.1 0 0 1-.12 1.203l-.002.002a2.066 2.066 0 0 1-1.925 1.283.47.47 0 0 0-.476.477v1.713a.47.47 0 0 0 .476.476.47.47 0 0 0 .476-.476v-1.399l.337-.104c.426-.13.717-.135.934-.257.496-.337.9-.82 1.147-1.397.233-.566.298-1.14.171-1.819a3.048 3.048 0 0 0-.82-1.562 2.965 2.965 0 0 0-1.55-.819l-.003-.002-.015-.001a3.083 3.083 0 0 0-.63-.056zm-.026 9.538a.612.612 0 0 0-.426.175.608.608 0 0 0 0 .85c.11.11.268.175.426.175a.612.612 0 0 0 .426-.175.608.608 0 0 0 0-.85.612.612 0 0 0-.426-.175z" />
</svg>