<svg width="24px" height="24px" viewBox="0 0 24 24" fill="currentColor" xmlns="http://www.w3.org/2000/svg"
  version="1.1">
  <path
    d="M 12 1.5 C 6.206938 1.5 1.5 6.2069373 1.5 12 C 1.5 17.793061 6.206938 22.5 12 22.5 C 17.793062 22.5 22.5 17.793061 22.5 12 C 22.5 6.2069373 17.793062 1.5 12 1.5 z M 12 2.5 C 17.252622 2.5 21.5 6.7473769 21.5 12 C 21.5 17.252622 17.252622 21.5 12 21.5 C 6.747378 21.5 2.5 17.252622 2.5 12 C 2.5 6.7473769 6.747378 2.5 12 2.5 z M 12.007812 6.3632812 L 11.964844 6.3769531 L 11.900391 6.3789062 C 11.502836 6.3892773 11.11245 6.4753512 10.787109 6.6171875 L 10.78125 6.6191406 L 10.777344 6.6210938 C 10.184464 6.8652432 9.6470217 7.2838939 9.3105469 7.8222656 L 9.3066406 7.8300781 L 9.3007812 7.8378906 C 8.9419709 8.371742 8.7558594 8.9498705 8.7558594 9.6582031 C 8.7558594 9.9402675 8.9737948 10.158203 9.2558594 10.158203 C 9.5379237 10.158203 9.7558594 9.9402675 9.7558594 9.6582031 C 9.7558594 9.2271935 9.8860907 8.8010903 10.132812 8.4375 C 10.376592 8.0782458 10.718134 7.8024252 11.113281 7.6367188 C 11.51822 7.4669054 11.96005 7.4294205 12.380859 7.5097656 L 12.382812 7.5097656 C 12.813854 7.5946676 13.197864 7.8083068 13.501953 8.0996094 L 13.505859 8.1035156 L 13.509766 8.1074219 C 13.817462 8.4151177 14.028342 8.8085567 14.107422 9.2382812 C 14.190362 9.6633968 14.147212 10.102841 13.982422 10.501953 L 13.980469 10.503906 C 13.814763 10.899052 13.538941 11.240596 13.179688 11.484375 C 12.809351 11.735674 12.379892 11.851563 11.958984 11.851562 C 11.676919 11.851562 11.458984 12.069497 11.458984 12.351562 L 11.458984 14.150391 C 11.458984 14.432455 11.676919 14.650391 11.958984 14.650391 C 12.241048 14.650391 12.458984 14.432455 12.458984 14.150391 L 12.458984 12.681641 L 12.8125 12.572266 C 13.260278 12.435445 13.566072 12.430236 13.792969 12.302734 C 14.313959 11.948359 14.737996 11.44135 14.998047 10.835938 C 15.242045 10.241599 15.310969 9.638336 15.177734 8.9257812 C 15.05695 8.2958643 14.743337 7.7120881 14.316406 7.2851562 C 13.869989 6.8387398 13.277092 6.527513 12.689453 6.4257812 L 12.685547 6.4238281 L 12.669922 6.421875 C 12.452552 6.378395 12.225506 6.3609912 12.007812 6.3632812 z M 11.980469 16.378906 C 11.813803 16.378906 11.647799 16.447906 11.533203 16.5625 C 11.418609 16.677097 11.349609 16.841147 11.349609 17.007812 C 11.349609 17.17448 11.418609 17.340482 11.533203 17.455078 C 11.647798 17.569672 11.813803 17.638672 11.980469 17.638672 C 12.147136 17.638672 12.313137 17.569672 12.427734 17.455078 C 12.542328 17.340482 12.611328 17.17448 12.611328 17.007812 C 12.611329 16.841145 12.542327 16.677097 12.427734 16.5625 C 12.313137 16.447906 12.147136 16.378906 11.980469 16.378906 z " />
</svg>