<?xml version="1.0" encoding="UTF-8"?>
<svg class="ionicon" version="1.1" viewBox="0 0 512 512" xmlns="http://www.w3.org/2000/svg">
 <title>Qr Code</title>
 <path d="m344 336h64c4.432 0 8 3.568 8 8v64c0 4.432-3.568 8-8 8h-64c-4.432 0-8-3.568-8-8v-64c0-4.432 3.568-8 8-8z" style=""/>
 <path d="m280 272h48c4.432 0 8 3.568 8 8v48c0 4.432-3.568 8-8 8h-48c-4.432 0-8-3.568-8-8v-48c0-4.432 3.568-8 8-8z" style=""/>
 <path d="m424 416h48c4.432 0 8 3.568 8 8v48c0 4.432-3.568 8-8 8h-48c-4.432 0-8-3.568-8-8v-48c0-4.432 3.568-8 8-8z" style=""/>
 <path d="m440 272h32c4.432 0 8 3.568 8 8v32c0 4.432-3.568 8-8 8h-32c-4.432 0-8-3.568-8-8v-32c0-4.432 3.568-8 8-8z" style=""/>
 <path d="m280 432h32c4.432 0 8 3.568 8 8v32c0 4.432-3.568 8-8 8h-32c-4.432 0-8-3.568-8-8v-32c0-4.432 3.568-8 8-8z" style=""/>
 <path d="m344 96h64c4.432 0 8 3.568 8 8v64c0 4.432-3.568 8-8 8h-64c-4.432 0-8-3.568-8-8v-64c0-4.432 3.568-8 8-8z" style=""/>
 <path d="m304 32c-17.451 0-32 14.549-32 32v144c0 17.451 14.549 32 32 32h144c17.451 0 32-14.549 32-32v-144c0-17.451-14.549-32-32-32zm0 32h144v144h-144z" style=""/>
 <path d="m104 96h64c4.432 0 8 3.568 8 8v64c0 4.432-3.568 8-8 8h-64c-4.432 0-8-3.568-8-8v-64c0-4.432 3.568-8 8-8z" style=""/>
 <path d="m64 32c-17.451 0-32 14.549-32 32v144c0 17.451 14.549 32 32 32h144c17.451 0 32-14.549 32-32v-144c0-17.451-14.549-32-32-32zm0 32h144v144h-144z" style=""/>
 <path d="m104 336h64c4.432 0 8 3.568 8 8v64c0 4.432-3.568 8-8 8h-64c-4.432 0-8-3.568-8-8v-64c0-4.432 3.568-8 8-8z" style=""/>
 <path d="m64 272c-17.451 0-32 14.549-32 32v144c0 17.451 14.549 32 32 32h144c17.451 0 32-14.549 32-32v-144c0-17.451-14.549-32-32-32zm0 32h144v144h-144z" style=""/>
</svg>
