<svg class="svg-icon" viewBox="0 0 24 24" xmlns="http://www.w3.org/2000/svg">
  <path fill="currentColor" d="M17.313 22H6.688A4.693 4.693 0 0 1 2 17.312v-4.684c0-.608.24-1.17.676-1.583a2.213 2.213 0 0 1 1.63-.605c.427.023.838.172 1.188.433l4.606 3.451.005.004a3.133 3.133 0 0 0 3.79 0c.002 0 .004-.002.005-.004l4.604-3.45a2.178 2.178 0 0 1 2.82.17c.436.414.676.976.676 1.584v4.684A4.693 4.693 0 0 1 17.312 22zM4.193 12a.655.655 0 0 0-.442.178.602.602 0 0 0-.188.45v4.684a3.129 3.129 0 0 0 3.124 3.125h10.625a3.129 3.129 0 0 0 3.125-3.125v-4.684a.602.602 0 0 0-.188-.45.651.651 0 0 0-.474-.177.61.61 0 0 0-.336.125l-4.599 3.447a4.699 4.699 0 0 1-5.68 0l-4.601-3.448A.606.606 0 0 0 4.194 12zm9.76-1.563a.781.781 0 0 0-.781-.78H8.953a.781.781 0 1 0 0 1.562h4.219c.431 0 .781-.35.781-.781zm1.953-3.007a.781.781 0 0 0-.781-.782H8.953a.781.781 0 1 0 0 1.563h6.172c.431 0 .781-.35.781-.781zm4.219.703V6.688A4.693 4.693 0 0 0 15.437 2H8.642a4.693 4.693 0 0 0-4.688 4.688v1.445a.781.781 0 1 0 1.563 0V6.688A3.129 3.129 0 0 1 8.64 3.563h6.796a3.129 3.129 0 0 1 3.126 3.124v1.446a.781.781 0 1 0 1.562 0z"/>
</svg>