<svg width="24px" height="24px" viewBox="0 0 24 24" fill="currentColor" xmlns="http://www.w3.org/2000/svg"
  version="1.1">
  <path style="stroke-width:.995771"
    d="M11.945 2c-.085.003-.17.01-.26.021-1.098.16-1.996 1.092-1.996 2.284v.617l-.17.058c-.858.298-1.697.756-2.296 1.391l-.141.12-.539-.31c-.68-.396-1.298-.426-1.797-.247-.54.178-1 .585-1.299 1.091a2.412 2.412 0 0 0-.289 1.688c.12.556.459 1.093 1.098 1.49l.53.307-.032.18a7.56 7.56 0 0 0 0 2.681l.031.178-.539.308-.002.002c-.699.388-1.1.913-1.2 1.489-.119.566.004 1.19.302 1.687.29.507.76.915 1.299 1.094.549.179 1.197.137 1.896-.27l.002-.002.539-.306.14.119c.69.586 1.499 1.09 2.298 1.389l.17.062v.615c0 .785.289 1.39.708 1.688.43.377.999.576 1.598.576.58 0 1.198-.199 1.598-.576.43-.377.709-.933.709-1.688v-.615l.17-.06c.859-.298 1.597-.764 2.297-1.39l.14-.118.54.306c.678.388 1.297.417 1.796.239.54-.18.99-.586 1.299-1.092a2.46 2.46 0 0 0 .299-1.688c-.11-.556-.449-1.093-1.098-1.49l-.002-.002-.53-.306.032-.18a7.55 7.55 0 0 0 0-2.68l-.031-.18.539-.306.002-.002c.699-.387 1.1-.915 1.2-1.49a2.393 2.393 0 0 0-.302-1.688c-.29-.506-.76-.913-1.299-1.092-.539-.178-1.197-.14-1.896.278h-.002l-.539.308-.14-.119c-.69-.586-1.499-1.093-2.298-1.39l-.17-.061v-.615c0-1.291-1.098-2.283-2.396-2.283l.031-.02zm.08 1.168-.002.023c.59.006 1.1.487 1.1 1.092v1.092c0 .268.18.507.45.576a6.132 6.132 0 0 1 2.896 1.688c.19.198.479.228.718.097l.918-.535c.3-.169.62-.199.89-.11.269.09.478.278.618.516.13.229.2.517.14.795-.056.278-.239.546-.538.715l-.92.526a.608.608 0 0 0-.28.675 6.08 6.08 0 0 1 0 3.276.597.597 0 0 0 .28.676l.92.525c.3.169.489.437.539.715.057.278-.004.556-.14.795-.13.228-.35.426-.62.515-.27.09-.599.067-.898-.107l-.918-.537a.583.583 0 0 0-.719.097 6.424 6.424 0 0 1-2.896 1.688.604.604 0 0 0-.45.576v1.092c0 .347-.14.635-.35.824a1.14 1.14 0 0 1-.76.277c-.269 0-.537-.087-.747-.277a1.092 1.092 0 0 1-.35-.824v-1.092a.596.596 0 0 0-.45-.576 6.209 6.209 0 0 1-2.895-1.688.578.578 0 0 0-.721-.097l-.918.537c-.3.169-.62.197-.889.107-.27-.089-.48-.277-.619-.515-.13-.229-.2-.517-.14-.795.056-.278.239-.546.538-.715l.92-.525a.594.594 0 0 0 .28-.676 6.08 6.08 0 0 1 0-3.276.6.6 0 0 0-.28-.675l-.93-.536-.001-.002c-.29-.178-.47-.436-.52-.714a1.108 1.108 0 0 1 .14-.776c.13-.228.34-.416.61-.506.26-.09.58-.07.88.092l.003.002.928.535v.002c.24.14.53.096.72-.097a6.424 6.424 0 0 1 2.897-1.688.605.605 0 0 0 .45-.576V4.287c0-.516.357-.963.857-1.092.086-.02.17-.028.26-.027zM12 8.951c-1.656 0-3 1.376-3 3.049s1.344 3.05 3 3.05 3-1.377 3-3.05c0-1.673-1.344-3.049-3-3.049zm0 1c1.105 0 2 .906 2 2.049 0 1.143-.895 2.05-2 2.05s-2-.907-2-2.05c0-1.143.895-2.049 2-2.049z" />
</svg>