<svg width="24" height="24" viewBox="0 0 24 24" xmlns="http://www.w3.org/2000/svg">
  <path fill="currentColor" d="M6.055 2A4.057 4.057 0 0 0 2 6.052v11.896A4.057 4.057 0 0 0 6.055 22h1.697a.64.64 0 0 0 .493-.2.683.683 0 0 0 .163-.456.68.68 0 0 0-.163-.454.64.64 0 0 0-.493-.202H6.055a2.745 2.745 0 0 1-2.745-2.74V6.052a2.745 2.745 0 0 1 2.745-2.74h1.697a.64.64 0 0 0 .493-.202.68.68 0 0 0 .163-.454.683.683 0 0 0-.163-.456.64.64 0 0 0-.493-.2Zm11.228 4.243a.681.681 0 0 0-.43.208.68.68 0 0 0-.207.43.64.64 0 0 0 .198.487l3.295 3.297.002.002c.108.11.202.232.28.365l.174.293h-.339l-.036-.002v-.006l-13.326.027a.641.641 0 0 0-.493.202.679.679 0 0 0-.162.454c0 .17.053.334.162.456.1.113.267.2.495.2l13.262-.029h.056v-.007l.052-.004.348-.027-.163.31a1.9 1.9 0 0 1-.312.434l-.002.002-.002.002-3.298 3.298v.002c-.168.162-.226.34-.218.49a.69.69 0 0 0 .21.445.679.679 0 0 0 .44.206.643.643 0 0 0 .49-.211l.001-.002.002-.002 3.299-3.298a3.2 3.2 0 0 0 0-4.53l-.339-.338h.004L17.77 6.443a.643.643 0 0 0-.487-.2Zm2.937 5.097.03.025.027.037.008.02.006.024.002.027h-.037c-.022 0-.02-.002-.036-.002v-.006zm-.006 1.233.02.03-.02.009z"/>
</svg>