<?xml version="1.0" encoding="UTF-8" standalone="no"?>
<svg
   version="1.1"
   viewBox="0 0 3000 3000"
   id="svg16"
   sodipodi:docname="splash.svg"
   inkscape:export-filename="/home/leanwell09/Downloads/splash.png"
   inkscape:export-xdpi="95.968391"
   inkscape:export-ydpi="95.968391"
   inkscape:version="1.1 (ce6663b3b7, 2021-05-25)"
   width="3000"
   height="3000"
   xmlns:inkscape="http://www.inkscape.org/namespaces/inkscape"
   xmlns:sodipodi="http://sodipodi.sourceforge.net/DTD/sodipodi-0.dtd"
   xmlns="http://www.w3.org/2000/svg"
   xmlns:svg="http://www.w3.org/2000/svg">
  <defs
     id="defs20" />
  <sodipodi:namedview
     id="namedview18"
     pagecolor="#505050"
     bordercolor="#ffffff"
     borderopacity="1"
     inkscape:pageshadow="0"
     inkscape:pageopacity="0"
     inkscape:pagecheckerboard="1"
     showgrid="false"
     inkscape:zoom="0.13781113"
     inkscape:cx="2289.3652"
     inkscape:cy="1128.3559"
     inkscape:window-width="1920"
     inkscape:window-height="1055"
     inkscape:window-x="1920"
     inkscape:window-y="0"
     inkscape:window-maximized="1"
     inkscape:current-layer="svg16" />
  <path
     style="color:#000000;fill:#ffffff;stroke-width:0.859375;-inkscape-stroke:none"
     d="m 1680.7525,1327.2075 c -22.2432,-27.1161 -52.7638,-42.0513 -85.9459,-42.0513 -24.8034,0 -47.5183,8.8139 -67.5159,26.1949 -10.0906,8.7733 -19.2336,19.507 -27.2945,32.0352 -8.0579,-12.5247 -17.2046,-23.2619 -27.2979,-32.0352 -19.9942,-17.381 -42.7092,-26.1949 -67.5125,-26.1949 -33.1821,0 -63.7062,14.9344 -85.946,42.0513 -21.9776,26.7999 -34.0836,63.4113 -34.0836,103.1001 0,40.8456 13.543,78.2357 42.6172,117.6667 26.0098,35.2742 63.3917,71.0829 106.6828,112.5448 14.7811,14.1608 31.5364,30.2115 48.9343,47.3089 4.5961,4.525 10.4938,7.0158 16.6109,7.0158 6.1139,0 12.0148,-2.4908 16.6039,-7.0084 17.3979,-17.1008 34.1626,-33.1593 48.9507,-47.3279 43.2823,-41.4574 80.6643,-77.2627 106.674,-112.5447 29.0752,-39.4311 42.6138,-76.8203 42.6138,-117.6667 0,-39.6811 -12.1068,-76.2934 -34.087,-103.0915 z"
     id="path1065" />
  <path
     style="color:#000000;fill:#ffffff;fill-rule:evenodd;-inkscape-stroke:none"
     d="m 1500,1062.5 c -241.0691,0 -437.5,196.4309 -437.5,437.5 0,116.0141 46.1063,227.325 128.1406,309.3594 82.0344,82.0343 193.3453,128.1406 309.3594,128.1406 116.0141,0 227.325,-46.1063 309.3594,-128.1406 C 1891.3937,1727.325 1937.5,1616.0141 1937.5,1500 c 0,-116.0141 -46.1063,-227.325 -128.1406,-309.3594 C 1727.325,1108.6063 1616.0141,1062.5 1500,1062.5 Z m 0,93.75 c 91.1862,0 178.59,36.2033 243.0684,100.6816 64.4783,64.4784 100.6816,151.8822 100.6816,243.0684 0,91.1862 -36.2033,178.59 -100.6816,243.0684 C 1678.59,1807.5467 1591.1862,1843.75 1500,1843.75 c -91.1862,0 -178.59,-36.2033 -243.0684,-100.6816 C 1192.4533,1678.59 1156.25,1591.1862 1156.25,1500 c 0,-190.4031 153.3469,-343.75 343.75,-343.75 z"
     id="path1194" />
  <path
     style="color:#000000;fill:#ffffff;fill-rule:evenodd;-inkscape-stroke:none"
     d="m 1500,906.25 c -157.4541,0 -308.5069,62.56939 -419.8437,173.9063 C 968.81939,1191.4931 906.25,1342.5459 906.25,1500 c 0,157.4541 62.56939,308.5069 173.9063,419.8438 111.3368,111.3368 262.3896,173.9062 419.8437,173.9062 157.4541,0 308.5069,-62.5694 419.8438,-173.9062 C 2031.1806,1808.5069 2093.75,1657.4541 2093.75,1500 c 0,-157.4541 -62.5694,-308.5069 -173.9062,-419.8437 C 1808.5069,968.81939 1657.4541,906.25 1500,906.25 Z m 0,93.75 c 132.6262,0 259.7718,52.6664 353.5527,146.4473 C 1947.3336,1240.2282 2000,1367.3738 2000,1500 c 0,132.6262 -52.6664,259.7718 -146.4473,353.5527 C 1759.7718,1947.3336 1632.6262,2000 1500,2000 1367.3738,2000 1240.2282,1947.3336 1146.4473,1853.5527 1052.6664,1759.7718 1000,1632.6262 1000,1500 c 0,-132.6262 52.6664,-259.7718 146.4473,-353.5527 C 1240.2282,1052.6664 1367.3738,1000 1500,1000 Z"
     id="path1194-3" />
  <path
     style="color:#000000;fill:#ffffff;fill-rule:evenodd;-inkscape-stroke:none"
     d="M 1500,750 C 1301.1058,750 1110.3093,829.03052 969.66992,969.66992 829.03052,1110.3093 750,1301.1058 750,1500 c 0,198.8942 79.03052,389.6907 219.66992,530.3301 C 1110.3093,2170.9695 1301.1058,2250 1500,2250 c 198.8942,0 389.6907,-79.0305 530.3301,-219.6699 C 2170.9695,1889.6907 2250,1698.8942 2250,1500 2250,1301.1058 2170.9695,1110.3093 2030.3301,969.66992 1889.6907,829.03052 1698.8942,750 1500,750 Z m 0,93.75 c 174.0663,0 340.9556,69.12751 464.0391,192.2109 123.0834,123.0835 192.2109,289.9728 192.2109,464.0391 0,174.0663 -69.1275,340.9556 -192.2109,464.0391 C 1840.9556,2087.1225 1674.0663,2156.25 1500,2156.25 c -174.0663,0 -340.9556,-69.1275 -464.0391,-192.2109 C 912.87751,1840.9556 843.75,1674.0663 843.75,1500 c 0,-174.0663 69.12751,-340.9556 192.2109,-464.0391 C 1159.0444,912.87751 1325.9337,843.75 1500,843.75 Z"
     id="path1194-3-6" />
</svg>
