<svg width="24px" height="24px" viewBox="0 0 24 24" fill="currentColor" xmlns="http://www.w3.org/2000/svg"
  version="1.1">
  <path
    d="m14 2.3c-.097.0022-.18.026-.27.074-.27.15-.42.56-.42 1.1s.15 1.2.4 1.7c.21.43.48.68.76.78.21.08.44.081.68-.0078-.025.048-.046.1-.061.15-.024.092-.031.19-.02.29.011.096.04.19.084.27l4.5 8.3c.043.075.1.12.17.14.066.019.13.011.2-.025.063-.036.12-.1.15-.19.027-.085.021-.18-.012-.26l-3.9-8.6c-.038-.085-.092-.16-.16-.22-.064-.06-.14-.1-.21-.13-.058-.02-.12-.03-.18-.031-.0019-2.8e-5-.0039 1.6e-5-.0059 0 .15-.15.24-.33.29-.53.079-.32.036-.71-.18-1.1-.25-.5-.65-.99-1-1.3-.2-.15-.4-.25-.58-.29-.066-.014-.13-.021-.19-.02zm-.11.43.3.16c.044.023.22.11.42.29.31.27.61.64.78.99.12.24.18.45.14.66-.038.21-.19.36-.37.46-.17.1-.39.15-.59.064-.19-.088-.32-.27-.44-.51l-.002-.0059-.021-.041v-.041c-.16-.37-.27-.76-.3-1.2-.016-.19-.0085-.38.02-.56zm-4.2 4.2c-1.9.027-3.8.74-5.1 1.8-1.3 1.1-2 2.5-1.5 4.1.2.63.46.93.84 1.1.38.2.94.29 1.7.31h.002l.1.002h.002c.44.0058.74.022.96.064.23.043.46.14.59.35v.002h.002c.21.38.18.81.039 1.8v.002c-.064.44-.086.58-.11.81-.14 1.4.056 2.4.87 3.3.62.73 1.3 1 2.1 1.1.8.04 1.7-.22 2.5-.72 1.7-1 3.3-3 3.8-5.1.93-3.8-1.3-7.7-4.9-8.7-.63-.18-1.3-.27-2-.26zm.096 1.2c.56-.0039 1.1.064 1.7.22 3.1.89 4.9 4.1 4.2 7.2-.43 1.7-1.6 3.2-2.9 4.1-.65.44-1.3.73-2 .78-.67.055-1.3-.16-1.8-.69-.53-.62-.67-1.4-.57-2.3.02-.2.04-.35.1-.76.1-.71.15-1.2.12-1.6-.027-.38-.11-.66-.31-1h-.002c-.25-.44-.46-.63-.8-.76-.34-.13-.85-.19-1.6-.2h-.002l-.1-.002c-.47-.0068-.77-.022-1-.11-.27-.085-.46-.33-.54-.55-.087-.38-.079-.58-.074-.62 3e-4-.38.057-.74.25-1.1.29-.51.75-.96 1.3-1.3 1.1-.77 2.7-1.3 4.2-1.3zm-2.4 1.7c-.19 0-.38.081-.52.24-.15.16-.23.38-.23.61 2e-7.23.089.46.23.61.15.16.33.24.52.24.19 0 .38-.082.52-.24.14-.16.23-.38.23-.61 0-.24-.087-.46-.23-.61-.14-.16-.33-.24-.52-.24zm3.6 0c-.19 0-.38.081-.52.24-.15.16-.23.38-.23.61 0 .23.089.46.23.61.15.16.33.24.52.24s.38-.081.52-.24c.15-.16.23-.38.23-.61 0-.23-.089-.46-.23-.61-.15-.16-.33-.24-.52-.24zm2.4 3.1c-.19 0-.38.082-.52.24-.14.16-.23.38-.23.61s.088.46.23.62c.14.16.33.24.52.24.19 0 .38-.08.52-.24.15-.16.23-.38.23-.62s-.089-.46-.23-.61c-.15-.16-.33-.24-.52-.24zm-1.5 3.6c-.18.0096-.35.09-.49.24-.14.16-.23.38-.23.62 0 .24.087.46.23.61.14.16.33.24.52.24.19 0 .38-.081.52-.24.15-.16.23-.38.23-.61 0-.23-.089-.46-.23-.62-.14-.16-.33-.24-.52-.24-.035 0-.046.00059-.035 0z" />
</svg>