<svg width="24px" height="24px" viewBox="0 0 24 24" fill="currentColor" xmlns="http://www.w3.org/2000/svg"
  version="1.1">
  <path
    d="M14.828 2a.731.731 0 0 0-.313.076c-.312.155-.486.578-.486 1.136 0 .557.174 1.239.463 1.755.244.444.556.702.88.805.244.083.51.084.789-.008a.85.85 0 0 0-.071.155.74.74 0 0 0 .074.578l5.214 8.568c.05.077.116.124.197.145.076.02.15.011.232-.026a.36.36 0 0 0 .173-.196.359.359 0 0 0-.014-.269l-4.518-8.878a.67.67 0 0 0-.186-.227.85.85 0 0 0-.243-.134.756.756 0 0 0-.208-.032h-.007c.174-.155.278-.34.336-.547.091-.33.041-.733-.209-1.136a4.89 4.89 0 0 0-1.158-1.342c-.232-.154-.436-.31-.645-.352 0 0-.133-.063-.202-.062zm-.127.444.347.165c.051.024.255.114.487.3.36.278.707.66.904 1.021.139.248.208.465.162.682-.044.216-.22.371-.429.475-.197.103-.452.154-.683.066-.22-.091-.371-.28-.51-.527l-.002-.006-.025-.042v-.043a3.383 3.383 0 0 1-.347-1.238 2.156 2.156 0 0 1 .023-.578zM9.835 6.78c-2.202.027-4.403.763-5.91 1.858-1.505 1.135-2.316 2.58-1.737 4.232.232.65.533.96.973 1.136.44.206 1.09.3 1.97.32h.002l.116.002h.002c.51.006.858.023 1.112.066.267.044.533.144.684.361v.002h.002c.244.393.209.836.046 1.858v.003c-.075.454-.1.598-.128.836-.162 1.445.065 2.477 1.008 3.406.718.754 1.506 1.033 2.433 1.136.927.041 1.97-.227 2.897-.743 1.97-1.033 3.823-3.097 4.402-5.265 1.078-3.923-1.506-7.949-5.677-8.981-.603-.238-2.1-.225-2.195-.227Zm.11 1.238a8.283 8.283 0 0 1 1.97.227c3.592.92 5.678 4.233 4.867 7.433-.499 1.755-1.854 3.303-3.36 4.233-.753.454-1.506.753-2.318.805-.776.057-1.506-.165-2.085-.713-.614-.64-.776-1.445-.66-2.374.023-.206.046-.361.115-.784.116-.733.174-1.24.14-1.652a2 2 0 0 0-.36-1.032h-.002c-.29-.455-.533-.65-.927-.785-.394-.134-.985-.196-1.854-.206H5.47l-.116-.003c-.544-.007-.892-.022-1.158-.113a.991.991 0 0 1-.626-.568c-.1-.392-.092-.599-.086-.64 0-.392.066-.764.29-1.135.336-.527.869-.991 1.506-1.342 1.274-.795 3.128-1.342 4.866-1.342Zm-2.78 1.755c-.22 0-.44.084-.602.248a.863.863 0 0 0-.267.63c0 .237.103.475.267.63a.862.862 0 0 0 .602.247.85.85 0 0 0 .603-.248.911.911 0 0 0 .266-.63.86.86 0 0 0-.266-.629.842.842 0 0 0-.603-.248Zm4.171 0c-.22 0-.44.084-.602.248a.863.863 0 0 0-.267.63c0 .237.103.475.267.63a.862.862 0 0 0 .602.247c.22 0 .44-.083.603-.248a.863.863 0 0 0 .266-.63.887.887 0 0 0-.266-.629.862.862 0 0 0-.603-.248zm2.78 3.2a.85.85 0 0 0-.602.248.911.911 0 0 0-.266.63c0 .237.102.475.266.64a.842.842 0 0 0 .603.248c.22 0 .44-.083.602-.248a.87.87 0 0 0 .267-.64.87.87 0 0 0-.267-.63.862.862 0 0 0-.602-.248zM12.38 16.69a.873.873 0 0 0-.568.247.917.917 0 0 0-.266.64c0 .248.1.475.266.63a.842.842 0 0 0 .603.248c.22 0 .44-.084.602-.248a.863.863 0 0 0 .267-.63.93.93 0 0 0-.267-.64.842.842 0 0 0-.602-.247h-.04z" />
</svg>