<svg width="24" height="24" version="1.1" viewBox="0 0 34 34" xmlns="http://www.w3.org/2000/svg">
  <path fill="currentColor" d="M 7.0839844 4.6660156 C 5.761146 4.6660156 4.6660156 5.761146 4.6660156 7.0839844 L 4.6660156 12.75 C 4.6660156 14.072838 5.7611119 15.166016 7.0839844 15.166016 L 12.75 15.166016 C 14.072872 15.166016 15.166016 14.072787 15.166016 12.75 L 15.166016 7.0839844 C 15.166016 5.7611971 14.072838 4.6660156 12.75 4.6660156 L 7.0839844 4.6660156 z M 21.25 4.6660156 C 19.927162 4.6660156 18.833984 5.7611971 18.833984 7.0839844 L 18.833984 12.75 C 18.833984 14.072787 19.927128 15.166016 21.25 15.166016 L 26.916016 15.166016 C 28.238888 15.166016 29.333984 14.072872 29.333984 12.75 L 29.333984 7.0839844 C 29.333984 5.7611119 28.238854 4.6660156 26.916016 4.6660156 L 21.25 4.6660156 z M 7.0839844 6.6660156 L 12.75 6.6660156 C 12.99196 6.6660156 13.166016 6.8419732 13.166016 7.0839844 L 13.166016 12.75 C 13.166016 12.992011 12.991926 13.166016 12.75 13.166016 L 7.0839844 13.166016 C 6.8420584 13.166016 6.6660156 12.99196 6.6660156 12.75 L 6.6660156 7.0839844 C 6.6660156 6.8420243 6.8420243 6.6660156 7.0839844 6.6660156 z M 21.25 6.6660156 L 26.916016 6.6660156 C 27.157976 6.6660156 27.333984 6.8420584 27.333984 7.0839844 L 27.333984 12.75 C 27.333984 12.991926 27.157942 13.166016 26.916016 13.166016 L 21.25 13.166016 C 21.008074 13.166016 20.833984 12.992011 20.833984 12.75 L 20.833984 7.0839844 C 20.833984 6.8419732 21.00804 6.6660156 21.25 6.6660156 z M 9.9160156 8.9160156 A 1 1 0 0 0 8.9160156 9.9160156 L 8.9160156 9.9316406 A 1 1 0 0 0 9.9160156 10.931641 A 1 1 0 0 0 10.916016 9.9316406 L 10.916016 9.9160156 A 1 1 0 0 0 9.9160156 8.9160156 z M 24.083984 8.9160156 A 1 1 0 0 0 23.083984 9.9160156 L 23.083984 9.9316406 A 1 1 0 0 0 24.083984 10.931641 A 1 1 0 0 0 25.083984 9.9316406 L 25.083984 9.9160156 A 1 1 0 0 0 24.083984 8.9160156 z M 7.0839844 18.833984 C 5.7611119 18.833984 4.6660156 19.927162 4.6660156 21.25 L 4.6660156 26.916016 C 4.6660156 28.238854 5.7611971 29.333984 7.0839844 29.333984 L 12.75 29.333984 C 14.072787 29.333984 15.166016 28.238803 15.166016 26.916016 L 15.166016 21.25 C 15.166016 19.927213 14.072872 18.833984 12.75 18.833984 L 7.0839844 18.833984 z M 19.833984 18.833984 A 1 1 0 0 0 18.833984 19.833984 L 18.833984 24.083984 A 1 1 0 0 0 19.833984 25.083984 A 1 1 0 0 0 20.833984 24.083984 L 20.833984 20.833984 L 24.083984 20.833984 A 1 1 0 0 0 25.083984 19.833984 A 1 1 0 0 0 24.083984 18.833984 L 19.833984 18.833984 z M 28.333984 18.833984 A 1 1 0 0 0 27.333984 19.833984 L 27.333984 19.847656 A 1 1 0 0 0 28.333984 20.847656 A 1 1 0 0 0 29.333984 19.847656 L 29.333984 19.833984 A 1 1 0 0 0 28.333984 18.833984 z M 7.0839844 20.833984 L 12.75 20.833984 C 12.991926 20.833984 13.166016 21.007989 13.166016 21.25 L 13.166016 26.916016 C 13.166016 27.158027 12.992011 27.333984 12.75 27.333984 L 7.0839844 27.333984 C 6.8419732 27.333984 6.6660156 27.157976 6.6660156 26.916016 L 6.6660156 21.25 C 6.6660156 21.00804 6.8420584 20.833984 7.0839844 20.833984 z M 9.9160156 23.083984 A 1 1 0 0 0 8.9160156 24.083984 L 8.9160156 24.097656 A 1 1 0 0 0 9.9160156 25.097656 A 1 1 0 0 0 10.916016 24.097656 L 10.916016 24.083984 A 1 1 0 0 0 9.9160156 23.083984 z M 24.083984 23.083984 A 1 1 0 0 0 23.083984 24.083984 A 1 1 0 0 0 24.083984 25.083984 L 27.333984 25.083984 L 27.333984 28.333984 A 1 1 0 0 0 28.333984 29.333984 A 1 1 0 0 0 29.333984 28.333984 L 29.333984 24.083984 A 1 1 0 0 0 29.332031 24.009766 A 1 1 0 0 0 29.308594 23.861328 A 1 1 0 0 0 29.289062 23.789062 A 1 1 0 0 0 29.234375 23.650391 A 1 1 0 0 0 29.199219 23.583984 A 1 1 0 0 0 29.115234 23.460938 A 1 1 0 0 0 29.066406 23.404297 A 1 1 0 0 0 28.957031 23.302734 A 1 1 0 0 0 28.896484 23.257812 A 1 1 0 0 0 28.767578 23.183594 A 1 1 0 0 0 28.699219 23.152344 A 1 1 0 0 0 28.556641 23.109375 A 1 1 0 0 0 28.482422 23.095703 A 1 1 0 0 0 28.333984 23.083984 L 24.083984 23.083984 z M 19.833984 27.333984 A 1 1 0 0 0 18.833984 28.333984 A 1 1 0 0 0 19.833984 29.333984 L 24.083984 29.333984 A 1 1 0 0 0 25.083984 28.333984 A 1 1 0 0 0 24.083984 27.333984 L 19.833984 27.333984 z "/>
</svg>
