<svg version="1.1" viewBox="0 0 24 24" xmlns="http://www.w3.org/2000/svg" fill="#ffffff">
 <path d="m12 23c-0.313 0-0.615-0.128-0.85-0.36a265.97 265.97 0 0 0-2.502-2.418l-4e-3 -3e-3c-2.216-2.123-4.13-3.957-5.462-5.763-1.489-2.019-2.182-3.933-2.182-6.025 0-2.031 0.62-3.906 1.745-5.278 1.14-1.388 2.702-2.153 4.4-2.153 1.27 0 2.434 0.451 3.458 1.341 0.516 0.45 0.984 1 1.397 1.64a7.629 7.629 0 0 1 1.398-1.64c1.022-0.89 2.186-1.341 3.456-1.341 1.7 0 3.262 0.765 4.4 2.153 1.126 1.372 1.746 3.247 1.746 5.278 0 2.092-0.693 4.006-2.182 6.025-1.332 1.806-3.245 3.64-5.461 5.762a263.28 263.28 0 0 0-2.507 2.423 1.212 1.212 0 0 1-0.85 0.359zm-4.854-20.551c-1.335 0-2.561 0.598-3.453 1.686-0.906 1.104-1.404 2.63-1.404 4.296 0 1.76 0.581 3.332 1.885 5.1 1.26 1.71 3.135 3.506 5.306 5.585l4e-3 4e-3c0.759 0.727 1.619 1.551 2.514 2.43 0.9-0.88 1.762-1.706 2.523-2.434 2.17-2.08 4.045-3.875 5.305-5.584 1.304-1.769 1.885-3.342 1.885-5.1 0-1.668-0.498-3.193-1.404-4.297-0.892-1.088-2.118-1.686-3.453-1.686-0.978 0-1.875 0.349-2.668 1.038-0.707 0.614-1.199 1.39-1.487 1.934-0.149 0.28-0.41 0.446-0.699 0.446-0.29 0-0.55-0.167-0.699-0.446-0.288-0.543-0.78-1.32-1.487-1.934-0.793-0.69-1.69-1.038-2.668-1.038z"/>
</svg>
