<svg version="1.1" viewBox="0 0 24 24" xmlns="http://www.w3.org/2000/svg" fill="#ffffff">
 <path d="m22.957 7.5605c-0.01863-0.20785-0.040447-0.4143-0.072265-0.61719-0.03786-0.24141-0.084504-0.47974-0.14062-0.71289-0.056121-0.23315-0.12138-0.46202-0.19531-0.68555-0.073937-0.22353-0.15674-0.44174-0.24805-0.6543-0.091308-0.21256-0.19059-0.41891-0.29883-0.61914-0.054117-0.10011-0.1097-0.2001-0.16797-0.29688-0.058265-0.096777-0.11928-0.19189-0.18164-0.28516-0.062358-0.09327-0.12697-0.18384-0.19336-0.27344-0.066394-0.089595-0.1347-0.17792-0.20508-0.26367-0.071125-0.08675-0.14438-0.1701-0.21875-0.25195-0.074367-0.081848-0.14909-0.1614-0.22656-0.23828-0.077471-0.076877-0.15785-0.15082-0.23828-0.22266-0.080434-0.071836-0.16088-0.14226-0.24414-0.20898-0.083258-0.066727-0.16796-0.12986-0.25391-0.19141s-0.17323-0.12144-0.26172-0.17773c-0.08849-0.056299-0.17864-0.10918-0.26953-0.16016-0.09089-0.050981-0.18224-0.098938-0.27539-0.14453-0.09316-0.045594-0.18792-0.088769-0.2832-0.12891-0.09528-0.040137-0.1918-0.07867-0.28906-0.11328-0.09727-0.034611-0.19581-0.064734-0.29492-0.09375-0.09911-0.029016-0.19801-0.056726-0.29883-0.080078-0.10082-0.023352-0.20425-0.042929-0.30664-0.060547s-0.20478-0.033107-0.30859-0.044922c-0.10381-0.011814-0.2074-0.019449-0.3125-0.025391-0.1051-0.0059414-0.21211-0.0097651-0.31836-0.0097651-0.15875 0-0.31534 0.00741-0.4707 0.021484-0.15537 0.01407-0.30909 0.034406-0.46094 0.0625s-0.30104 0.063398-0.44922 0.10547c-0.14818 0.04207-0.29508 0.090484-0.43945 0.14648-0.14438 0.056-0.2873 0.11957-0.42773 0.18945-0.14043 0.069883-0.27772 0.14675-0.41406 0.23047-0.13634 0.083719-0.27218 0.17398-0.4043 0.27148-0.13212 0.097508-0.26092 0.2032-0.38867 0.31445a7.629 7.629 0 0 0-0.75781 0.76953 7.629 7.629 0 0 0-0.64062 0.86914c-0.10325-0.16-0.2103-0.3143-0.32031-0.46289-0.11002-0.14859-0.22328-0.29086-0.33984-0.42773-0.11656-0.13688-0.23648-0.26773-0.35938-0.39258-0.12289-0.12484-0.24795-0.24297-0.37695-0.35547-0.128-0.11125-0.25832-0.21695-0.39062-0.31445-0.13231-0.097508-0.26781-0.18777-0.4043-0.27148-0.13648-0.083719-0.27354-0.16059-0.41406-0.23047-0.14053-0.069883-0.2833-0.13345-0.42773-0.18945s-0.29124-0.10441-0.43945-0.14648c-0.14821-0.04207-0.29931-0.077375-0.45117-0.10547-0.15186-0.028094-0.30361-0.04843-0.45898-0.0625s-0.31391-0.021484-0.47266-0.021484c-0.10612 0-0.21141 0.00382-0.31641 0.00977-0.10499 0.00594-0.20878 0.013576-0.3125 0.025391-0.10372 0.011814-0.20628 0.027304-0.30859 0.044922-0.10231 0.017618-0.20393 0.037195-0.30469 0.060547-0.10076 0.023352-0.20171 0.051062-0.30078 0.080078-0.099067 0.029016-0.19769 0.059139-0.29492 0.09375-0.097236 0.034611-0.1938 0.073144-0.28906 0.11328-0.095266 0.040137-0.18809 0.083312-0.28125 0.12891-0.093156 0.045594-0.18644 0.09355-0.27734 0.14453-0.090907 0.050981-0.17906 0.10386-0.26758 0.16016-0.088518 0.056299-0.17768 0.11619-0.26367 0.17773-0.085989 0.061547-0.17059 0.12468-0.25391 0.19141-0.08332 0.066726-0.16363 0.13715-0.24414 0.20898-0.080512 0.071836-0.16072 0.14578-0.23828 0.22266-0.077564 0.076877-0.15404 0.15643-0.22852 0.23828-0.074477 0.081848-0.1475 0.1652-0.21875 0.25195-0.070312 0.08575-0.13874 0.17408-0.20508 0.26367-0.066339 0.08959-0.1291 0.18016-0.19141 0.27343-0.06231 0.09327-0.12342 0.18838-0.18164 0.28516s-0.11389 0.19676-0.16797 0.29688c-0.10816 0.20023-0.20757 0.40658-0.29883 0.61914-0.09126 0.21256-0.17414 0.43077-0.24805 0.6543-0.073906 0.22353-0.13921 0.4524-0.19531 0.68555-0.056104 0.23315-0.10277 0.47148-0.14062 0.71289-0.037852 0.24141-0.066787 0.48605-0.085938 0.73438-0.01915 0.24832-0.029297 0.50003-0.029297 0.75391 0 0.13075 0.00237 0.25924 0.00781 0.38867s0.014462 0.25847 0.025391 0.38672c0.010929 0.12825 0.024547 0.25757 0.041016 0.38477 0.016468 0.1272 0.034582 0.25261 0.056641 0.37891s0.048473 0.25338 0.076172 0.37891c0.027699 0.12552 0.056454 0.25011 0.089844 0.375 0.03339 0.12489 0.070244 0.24865 0.10938 0.37305s0.082031 0.249 0.12695 0.37305c0.044922 0.12405 0.091815 0.24726 0.14258 0.37109 0.050763 0.12383 0.10545 0.24929 0.16211 0.37305 0.056655 0.12375 0.11514 0.24728 0.17773 0.37109 0.062597 0.12381 0.12868 0.24708 0.19727 0.37109 0.13718 0.24802 0.28581 0.49645 0.44727 0.74609 0.16145 0.24965 0.33536 0.49958 0.52148 0.75195 0.1665 0.22575 0.3432 0.45255 0.52734 0.67969 0.18414 0.22713 0.37548 0.45601 0.57617 0.68555 0.20069 0.22954 0.41081 0.4604 0.62695 0.69336 0.21614 0.23296 0.43942 0.46767 0.66992 0.70508 0.2305 0.23741 0.46717 0.47783 0.71094 0.7207 0.24377 0.24287 0.49406 0.48893 0.75 0.73828 0.51187 0.4987 1.0476 1.0103 1.6016 1.541l0.00391 0.0039a265.97 265.97 0 0 1 2.502 2.418c0.05875 0.058 0.12125 0.10967 0.1875 0.1543 0.06625 0.04462 0.13503 0.08083 0.20703 0.11133 0.072 0.0305 0.14666 0.05469 0.22266 0.07031 0.01277 0.0026 0.02621 0.0017 0.03906 0.0039h0.28711a1.212 1.212 0 0 0 0.36719-0.07617 1.212 1.212 0 0 0 0.38867-0.26367 263.28 263.28 0 0 1 2.5078-2.4219c0.554-0.5305 1.0878-1.0444 1.5996-1.543 0.25589-0.24928 0.50629-0.49351 0.75-0.73633s0.48245-0.48333 0.71289-0.7207c0.23044-0.23738 0.45384-0.47213 0.66992-0.70508s0.42436-0.46383 0.625-0.69336c0.20064-0.22953 0.39206-0.45841 0.57617-0.68555 0.18411-0.22713 0.36084-0.45394 0.52734-0.67969 0.18612-0.25238 0.36003-0.50231 0.52148-0.75195s0.31009-0.49807 0.44726-0.74609c0.06859-0.12401 0.13467-0.24728 0.19727-0.37109 0.0626-0.12381 0.12108-0.24734 0.17773-0.37109 0.05666-0.12375 0.11135-0.24922 0.16211-0.37305 0.05076-0.12383 0.09766-0.24705 0.14258-0.37109 0.04492-0.12405 0.08782-0.24865 0.12695-0.37305 0.03913-0.1244 0.07598-0.24815 0.10938-0.37305 0.03339-0.12489 0.06215-0.24948 0.08984-0.375 0.0277-0.12552 0.05411-0.25261 0.07617-0.37891s0.04017-0.25171 0.05664-0.37891c0.01254-0.096853 0.02193-0.19552 0.03125-0.29297zm-15.811-5.1113c0.12225 0 0.24361 0.00476 0.36328 0.015625 0.11967 0.010863 0.23651 0.027125 0.35352 0.048828 0.11701 0.021703 0.2334 0.049512 0.34766 0.082031 0.11425 0.03252 0.22648 0.069969 0.33789 0.11328 0.11141 0.043313 0.22161 0.092402 0.33008 0.14648 0.10847 0.054082 0.21487 0.11291 0.32031 0.17773 0.10545 0.064828 0.21017 0.13539 0.3125 0.21094 0.10233 0.075551 0.20361 0.15594 0.30273 0.24219 0.088375 0.07675 0.17223 0.15721 0.25391 0.23828 0.08168 0.081068 0.1613 0.16421 0.23633 0.24805 0.07502 0.083836 0.14643 0.1669 0.21484 0.25195 0.06841 0.085053 0.13347 0.17114 0.19531 0.25586 0.12369 0.16944 0.23436 0.3373 0.33203 0.49609 0.09767 0.1588 0.18191 0.30956 0.25391 0.44531 0.03725 0.06975 0.081 0.13066 0.13086 0.18555 0.04986 0.054891 0.10608 0.10231 0.16602 0.14062 0.05994 0.038312 0.12392 0.067875 0.19141 0.087891 0.03374 0.010008 0.06836 0.018326 0.10352 0.023437 0.03515 0.00511 0.07117 0.00781 0.10742 0.00781 0.07225 0 0.1435-0.011312 0.21094-0.03125 0.06744-0.019938 0.13141-0.049641 0.19141-0.087891s0.11608-0.083734 0.16602-0.13867c0.04994-0.054938 0.09361-0.1175 0.13086-0.1875 0.072-0.136 0.15623-0.28647 0.25391-0.44531 0.09767-0.15884 0.20834-0.32672 0.33203-0.49609 0.06184-0.084688 0.1269-0.17085 0.19531-0.25586 0.06841-0.085012 0.13982-0.16816 0.21484-0.25195 0.07502-0.083797 0.15465-0.167 0.23633-0.24805 0.08168-0.081043 0.16553-0.16153 0.25391-0.23828 0.09913-0.086125 0.2004-0.16671 0.30273-0.24219 0.10233-0.075482 0.20706-0.14613 0.3125-0.21094 0.10545-0.064805 0.21184-0.12364 0.32031-0.17773 0.10847-0.054092 0.21867-0.10314 0.33008-0.14648 0.11141-0.043344 0.22364-0.080721 0.33789-0.11328 0.11425-0.032561 0.23065-0.060289 0.34766-0.082031s0.23384-0.037939 0.35352-0.048828c0.11967-0.010889 0.24103-0.015625 0.36328-0.015625 0.16688 0 0.33306 0.00887 0.49609 0.027344 0.16303 0.018477 0.32412 0.0455 0.48242 0.082031 0.1583 0.036531 0.3141 0.082555 0.4668 0.13672 0.1527 0.054164 0.30105 0.11808 0.44727 0.18945 0.14622 0.071375 0.28888 0.15012 0.42773 0.23828 0.13886 0.088164 0.27368 0.18453 0.4043 0.28906 0.13062 0.10453 0.25741 0.21741 0.37891 0.33789s0.23811 0.24877 0.34961 0.38477c0.11325 0.138 0.21999 0.28298 0.32031 0.43359s0.1942 0.30661 0.28125 0.46875c0.08705 0.16214 0.16682 0.32937 0.24024 0.50195 0.07342 0.17258 0.14173 0.35127 0.20117 0.5332 0.05944 0.18194 0.11114 0.36839 0.15625 0.55859 0.04511 0.19021 0.08286 0.38464 0.11328 0.58203 0.03042 0.19739 0.05297 0.39807 0.06836 0.60156s0.02344 0.40869 0.02344 0.61719c0 0.21975-0.0089 0.43763-0.02734 0.65234-0.01843 0.21471-0.04656 0.42751-0.08398 0.63867-0.03742 0.21116-0.08366 0.4198-0.14062 0.62891-0.05696 0.2091-0.12411 0.41842-0.20117 0.62695-0.07706 0.20853-0.164 0.41555-0.26172 0.625-0.09772 0.20945-0.20725 0.42096-0.32617 0.63281-0.11892 0.21185-0.24799 0.42488-0.38867 0.64062s-0.29208 0.43317-0.45508 0.6543c-0.1575 0.21362-0.32391 0.42978-0.5 0.64648-0.17609 0.2167-0.36125 0.43374-0.55469 0.6543-0.19344 0.22056-0.39594 0.44474-0.60547 0.66992-0.20953 0.22519-0.42602 0.453-0.65039 0.68359-0.44875 0.46119-0.92711 0.93244-1.4277 1.4199-0.50062 0.48748-1.0239 0.98976-1.5664 1.5098-0.761 0.728-1.6234 1.5555-2.5234 2.4355-0.895-0.879-1.7547-1.7046-2.5137-2.4316l-0.00391-0.0039c-0.54276-0.51975-1.0676-1.0204-1.5684-1.5078s-0.97697-0.96056-1.4258-1.4219c-0.22441-0.23066-0.44279-0.45832-0.65234-0.68359-0.20955-0.22528-0.41202-0.44926-0.60547-0.66992s-0.37859-0.43943-0.55469-0.65625c-0.1761-0.21682-0.3425-0.43078-0.5-0.64453-0.163-0.221-0.31439-0.43867-0.45508-0.6543s-0.26975-0.42888-0.38867-0.64062c-0.11892-0.21175-0.22846-0.42344-0.32617-0.63281-0.097715-0.20938-0.18466-0.4165-0.26172-0.625s-0.14421-0.41783-0.20117-0.62695c-0.056965-0.20912-0.1032-0.41766-0.14062-0.62891-0.037422-0.21125-0.065551-0.42575-0.083984-0.64062-0.018434-0.21487-0.027344-0.43039-0.027344-0.65039 0-0.20825 0.00805-0.41582 0.023437-0.61914s0.037937-0.40231 0.068359-0.59961 0.068176-0.39186 0.11328-0.58203c0.045106-0.19017 0.096812-0.37666 0.15625-0.55859 0.059438-0.18194 0.12775-0.35864 0.20117-0.53125 0.073418-0.17261 0.15319-0.34173 0.24023-0.50391 0.087047-0.16217 0.18093-0.31811 0.28125-0.46875s0.20706-0.29559 0.32031-0.43359c0.1115-0.136 0.22811-0.26429 0.34961-0.38477 0.1215-0.12048 0.24829-0.23336 0.37891-0.33789 0.13062-0.10453 0.26544-0.2009 0.4043-0.28906 0.13886-0.088164 0.28152-0.16691 0.42773-0.23828 0.14622-0.071375 0.29456-0.13529 0.44727-0.18945 0.1527-0.054164 0.30849-0.10019 0.4668-0.13672 0.1583-0.036531 0.31939-0.063555 0.48242-0.082031s0.32922-0.027344 0.49609-0.027344zm0 0c-0.16688 0-0.33306 0.00887-0.49609 0.027344-0.16303 0.018477-0.32412 0.0455-0.48242 0.082031-0.1583 0.036531-0.3141 0.082555-0.4668 0.13672-0.1527 0.054164-0.30105 0.11808-0.44727 0.18945-0.14622 0.071375-0.28888 0.15012-0.42773 0.23828-0.13886 0.088164-0.27368 0.18453-0.4043 0.28906-0.13062 0.10453-0.25741 0.21741-0.37891 0.33789-0.1215 0.12048-0.23811 0.24877-0.34961 0.38477-0.11325 0.138-0.21999 0.28296-0.32031 0.43359s-0.1942 0.30658-0.28125 0.46875c-0.087047 0.16217-0.16682 0.3313-0.24023 0.50391-0.073418 0.17261-0.14173 0.34931-0.20117 0.53125s-0.11114 0.36843-0.15625 0.55859c-0.045105 0.19017-0.082859 0.38473-0.11328 0.58203s-0.052973 0.39629-0.068359 0.59961c-0.015387 0.20332-0.023437 0.41089-0.023437 0.61914 0 0.22 0.00891 0.43552 0.027344 0.65039 0.018434 0.21488 0.046563 0.42938 0.083984 0.64062 0.037422 0.21125 0.08366 0.41978 0.14062 0.62891 0.056965 0.20913 0.12411 0.41845 0.20117 0.62695 0.077062 0.2085 0.164 0.41562 0.26172 0.625 0.097715 0.20938 0.20725 0.42106 0.32617 0.63281 0.11892 0.21175 0.24799 0.425 0.38867 0.64062s0.29208 0.4333 0.45508 0.6543c0.1575 0.21375 0.3239 0.42771 0.5 0.64453 0.1761 0.21682 0.36124 0.43559 0.55469 0.65625s0.39592 0.44465 0.60547 0.66992c0.20955 0.22528 0.42794 0.45294 0.65234 0.68359 0.44881 0.46131 0.92502 0.93442 1.4258 1.4219s1.0256 0.98806 1.5684 1.5078l0.00391 0.0039c0.759 0.727 1.6187 1.5526 2.5137 2.4316 0.9-0.88 1.7624-1.7075 2.5234-2.4355 0.5425-0.52 1.0658-1.0223 1.5664-1.5098 0.50062-0.48748 0.97898-0.95874 1.4277-1.4199 0.22438-0.23059 0.44086-0.45841 0.65039-0.68359 0.20953-0.22518 0.41203-0.44937 0.60547-0.66992 0.19344-0.22055 0.37859-0.4376 0.55469-0.6543 0.17609-0.2167 0.3425-0.43286 0.5-0.64648 0.163-0.22112 0.31439-0.43855 0.45508-0.6543s0.26975-0.42877 0.38867-0.64062c0.11892-0.21185 0.22846-0.42336 0.32617-0.63281 0.09772-0.20945 0.18466-0.41647 0.26172-0.625 0.07706-0.20853 0.14421-0.41785 0.20117-0.62695 0.05696-0.2091 0.1032-0.41774 0.14062-0.62891 0.03742-0.21116 0.06555-0.42396 0.08398-0.63867s0.02734-0.43259 0.02734-0.65234c0-0.2085-0.0081-0.4137-0.02344-0.61719-0.01538-0.20348-0.03793-0.40416-0.068352-0.60156s-0.068176-0.39182-0.11328-0.58203c-0.045105-0.19021-0.096812-0.37666-0.15625-0.55859-0.059437-0.18194-0.12775-0.36062-0.20117-0.5332-0.073418-0.17258-0.15319-0.33981-0.24024-0.50195-0.087047-0.16214-0.18093-0.31814-0.28125-0.46875s-0.20706-0.29559-0.32031-0.43359c-0.1115-0.136-0.22811-0.26429-0.34961-0.38477s-0.24829-0.23336-0.37891-0.33789c-0.13062-0.10453-0.26544-0.2009-0.4043-0.28906-0.13886-0.088164-0.28152-0.16691-0.42773-0.23828-0.14622-0.071375-0.29456-0.13529-0.44727-0.18945s-0.30849-0.10019-0.4668-0.13672c-0.1583-0.036531-0.31939-0.063555-0.48242-0.082031-0.16303-0.018477-0.32922-0.027344-0.49609-0.027344-0.12225 0-0.24361 0.00474-0.36328 0.015625-0.11967 0.010889-0.23651 0.027086-0.35352 0.048828s-0.2334 0.049471-0.34766 0.082031c-0.11425 0.032561-0.22648 0.069937-0.33789 0.11328-0.11141 0.043344-0.22161 0.092393-0.33008 0.14648-0.10847 0.054092-0.21487 0.11293-0.32031 0.17773-0.10544 0.064805-0.21017 0.13546-0.3125 0.21094-0.10233 0.075482-0.20361 0.15606-0.30273 0.24219-0.08837 0.07675-0.17223 0.15724-0.25391 0.23828-0.08168 0.081043-0.1613 0.16425-0.23633 0.24805-0.07502 0.083797-0.14643 0.16694-0.21484 0.25195-0.06841 0.085012-0.13347 0.17117-0.19531 0.25586-0.12369 0.16938-0.23436 0.33725-0.33203 0.49609-0.09767 0.15884-0.18191 0.30931-0.25391 0.44531-0.03725 0.07-0.08092 0.13256-0.13086 0.1875-0.04994 0.054938-0.10602 0.10042-0.16602 0.13867s-0.12397 0.067953-0.19141 0.087891c-0.067438 0.019937-0.13869 0.03125-0.21094 0.03125-0.03625 0-0.07227-0.0027-0.10742-0.00781-0.03515-0.00511-0.06977-0.01343-0.10352-0.023437-0.06748-0.020016-0.13147-0.049578-0.19141-0.087891-0.059937-0.038315-0.11616-0.085737-0.16602-0.14063-0.04986-0.054891-0.09361-0.1158-0.13086-0.18555-0.072-0.13575-0.15623-0.28652-0.25391-0.44531s-0.20834-0.32666-0.33203-0.49609c-0.061844-0.084719-0.1269-0.17081-0.19531-0.25586-0.068412-0.085053-0.13982-0.16812-0.21484-0.25195-0.075024-0.083836-0.15465-0.16698-0.23633-0.24805-0.081677-0.081068-0.16553-0.16153-0.25391-0.23828-0.099125-0.08625-0.2004-0.16664-0.30273-0.24219-0.10233-0.075551-0.20705-0.14611-0.3125-0.21094-0.10545-0.064828-0.21184-0.12365-0.32031-0.17773-0.10847-0.054082-0.21867-0.10317-0.33008-0.14648-0.11141-0.043312-0.22364-0.080762-0.33789-0.11328-0.11425-0.03252-0.23065-0.060328-0.34766-0.082031-0.11701-0.021703-0.23384-0.037965-0.35352-0.048828-0.11967-0.010863-0.24103-0.015625-0.36328-0.015625z" color="#000000" stroke-width=".5" style="-inkscape-stroke:none"/>
</svg>
