<?xml version="1.0" encoding="UTF-8"?>
<svg class="ionicon" version="1.1" viewBox="0 0 512 512" xmlns="http://www.w3.org/2000/svg">
 <title>Qr Code</title>
 <path d="m334.57 327.43c19.957 0.37596 40.064-0.75051 59.928 0.5596 8.0299 6.64 2.9036 18.992 4.3574 28.306-0.37145 12.717 0.74537 25.582-0.5596 38.206-6.64 8.0299-18.992 2.9036-28.306 4.3574-12.717-0.37145-25.582 0.74537-38.206-0.5596-8.0299-6.64-2.9036-18.992-4.3574-28.306 0.37145-12.717-0.74537-25.582 0.5596-38.206 1.0594-2.5985 3.7723-4.4024 6.5833-4.3574z"/>
 <path d="m277.43 270.29c15.197 0.36011 30.538-0.7291 45.643 0.5596 8.0299 6.64 2.9036 18.992 4.3574 28.306-1.4452 9.1231 3.665 21.266-4.3574 27.718-16.017 0.90873-32.411 0.9443-48.428 0-8.0299-6.64-2.9036-18.992-4.3574-28.306 1.4452-9.1231-3.665-21.266 4.3574-27.718z"/>
 <path d="m406 398.86c15.197 0.36011 30.538-0.7291 45.643 0.5596 8.0299 6.64 2.9036 18.992 4.3574 28.306-1.4452 9.1231 3.665 21.266-4.3574 27.718-16.017 0.90873-32.411 0.9443-48.428 0-8.0299-6.64-2.9036-18.992-4.3574-28.306 1.4452-9.1231-3.665-21.266 4.3574-27.718z"/>
 <path d="m420.29 270.29c11.097 1.096 23.377-2.3766 33.627 2.0875 4.3095 10.287 1.0924 22.506 2.0875 33.627-3.049 11.951-18.388 5.4935-27.508 7.1429-12.114 3.3367-17.817-7.2697-15.35-18.004 1.5058-8.055-4.5244-22.999 7.1429-24.853z"/>
 <path d="m277.43 413.14c11.097 1.096 23.377-2.3766 33.627 2.0875 4.3095 10.287 1.0924 22.506 2.0875 33.627-3.049 11.951-18.388 5.4935-27.508 7.1429-12.114 3.3367-17.817-7.2697-15.35-18.004 1.5058-8.055-4.5244-22.999 7.1428-24.853z"/>
 <path d="m334.57 113.14c19.957 0.37596 40.064-0.75051 59.928 0.5596 8.0299 6.64 2.9036 18.992 4.3574 28.306-0.37145 12.717 0.74537 25.582-0.5596 38.206-6.64 8.0299-18.992 2.9036-28.306 4.3574-12.717-0.37145-25.582 0.74537-38.206-0.5596-8.0299-6.64-2.9036-18.992-4.3574-28.306 0.37145-12.717-0.74537-25.582 0.5596-38.206 1.0594-2.5985 3.7723-4.4024 6.5833-4.3574z"/>
 <path d="m298.86 56c-19.1-0.501-31.55 19.104-28.572 36.718 0.37902 42.03-0.76674 84.159 0.58863 126.13 3.1793 18.094 22.524 25.125 38.845 22.871 41.125-0.37848 82.348 0.76601 123.41-0.58863 18.094-3.1793 25.125-22.524 22.871-38.845-0.37848-41.125 0.76601-82.348-0.58863-123.41-3.1793-18.094-22.524-25.125-38.845-22.871h-117.71zm0 28.572h128.57v128.57h-128.57v-128.57z"/>
 <path d="m120.29 113.14c19.957 0.37596 40.064-0.75051 59.928 0.5596 8.0299 6.64 2.9036 18.992 4.3574 28.306-0.37145 12.717 0.74537 25.582-0.5596 38.206-6.64 8.0299-18.992 2.9036-28.306 4.3574-12.717-0.37145-25.582 0.74537-38.206-0.5596-8.0299-6.64-2.9036-18.992-4.3574-28.306 0.37145-12.717-0.74537-25.582 0.5596-38.206 1.0594-2.5985 3.7723-4.4024 6.5833-4.3574z"/>
 <path d="m84.572 56c-19.1-0.501-31.55 19.104-28.572 36.718 0.37902 42.03-0.76674 84.159 0.58863 126.13 3.1793 18.094 22.524 25.125 38.845 22.871 41.125-0.37848 82.348 0.76601 123.41-0.58863 18.094-3.1793 25.125-22.524 22.871-38.845-0.37848-41.125 0.76601-82.348-0.58863-123.41-3.1793-18.094-22.524-25.125-38.845-22.871h-117.71zm0 28.572h128.57v128.57h-128.57v-128.57z"/>
 <path d="m120.29 327.43c19.957 0.37596 40.064-0.75051 59.928 0.5596 8.0299 6.64 2.9036 18.992 4.3574 28.306-0.37145 12.717 0.74537 25.582-0.5596 38.206-6.64 8.0299-18.992 2.9036-28.306 4.3574-12.717-0.37145-25.582 0.74537-38.206-0.5596-8.0299-6.64-2.9036-18.992-4.3574-28.306 0.37145-12.717-0.74537-25.582 0.5596-38.206 1.0594-2.5985 3.7723-4.4024 6.5833-4.3574z"/>
 <path d="m84.572 270.29c-19.1-0.501-31.55 19.104-28.572 36.718 0.37902 42.03-0.76674 84.159 0.58863 126.13 3.1793 18.094 22.524 25.125 38.845 22.871 41.125-0.37848 82.348 0.76601 123.41-0.58863 18.094-3.1793 25.125-22.524 22.871-38.845-0.37848-41.125 0.76601-82.348-0.58863-123.41-3.1793-18.094-22.524-25.125-38.845-22.871h-117.71zm0 28.572h128.57v128.57h-128.57v-128.57z"/>
 <path d="m444.12 16c-23.334 0.18872-46.705-0.37869-70.015 0.28571-23.73 8.1658-4.5503 34.183 13.695 27.839 20.361 0.29182 40.781-0.60336 61.102 0.48352 19.168 3.3818 19.92 24.158 18.975 39.565 0.65379 18.75-1.3603 37.84 1.1051 56.362 12.047 20.858 32.593-0.80051 27.02-17.692-0.86522-23.444 2.1122-47.283-2.3364-70.373-6.3387-21.238-27.347-36.803-49.545-36.471z"/>
 <path d="m30.062 149.12c17.142-0.84434 13.961-19.827 14.062-31.712 0.8701-19.556-1.9624-39.588 1.8699-58.769 8.6525-19.838 31.961-13.43 49.039-14.519 15.134-0.61873 30.594 1.3112 45.502-1.1051 20.858-12.047-0.80051-32.593-17.692-27.02-23.444 0.86521-47.283-2.1122-70.373 2.3365-26.005 7.2462-39.382 34.944-36.471 60.407 0.66584 20.559-1.377 41.462 1.1051 61.793 2.0887 5.1371 7.464 8.6573 12.957 8.5888z"/>
 <path d="m135.06 467.88c-23.981-0.29951-48.022 0.61386-71.963-0.48352-19.168-3.3818-19.92-24.158-18.975-39.565-0.65379-18.75 1.3603-37.84-1.1051-56.362-12.047-20.858-32.593 0.80051-27.02 17.692 0.86522 23.444-2.1122 47.283 2.3364 70.373 7.2458 26.005 34.943 39.383 60.406 36.471 20.56-0.66581 41.462 1.377 61.794-1.1051 14.104-5.5535 9.547-27.33-5.4736-27.02z"/>
 <path d="m481.94 362.88c-17.142 0.84434-13.961 19.827-14.062 31.712-0.8701 19.556 1.9624 39.588-1.8699 58.769-8.6525 19.838-31.961 13.43-49.039 14.519-15.134 0.61873-30.594-1.3112-45.502 1.1051-20.858 12.047 0.80051 32.593 17.692 27.02 23.444-0.8652 47.283 2.1122 70.373-2.3365 26.005-7.246 39.382-34.944 36.47-60.407-0.66585-20.559 1.377-41.462-1.1051-61.793-2.0887-5.1371-7.464-8.6573-12.957-8.5888z"/>
</svg>
