<?xml version="1.0" encoding="UTF-8"?>
<svg version="1.1" viewBox="0 0 24 24" xml:space="preserve" xmlns="http://www.w3.org/2000/svg" fill="#ffffff">
  <g><path d="m22.313 21.064-6.0111-6.0103c1.1644-1.438 1.8654-3.2654 1.8654-5.2557 0-4.6126-3.7538-8.3661-8.3673-8.3661s-8.3673 3.7532-8.3673 8.3661c0 4.6129 3.7538 8.3661 8.3673 8.3661 1.9905 0 3.8181-0.70096 5.2564-1.8652l6.0111 6.0103c0.17175 0.17172 0.3972 0.25804 0.6227 0.25804s0.45096-0.08631 0.6227-0.25804c0.34436-0.34431 0.34436-0.90088-4.1e-5 -1.2452zm-12.513-4.6613c-3.6428 0-6.6056-2.9624-6.6056-6.6047 0-3.6423 2.9628-6.6047 6.6056-6.6047 3.6428 0 6.6056 2.9624 6.6056 6.6047 0 3.6423-2.9629 6.6047-6.6056 6.6047z" color="#000000" stroke-width=".86468" style="-inkscape-stroke:none"/><path d="m9.7988 1c-4.848 0-8.7988 3.9514-8.7988 8.7988 0 4.8474 3.9509 8.7988 8.7988 8.7988 1.9478 0 3.7183-0.68985 5.1777-1.7656l5.7852 5.7832c0.2543 0.25427 0.59191 0.38477 0.92773 0.38477 0.33582 0 0.67538-0.13049 0.92969-0.38477 0.39037-0.39031 0.38605-0.94313 0.17773-1.4238l0.12695-0.12695-0.30469-0.30664-5.7832-5.7812c1.0763-1.4592 1.7637-3.2297 1.7637-5.1777 0-4.8471-3.9528-8.7988-8.8008-8.7988zm0 0.86523c4.379 0 7.9355 3.5556 7.9355 7.9336 0 1.8888-0.66447 3.6176-1.7695 4.9824l-0.24414 0.30273 6.2871 6.2871c0.17966 0.17961 0.17962 0.45321 0 0.63281-0.08918 0.08918-0.20318 0.13086-0.31836 0.13086-0.11517 0-0.22722-0.04168-0.31641-0.13086l-6.2871-6.2852-0.30274 0.24414c-1.3651 1.1049-3.0954 1.7695-4.9844 1.7695-4.379 0-7.9336-3.5553-7.9336-7.9336 0-4.3783 3.5546-7.9336 7.9336-7.9336zm0.00195 0.89648c-3.8772-1e-7 -7.0391 3.1604-7.0391 7.0371 0 3.8767 3.1619 7.0371 7.0391 7.0371 3.8771 0 7.0371-3.1604 7.0371-7.0371 0-3.8767-3.1599-7.0371-7.0371-7.0371zm0 0.86523c3.4084 0 6.1719 2.7641 6.1719 6.1719 0 3.4078-2.7635 6.1719-6.1719 6.1719-3.4084 0-6.1738-2.7641-6.1738-6.1719 0-3.4078 2.7654-6.1719 6.1738-6.1719z" color="#000000" style="-inkscape-stroke:none"/></g>
</svg>
