<svg viewBox="0 0 24 24" xmlns="http://www.w3.org/2000/svg">
  <path d="m 14.095395,20.500148 a 1.1099445,1.11 0 0 0 0.783961,-0.323 l 6.353682,-6.352 h 0.003 A 2.579871,2.58 0 0 0 22,12.005148 c -0.007,-0.679 -0.279986,-1.327 -0.763962,-1.805 h -0.003 l -6.353682,-6.352 c -0.284986,-0.282 -0.560972,-0.363 -0.829958,-0.346 -0.269987,0.017 -0.537974,0.148 -0.740963,0.352 a 1.1699415,1.17 0 0 0 -0.349983,0.741 c -0.015,0.269 0.07,0.546 0.355982,0.828 l 5.508725,5.475 H 3.1109445 c -0.40098,0 -0.6539673,0.136 -0.8329584,0.337 C 2.0979951,11.436148 2,11.718148 2,12.005148 c 0,0.288 0.098995,0.57 0.2779861,0.77 0.1789911,0.201 0.4319784,0.338 0.8329584,0.338 H 18.820159 l -5.505725,5.489 a 1.1019449,1.102 0 0 0 0,1.575 1.1039448,1.104 0 0 0 0.779961,0.323 z" />
</svg>
