<svg width="24px" height="24px" viewBox="0 0 24 24" fill="currentColor" xmlns="http://www.w3.org/2000/svg" version="1.1">
  <path d="M11.993 2c-.755-.002-.814.82-.764 1.385.207.761-.923.667-1.15 1.31-.23.54-.447.953-1.09.963-.829.182-1.642.462-2.484.568-.78-.038-1.942-1.297-2.325.042-.15.696.993.848.38 1.475-.843 1.78-1.717 3.548-2.54 5.337-.234 2.086 1.7 4.05 3.778 3.992 2.085.058 4.068-1.946 3.744-4.046-.803-1.788-1.686-3.546-2.52-5.322.94-.2 1.866-.458 2.8-.681.172.738 1.097 1.005 1.409 1.465v9.846c-1.483.25-2.834 1.3-3.36 2.713-.159.83.74 1.021 1.364.934 2.091-.007 4.184.013 6.274-.01 1.108-.306.45-1.578-.09-2.114a4.477 4.477 0 0 0-2.657-1.523V8.326c.749-.091 1.097-1.048 1.573-1.256.878.21 1.75.45 2.633.642-.849 1.792-1.73 3.57-2.559 5.372-.236 2.085 1.697 4.05 3.774 3.992 1.978.044 3.772-1.68 3.81-3.654.053-.134-.19-.798-.372-1.096L19.19 7.227c.877-.278.77-1.745-.25-1.604-.674.44-1.471.798-2.28.446l-2.374-.588c-.093-.893-1.1-1.31-1.523-1.801-.039-.56.182-1.332-.471-1.62l-.144-.044zm0 3.238c1.452-.004.735 2.363-.474 1.548-.69-.427-.34-1.583.474-1.548zm6.198 3.447 1.839 3.851h-3.68l1.841-3.851zm-12.393.002 1.84 3.853H3.959l1.839-3.853zm-2.135 5.378h4.27c-.49 1.494-2.618 1.996-3.709.85a2.317 2.317 0 0 1-.561-.85zm12.392 0h4.271c-.474 1.426-2.456 1.976-3.582.964a2.316 2.316 0 0 1-.69-.964zm-4.062 5.717c.53-.08 1.862.443 1.696.678h-3.563c.52-.432 1.19-.68 1.867-.678z"/>
</svg>