<svg viewBox="0 0 24 24" xmlns="http://www.w3.org/2000/svg">
  <path d="m2.7324 1.8809c-0.23645-0.019172-0.46632 0.052262-0.63281 0.21875-0.33298 0.33298-0.28432 0.91686 0.10742 1.3086l3.4473 3.4473-1.5391 0.94922c-2.411 1.4878-2.801 4.8328-0.79688 6.834l1.0977 1.0938c-2.6486 3.67 1.9582 8.1849 5.584 5.4727 0.73246 0.51664 1.6052 0.79372 2.502 0.79492 0.17516 6e-5 0.35145-0.01065 0.52539-0.03125 1.3376-0.15431 2.528-0.9162 3.2285-2.0645l0.93164-1.5156 3.4043 3.4043c0.39174 0.39174 0.97562 0.4404 1.3086 0.10742 0.33298-0.33298 0.28432-0.91686-0.10742-1.3086l-3.6934-3.6934 1.3047-2.123c1.4891-2.6477 1.2234-5.9314-0.67383-8.3047l1.3828-1.3828c0.81441-0.78543-0.39503-1.9909-1.1816-1.1777l-1.3848 1.3828c-2.476-1.9853-5.9436-2.1699-8.6172-0.45898l-1.7891 1.1055-3.7324-3.7324c-0.19587-0.19587-0.43933-0.307-0.67578-0.32617zm10.34 3.459c1.4421 0.037605 2.8612 0.61616 3.9355 1.6992v-0.0039063c1.8267 1.8267 2.2185 4.6411 0.96094 6.8965l-1.0801 1.7559-8.5352-8.5352 1.4609-0.90234c0.99886-0.64108 2.1362-0.9394 3.2578-0.91016zm-6.2051 2.7285 9.1074 9.1074-1.1406 1.8594c-0.92156 1.4999-3.0046 1.745-4.25 0.5l-6.084-6.0742c-1.243-1.2412-1.0012-3.3154 0.49414-4.2383l1.873-1.1543zm-1.2441 8.8711 3.1035 3.0996c-0.89402 0.46635-1.9855 0.31473-2.7168-0.37891-0.72681-0.71669-0.88524-1.8305-0.38672-2.7207z"/>
</svg>
