<svg viewBox="0 0 24 24" xmlns="http://www.w3.org/2000/svg">
  <path fill="currentColor" d="m 19.404711,14.775898 -3.148023,5.129115 a 4.3690085,4.3624561 0 0 1 -3.229811,2.064146 4.4357746,4.4291221 0 0 1 -0.524114,0.03083 4.3498132,4.3432896 0 0 1 -2.50373,-0.795823 3.9567276,3.9507936 0 0 1 -5.5824828,-5.471611 L 3.319082,14.638399 A 4.3932112,4.3866225 0 0 1 4.1161026,7.8051349 L 8.9291058,4.8334981 a 7.393514,7.3824257 0 0 1 8.6186732,0.459162 l 1.384562,-1.382486 a 0.83457658,0.83332494 0 1 1 1.180092,1.1783214 l -1.382894,1.3816528 a 7.4702951,7.4590916 0 0 1 0.675172,8.3057497 z M 8.7271383,20.039178 5.623348,16.939209 a 2.2708829,2.2674772 0 0 0 0.3864089,2.719973 2.359348,2.3558096 0 0 0 2.7173814,0.379996 z M 17.006972,7.0393092 A 5.747729,5.7391089 0 0 0 9.8154262,6.2501505 L 4.9940772,9.2217873 A 2.7248925,2.7208059 0 0 0 4.5000079,13.460078 L 10.584071,19.53585 A 2.7248925,2.7208059 0 0 0 14.83457,19.035855 L 17.968405,13.93174 A 5.7894578,5.7807751 0 0 0 17.006972,7.0351426 Z m 1.067424,14.9606828 a 0.83457658,0.83332494 0 0 1 -0.493234,-1.506652 7.2048996,7.1940942 0 0 0 2.766621,-4.505788 0.83457658,0.83332494 0 1 1 1.629928,0.35833 8.9299695,8.9165769 0 0 1 -3.411749,5.494111 0.83457658,0.83332494 0 0 1 -0.491566,0.159999 z M 2.8308547,6.7826451 A 0.83457658,0.83332494 0 0 1 2.1631934,5.4543252 8.9232929,8.9099103 0 0 1 7.765706,2.0168598 0.8347435,0.83349161 0 1 1 8.0995367,3.6501767 7.2074034,7.1965942 0 0 0 3.498516,6.4451485 0.83457658,0.83332494 0 0 1 2.8308547,6.7826451 Z" />
</svg>