<svg width="24px" height="24px" viewBox="0 0 24 24" fill="currentColor" xmlns="http://www.w3.org/2000/svg" version="1.1">
  <path d="M21 6.167a2.457 2.5 0 0 0-2.457-2.5h-.14A2.462 2.505 0 0 0 16.086 2H7.897a2.462 2.505 0 0 0-2.316 1.667h-.14a2.457 2.5 0 0 0-1.62 4.365L5.088 18.35A4.1 4.173 0 0 0 9.151 22h5.682a4.101 4.173 0 0 0 4.062-3.65l1.268-10.318A2.441 2.484 0 0 0 21 6.167zm-3.18 7.5H15.2c-.73-4.406-5.69-4.404-6.42 0H6.16l-.614-5h12.888zm-4.19.833c-.086 3.295-3.19 3.294-3.276 0 .086-3.295 3.194-3.294 3.276 0zM5.44 5.333h.82a.819.833 0 0 0 .818-.833.819.833 0 0 1 .82-.833h8.188a.819.833 0 0 1 .82.833.819.833 0 0 0 .818.833h.82a.819.833 0 0 1 0 1.667H5.44a.819.833 0 0 1 0-1.667zm11.83 12.81a2.457 2.5 0 0 1-2.437 2.19H9.15a2.457 2.5 0 0 1-2.438-2.19l-.345-2.81h2.415c.73 4.406 5.69 4.404 6.418 0h2.414z"/>
</svg>