<svg width="24px" height="24px" viewBox="0 0 24 24" fill="currentColor" xmlns="http://www.w3.org/2000/svg" version="1.1">
  <path d="M12.1 2a10.005 10 0 1 0-.08 20h5.815A4.169 4.167 0 0 0 22 17.837v-6.455A10.005 10 0 0 0 12.1 2zm-.077 1.685A8.263 8.26 0 0 1 17.336 5.6a8.363 8.36 0 0 1 2.998 5.862v6.375a2.499 2.498 0 0 1-2.499 2.498H12.02a8.363 8.36 0 0 1-6.228-2.784 8.26 8.256 0 0 1-2.063-6.504 8.365 8.36 0 0 1 7.21-7.294 8.799 8.795 0 0 1 1.084-.068zm-3.35 4.162a.833.833 0 0 0 0 1.665h3.332a.833.833 0 0 0 0-1.665zm0 3.33a.833.833 0 0 0 0 1.665h6.664a.833.833 0 0 0 0-1.665zm0 3.33a.833.833 0 0 0 0 1.665h6.664a.833.833 0 0 0 0-1.665z"/>
</svg>