<svg width="24px" height="24px" viewBox="0 0 512 512" xmlns="http://www.w3.org/2000/svg">
  <circle cx="256" cy="256" fill="#f0f0f0" r="256"/>
  <path d="M345.043 256c0 22.261-39.866 77.913-89.043 77.913S166.957 278.261 166.957 256c0-49.178 39.866-89.043 89.043-89.043s89.043 39.865 89.043 89.043z" fill="#d80027"/>
  <path d="M345.043 256c0 49.178-39.866 89.043-89.043 89.043S166.957 305.178 166.957 256" fill="#0052b4"/>
  <path d="m350.375 334.708 23.607-23.608 15.739 15.739-23.608 23.607zM311.017 374.055l23.608-23.607 15.738 15.738-23.607 23.608zM397.593 381.92l23.608-23.607 15.738 15.739-23.607 23.607zM358.237 421.274l23.607-23.607 15.739 15.738-23.607 23.608zM373.983 358.316l23.607-23.607 15.739 15.738-23.608 23.608zM334.636 397.663l23.608-23.607 15.738 15.738-23.607 23.607zM397.698 177.335l-62.954-62.953 15.739-15.739 62.953 62.954zM334.732 161.603l-23.607-23.607 15.738-15.738 23.607 23.607zM374.078 200.959l-23.607-23.608 15.738-15.737 23.607 23.607zM381.943 114.38l-23.608-23.608 15.739-15.738L397.68 98.64zM421.31 153.74l-23.607-23.607 15.738-15.739 23.608 23.608zM90.754 358.272l62.954 62.953-15.739 15.739-62.953-62.954zM153.705 373.998l23.607 23.607-15.738 15.738-23.607-23.607zM114.355 334.66l23.608 23.607-15.739 15.738-23.607-23.607zM137.966 311.045 200.919 374l-15.739 15.738-62.953-62.953zM153.701 90.724l-62.953 62.953-15.739-15.739 62.954-62.953zM177.309 114.328l-62.954 62.954-15.738-15.739L161.57 98.59zM200.939 137.95l-62.954 62.954-15.738-15.738 62.954-62.954z"/>
</svg>