<svg viewBox="0 0 24 24" xmlns="http://www.w3.org/2000/svg">
  <path d="M12 2a.833.833 0 0 0-.833.833l-.008 12.84-2.426-2.423a.834.834 0 0 0-1.176 1.178l2.675 2.673a2.5 2.5 0 0 0 3.536 0l2.675-2.676a.833.833 0 0 0-1.176-1.175l-2.44 2.44.006-12.857A.833.833 0 0 0 12 2ZM2.833 15.333a.833.833 0 0 0-.833.834V19.5A2.5 2.5 0 0 0 4.5 22h15a2.5 2.5 0 0 0 2.5-2.5v-3.333a.833.833 0 0 0-.833-.834.833.833 0 0 0-.834.834V19.5a.833.833 0 0 1-.833.833h-15a.833.833 0 0 1-.833-.833v-3.333a.833.833 0 0 0-.834-.834Z"/>
</svg>