<svg width="100" height="100" xmlns="http://www.w3.org/2000/svg">
  <path d="M99.101 90a.957.957 0 0 0-.628.224c-.16.142-.27.336-.27.675v2.734a4.576 4.576 0 0 1-4.57 4.57H90.9c-.339 0-.533.11-.675.27A.957.957 0 0 0 90 99.1c0 .238.082.47.224.629.142.16.336.27.675.27h2.734A6.368 6.368 0 0 0 100 93.633v-2.734c0-.339-.11-.533-.27-.675A.957.957 0 0 0 99.1 90ZM90.899 0c-.339 0-.533.11-.675.27A.957.957 0 0 0 90 .9c0 .237.082.468.224.628.142.16.336.27.675.27h2.734a4.576 4.576 0 0 1 4.57 4.57V9.1c-.004.498.4.903.898.899.498.004.903-.4.899-.899V6.367A6.368 6.368 0 0 0 93.633 0ZM6.367 0A6.368 6.368 0 0 0 0 6.367V9.1c-.004.498.4.903.899.899.498.004.902-.4.898-.899V6.367a4.576 4.576 0 0 1 4.57-4.57H9.1c.339 0 .533-.11.675-.27A.957.957 0 0 0 10 .899.957.957 0 0 0 9.776.27C9.634.11 9.44 0 9.101 0ZM.899 90a.957.957 0 0 0-.629.224c-.16.142-.27.336-.27.675v2.734A6.368 6.368 0 0 0 6.367 100H9.1c.339 0 .533-.11.675-.27A.957.957 0 0 0 10 99.1a.957.957 0 0 0-.224-.628c-.142-.16-.336-.27-.675-.27H6.367a4.576 4.576 0 0 1-4.57-4.57V90.9c0-.339-.11-.533-.27-.675A.957.957 0 0 0 .9 90Z" style="stroke-width:.334806"/>
</svg>