<svg viewBox="0 0 24 24" xmlns="http://www.w3.org/2000/svg">
  <path fill="currentColor" d="M10.562 2a.63.63 0 0 0-.633.635v3.43a.63.63 0 0 0 .633.635c.351 0 .63-.28.63-.635v-3.43a.629.629 0 0 0-.63-.635zM4.905 4.212a.634.634 0 0 0-.447 1.086l3.381 3.395a.624.624 0 0 0 .447.184c.162 0 .323-.06.447-.184a.637.637 0 0 0 0-.902L5.349 4.398a.621.621 0 0 0-.444-.186ZM13.19 6.01a.602.602 0 0 0-.5.183l-6.427 6.45a.634.634 0 0 0-.148.665c.027.076.398 1.031 1.526 1.615.57.294 1.297.448 2.097.448.435 0 .872-.036 1.294-.122l.135-.028 5.897 5.926a2.883 2.883 0 0 0 2.05.853 2.86 2.86 0 0 0 2.037-.843A2.886 2.886 0 0 0 22 19.11a2.869 2.869 0 0 0-.843-2.049l-5.916-5.935.026-.135c.24-1.215.145-2.487-.32-3.393-.576-1.12-1.497-1.513-1.575-1.545a.658.658 0 0 0-.182-.044zm.05 1.423.182.186c.138.142.28.328.4.563.348.677.392 1.58.233 2.458-.158.878-.52 1.734-1.081 2.297-.72.723-2.017 1.162-3.236 1.162-.578 0-1.1-.087-1.518-.304a2.143 2.143 0 0 1-.559-.409l-.174-.18 5.569-5.589ZM2.631 9.917a.629.629 0 0 0-.631.635c0 .354.28.635.631.635h3.554a.63.63 0 0 0 .633-.635.63.63 0 0 0-.633-.635zm12.416 2.808 5.218 5.239c.304.305.472.713.471 1.143a1.63 1.63 0 0 1-.477 1.15 1.63 1.63 0 0 1-2.303-.006l-5.305-5.335s-.04-.038-.04-.123c-.001-.08.2-.17.2-.17a4.574 4.574 0 0 0 1.054-.772c.295-.297.555-.662.773-1.068 0 0 .184-.193.409-.058zm.873 2.544a.634.634 0 0 0-.447 1.086l1.595 1.6a.624.624 0 0 0 .447.185.634.634 0 0 0 .445-1.084l-1.595-1.6a.621.621 0 0 0-.445-.187z"/>
</svg>