<svg viewBox="0 0 512 512" xmlns="http://www.w3.org/2000/svg">
  <path fill="#4bbaed" transform="rotate(-135)" d="M-384.542-.426h45.005v235.321h-45.005z" />
  <path fill="#93d6f4" d="M187.916 202.168C120.583 202.168 66 256.752 66 324.084 66 391.417 120.583 446 187.916 446s121.916-54.583 121.916-121.916c0-67.332-54.584-121.916-121.916-121.916zm0 198.825c-42.475 0-76.909-34.433-76.909-76.91 0-42.475 34.434-76.908 76.91-76.908 42.475 0 76.908 34.433 76.908 76.909 0 42.476-34.433 76.909-76.909 76.909z" />
  <path fill="#4bbaed" d="M178.355 247.766a77.729 77.729 0 0 0-9.562-.59c-42.475 0-76.91 34.432-76.91 76.909 0 42.475 34.435 76.909 76.91 76.909a77.59 77.59 0 0 0 9.562-.592c-37.964-4.707-67.348-37.08-67.348-76.317 0-39.238 29.385-71.611 67.348-76.319zM187.916 202.168c-3.218 0-6.406.127-9.56.371 62.863 4.877 112.354 57.43 112.354 121.545 0 64.114-49.491 116.667-112.355 121.544 3.155.245 6.344.372 9.561.372 67.333 0 121.916-54.583 121.916-121.916 0-67.332-54.584-121.916-121.916-121.916z" />
  <path fill="#93d6f4" d="M400.993 66h-76.215a6.06 6.06 0 0 0-6.06 6.06v32.886a6.06 6.06 0 0 0 6.06 6.061h70.154a6.06 6.06 0 0 1 6.061 6.06v70.155a6.06 6.06 0 0 0 6.06 6.06h32.886a6.06 6.06 0 0 0 6.061-6.06V72.061A6.06 6.06 0 0 0 439.94 66z" />
</svg>