<svg version="1.1" viewBox="0 0 512 512" xmlns="http://www.w3.org/2000/svg">
  <path fill="#8665fe" d="M78.693 39.309a.056.056 0 0 0-.08.002L48.34 71.256a.059.059 0 0 0 .002.082l57.039 54.068-23.623 24.643a6.436 6.436 0 0 0 .193 9.119l23.1 22.145a6.436 6.436 0 0 0 9.119-.194l23.795-24.822 45.709 43.328c.023.022.058.02.08-.002l30.271-31.947a.057.057 0 0 0-.002-.08l-45.521-43.153 23.916-24.949a6.434 6.434 0 0 0-.193-9.117l-23.1-22.147a6.436 6.436 0 0 0-9.12.194l-24.089 25.129z"/>
  <path fill="#8665fe" d="M72.596 16.125h76.215a6.06 6.06 0 0 1 6.06 6.06V55.07a6.06 6.06 0 0 1-6.06 6.06H78.657a6.06 6.06 0 0 0-6.061 6.06v70.156a6.06 6.06 0 0 1-6.06 6.06H33.65a6.06 6.06 0 0 1-6.061-6.06V22.186a6.06 6.06 0 0 1 6.06-6.061z"/>
  <path fill="#8665fe" d="M297.097 167.271 431.525 38.037a.057.057 0 0 1 .08.002l31.109 32.359a.056.056 0 0 1-.002.08L328.284 199.712a.056.056 0 0 1-.08-.002l-31.108-32.359a.056.056 0 0 1 .002-.08z"/>
  <path fill="#8665fe" d="M439.404 16.125H363.19a6.06 6.06 0 0 0-6.06 6.06V55.07a6.06 6.06 0 0 0 6.06 6.06h70.154a6.06 6.06 0 0 1 6.061 6.06v70.156a6.06 6.06 0 0 0 6.06 6.06h32.886a6.06 6.06 0 0 0 6.061-6.06V22.186a6.06 6.06 0 0 0-6.06-6.061z"/>
  <path fill="#8665fe" d="m310.16 411.24h-28.357c-3.351 0-6.068-2.736-6.068-6.109v-70.319h-44.3v70.32c0 3.372-2.716 6.107-6.067 6.107h-28.357c-3.351 0-6.067 2.734-6.067 6.107v32.378c0 3.373 2.716 6.107 6.067 6.107h28.357c3.35 0 6.068 2.734 6.068 6.108v27.83c0 3.372 2.716 6.106 6.067 6.106h32.166c3.35 0 6.067-2.734 6.067-6.107v-27.83c0-3.373 2.716-6.107 6.067-6.107h28.358c3.35 0 6.067-2.734 6.067-6.107v-32.378c0-3.373-2.717-6.107-6.068-6.107z"/>
  <path fill="#a289ff" d="m253.59 115.88c-66.273 0-120 54.08-120 120.79 0 66.712 53.727 120.79 120 120.79s120-54.08 120-120.79c0-66.712-53.727-120.79-120-120.79zm0 196.99c-41.807 0-75.7-34.116-75.7-76.199s33.893-76.2 75.7-76.2c41.808 0 75.7 34.116 75.7 76.2 0 42.083-33.892 76.2-75.7 76.2z" />
  <path fill="#8665fe" d="M242.398 161.297a75.82 75.82 0 0 0-11.191-.83c-41.807 0-75.7 34.116-75.7 76.2 0 42.083 33.893 76.2 75.7 76.2 3.803 0 7.54-.287 11.19-.83-36.5-5.447-64.508-37.115-64.508-75.37 0-38.257 28.008-69.925 64.509-75.37zm11.19-45.422c-3.774 0-7.506.184-11.19.527 61.025 5.682 108.807 57.352 108.807 120.264s-47.78 114.582-108.807 120.265c3.685.343 7.417.527 11.19.527 66.275 0 120-54.08 120-120.792 0-66.71-53.726-120.79-120-120.79z" />
</svg>
