<svg viewBox="0 0 512 512" xmlns="http://www.w3.org/2000/svg">
  <path fill="#ef687e" d="M312.574 361.365h-28.357c-3.351 0-6.068-2.735-6.068-6.108v-70.319h-44.3v70.32c0 3.372-2.716 6.107-6.067 6.107h-28.357c-3.351 0-6.067 2.734-6.067 6.107v32.378c0 3.373 2.716 6.107 6.067 6.107h28.357c3.351 0 6.068 2.734 6.068 6.108v27.829c0 3.373 2.716 6.107 6.067 6.107h32.166c3.35 0 6.067-2.734 6.067-6.107v-27.83c0-3.373 2.716-6.107 6.067-6.107h28.358c3.35 0 6.067-2.734 6.067-6.107v-32.378c0-3.373-2.717-6.107-6.068-6.107z" />
  <path fill="#f996b1" d="M256 66.001c-66.273 0-119.999 54.08-119.999 120.791 0 66.712 53.726 120.792 120 120.792 66.272 0 120-54.08 120-120.791S322.273 66.001 256 66.001zm0 196.991c-41.807 0-75.7-34.116-75.7-76.199s33.893-76.2 75.7-76.2c41.808 0 75.7 34.116 75.7 76.2 0 42.083-33.892 76.2-75.7 76.2z" />
  <path fill="#f28598" d="M244.81 111.423a75.82 75.82 0 0 0-11.191-.83c-41.807 0-75.7 34.116-75.7 76.2 0 42.083 33.893 76.199 75.7 76.199 3.803 0 7.54-.286 11.191-.83-36.5-5.446-64.509-37.114-64.509-75.37 0-38.256 28.008-69.924 64.509-75.369zM256 66.001c-3.774 0-7.506.184-11.19.527 61.025 5.682 108.807 57.352 108.807 120.264S305.837 301.374 244.81 307.057c3.685.343 7.417.527 11.191.527 66.274 0 120-54.08 120-120.792 0-66.711-53.727-120.791-120-120.791z" />
</svg>