<svg width="24" height="24" xmlns="http://www.w3.org/2000/svg">
  <path fill="currentColor" d="M12 2.25c-5.625 0-10 4.403-10 10.065 0 6.604 5.938 9.435 6.875 9.435.625 0 .625-.315.625-.629v-1.573c-2.188.63-3.125-.629-3.438-1.572 0 0 0-.315-.625-.944-.312-.314-1.562-.943-.312-.943.938 0 1.563 1.258 1.563 1.258.937 1.258 2.187.943 2.812.629 0-.63.625-1.258.625-1.258C7.625 16.403 5.75 15.46 5.75 12c0-1.258.313-2.202.938-2.83 0 0-.625-1.259 0-2.831 0 0 1.562 0 2.812 1.258.938-.63 4.063-.63 5 0 1.25-1.258 2.813-1.258 2.813-1.258.625 2.201 0 2.83 0 2.83.625.63.937 1.573.937 2.831 0 3.46-2.188 4.403-4.375 4.718.313.314.625.943.625 1.887v2.516c0 .314 0 .629.625.629.938 0 6.875-2.83 6.875-9.435C22 6.653 17.625 2.25 12 2.25z"/>
</svg>