<svg width="24px" height="24px" viewBox="0 0 24 24" fill="currentColor" xmlns="http://www.w3.org/2000/svg" version="1.1">
  <path d="M12 2a10 10 0 1 0 10 10A10.01 10.01 0 0 0 12 2Zm7.206 5.833h-2.684a16.397 16.397 0 0 0-2.351-3.87 8.36 8.36 0 0 1 5.035 3.87zM15.75 12a8.51 8.51 0 0 1-.397 2.5H8.647A8.51 8.51 0 0 1 8.25 12a8.51 8.51 0 0 1 .397-2.5h6.706a8.51 8.51 0 0 1 .397 2.5Zm-6.435 4.167h5.37A16.345 16.345 0 0 1 12 19.99a16.308 16.308 0 0 1-2.685-3.823Zm0-8.334A16.345 16.345 0 0 1 12 4.01a16.308 16.308 0 0 1 2.685 3.823Zm.518-3.87a16.397 16.397 0 0 0-2.355 3.87H4.794a8.36 8.36 0 0 1 5.04-3.87zM4.051 9.5h2.866a10.013 10.013 0 0 0-.334 2.5 10.013 10.013 0 0 0 .334 2.5H4.05a8.327 8.327 0 0 1 0-5zm.743 6.667h2.684a16.397 16.397 0 0 0 2.355 3.87 8.36 8.36 0 0 1-5.039-3.87zm9.377 3.87a16.397 16.397 0 0 0 2.35-3.87h2.685a8.36 8.36 0 0 1-5.035 3.87zm5.778-5.537h-2.866a10.013 10.013 0 0 0 .334-2.5 10.013 10.013 0 0 0-.334-2.5h2.865a8.327 8.327 0 0 1 0 5z" />
</svg>