<svg class="heart" viewBox="0 0 24 24" xmlns="http://www.w3.org/2000/svg">
  <path fill="#ff4e74" d="M20.413 4.762a5.35 5.35 0 0 0-4-1.762c-1.155 0-2.212.37-3.143 1.097-.47.368-.895.817-1.27 1.342a6.468 6.468 0 0 0-1.27-1.342C9.798 3.37 8.74 3 7.586 3a5.35 5.35 0 0 0-4 1.762C2.563 5.884 2 7.418 2 9.08c0 1.711.63 3.278 1.984 4.93 1.21 1.477 2.95 2.977 4.965 4.714.688.593 1.468 1.266 2.278 1.982a1.165 1.165 0 0 0 1.546 0c.81-.716 1.59-1.389 2.278-1.982 2.015-1.737 3.755-3.237 4.965-4.715C21.37 12.358 22 10.791 22 9.08c0-1.662-.564-3.196-1.587-4.318Z"/>
</svg>