<svg version="1.1" viewBox="0 0 24 24" xmlns="http://www.w3.org/2000/svg">
  <path d="m6.9 2a6.3 6.5 0 0 0-4.5 1.9 6.3 6.5 0 0 0-1.9 4.6c0 1.7 0.66 3.4 1.9 4.6l8 8.2c0.46 0.47 1.1 0.71 1.7 0.71a2.4 2.4 0 0 0 1.7-0.71l7.9-8.1c2.5-2.5 2.5-6.7 0.1-9.2a6.3 6.5 0 0 0-4.6-2 6.3 6.5 0 0 0-4.5 1.9l-0.62 0.64-0.62-0.64a6.3 6.5 0 0 0-4.5-1.9zm0 1.2a5.2 5.3 0 0 1 3.7 1.6l0.62 0.64-0.95 0.98a0.59 0.6 0 0 0 0.84 0.86l2.4-2.5a5.2 5.3 0 0 1 3.7-1.6c1.4 0 2.7 0.57 3.7 1.6 2 2.1 1.9 5.4-0.094 7.5l-7.9 8.1c-0.46 0.47-1.2 0.47-1.7 0l-8-8.2a5.2 5.3 0 0 1-1.5-3.8c0-1.4 0.54-2.8 1.5-3.8a5.2 5.3 0 0 1 3.7-1.6zm11 1a0.59 0.6 0 0 0-0.14 1.2c0.51 0.15 0.99 0.43 1.4 0.82 0.54 0.55 0.86 1.3 0.91 2.1a0.59 0.6 0 0 0 0.59 0.57h0.038a0.59 0.6 0 0 0 0.55-0.64 4.3 4.4 0 0 0-3.1-4 0.58 0.6 0 0 0-0.17-0.022z"/>
</svg>
