<svg version="1.1" viewBox="0 0 24 24" xmlns="http://www.w3.org/2000/svg">
  <path d="m6.9 2a6.3 6.5 0 0 0-4.5 1.9 6.3 6.5 0 0 0-1.9 4.6c0 1.7 0.66 3.4 1.9 4.6l8 8.2c0.46 0.47 1.1 0.71 1.7 0.71a2.4 2.4 0 0 0 1.7-0.71l7.9-8.1c2.5-2.5 2.5-6.7 0.1-9.2a6.3 6.5 0 0 0-4.6-2 6.3 6.5 0 0 0-4.5 1.9l-0.62 0.64-0.62-0.64a6.3 6.5 0 0 0-4.5-1.9zm11 2.3a0.58 0.6 0 0 1 0.12 0.021c0.089 0.025 0.18 0.052 0.26 0.082a4.2 4.3 0 0 1 0.51 0.22 4.3 4.4 0 0 1 0.7 0.45c0.072 0.059 0.15 0.12 0.22 0.18a4.3 4.4 0 0 1 0.47 0.49 4.3 4.4 0 0 1 0.87 1.8 4.3 4.4 0 0 1 0.12 0.79 0.59 0.6 0 0 1-0.55 0.64h-0.04a0.58 0.59 0 0 1-0.32-0.094 0.59 0.6 0 0 1-0.16-0.15 0.59 0.6 0 0 1-0.11-0.32 3.1 3.2 0 0 0-0.085-0.57 3.2 3.2 0 0 0-0.63-1.3 3.2 3.2 0 0 0-1.2-0.9 3 3.1 0 0 0-0.37-0.14 0.6 0.61 0 0 1-0.29-0.19 0.61 0.62 0 0 1-0.14-0.44 0.6 0.62 0 0 1 0.13-0.34 0.57 0.59 0 0 1 0.17-0.15 0.6 0.61 0 0 1 0.21-0.073 0.59 0.61 0 0 1 0.12-0.0024z"/>
</svg>
