<?xml version="1.0" encoding="UTF-8" standalone="no"?>
<svg
   viewBox="0 0 24 24"
   version="1.1"
   id="svg4"
   xmlns="http://www.w3.org/2000/svg"
   xmlns:svg="http://www.w3.org/2000/svg">
  <defs
     id="defs8" />
  <path
     fill="currentColor"
     d="M 12,1.8 C 9.8,1.8 7.9,3.5 7.9,5.6 v 3.7 c -1.9414686,1.336531 -3.1007812,3.542965 -3.1,5.9 0,3.9 3.2,7.2 7.2,7.2 3.9,0 7.2,-3.2 7.2,-7.2 0,-2.4 -1.2,-4.5 -3.1,-5.9 V 5.6 C 16.1,3.6 14.3,1.8 12,1.8 Z M 12,3 c 1.6,0 2.8,1.2 2.8,2.6 v 3 C 14.712652,8.5614934 14.625972,8.5214875 14.54,8.48 L 14.532,8.476 C 14.43988,8.439351 14.346492,8.405997 14.252,8.376 L 14.25,8.374 H 14.248 C 14.16,8.344 14.068,8.312 13.968,8.282 13.81308,8.235445 13.656276,8.19541 13.498,8.162 H 13.496 C 13.427,8.147 13.366,8.132 13.286,8.119 13.100555,8.082358 12.913745,8.053002 12.726,8.031 L 12.606,8.019 H 12.602 C 12.126139,7.974038 11.64689,7.97873 11.172,8.033 l 0.004,-0.002 c -0.19,0.021 -0.38,0.052 -0.56,0.088 -0.069,0.013 -0.13,0.028 -0.21,0.043 h -0.002 c -0.15,0.035 -0.31,0.075 -0.48,0.12 V 8.28 C 9.826,8.31 9.734,8.342 9.644,8.372 H 9.642 c -0.098,0.033 -0.19,0.07 -0.28,0.1 H 9.36 C 9.273,8.506 9.18,8.55 9.09,8.592 v -3 c 0,-1.5 1.3,-2.6 2.8,-2.6 z M 11.98,9.2 H 12 c 0.233997,0.00174 0.467706,0.016766 0.7,0.045 0.12,0.014 0.25,0.032 0.36,0.055 l 0.002,0.002 h 0.002 c 0.205531,0.036926 0.409113,0.083983 0.61,0.141 0.09,0.026 0.18,0.055 0.26,0.086 l 0.004,0.002 0.002,0.002 c 0.057,0.019 0.11,0.04 0.17,0.062 0.33,0.12 0.64,0.28 0.95,0.46 1.7,1.1 2.9,3 2.9,5.1 0,3.3 -2.7,6 -5.9,6 -3.3,0 -6,-2.7 -6,-6 0,-2.2 1.1,-4 2.9,-5.1 0.31,-0.18 0.62,-0.34 0.95,-0.46 L 10.08,9.531 C 10.168,9.5 10.26,9.47 10.35,9.443 l 0.006,-0.002 c 0.11,-0.032 0.23,-0.061 0.34,-0.086 h 0.002 c 0.208098,-0.046833 0.418345,-0.083543 0.63,-0.11 0.056,-0.007 0.11,-0.014 0.17,-0.02 0.17,-0.016 0.36,-0.025 0.53,-0.025 z m -0.057,2.9 -0.006,0.002 c -0.86,0.044 -1.5,0.76 -1.5,1.6 v 2.1 c 0,0.9 0.73,1.7 1.6,1.7 0.91,0 1.7,-0.74 1.7,-1.7 v -2.1 c 0,-0.9 -0.728033,-1.613873 -1.698033,-1.613873 0,0 0,0 -0.101967,0.01387 z m 0.076,1.2 c 0.24,0 0.44,0.2 0.44,0.44 v 2.1 c 0,0.24 -0.2,0.44 -0.44,0.44 -0.24,0 -0.44,-0.2 -0.44,-0.44 v -2.1 c 0,-0.24 0.2,-0.44 0.44,-0.44 z"
     id="path2" />
</svg>
