<svg width="24" height="24" xmlns="http://www.w3.org/2000/svg">
  <path d="M11.418 2.025a6.3 5.833 0 0 0-5.719 5.809V9.02A4.5 4.167 0 0 0 3 12.834v5A4.505 4.172 0 0 0 7.5 22h9a4.505 4.172 0 0 0 4.5-4.166v-5a4.5 4.167 0 0 0-2.7-3.814V7.834a6.3 5.833 0 0 0-6.882-5.809zm.111 1.664A4.5 4.167 0 0 1 16.5 7.834v.832h-9v-.832a4.5 4.167 0 0 1 4.03-4.145zM7.5 10.334h9a2.7 2.5 0 0 1 2.7 2.5v5a2.7 2.5 0 0 1-2.7 2.5h-9a2.7 2.5 0 0 1-2.7-2.5v-5a2.7 2.5 0 0 1 2.7-2.5zm4.5 3.332a.9.833 0 0 0-.9.834v1.666a.9.833 0 0 0 1.8 0V14.5a.9.833 0 0 0-.9-.834z" />
</svg>