<svg width="24px" height="24px" viewBox="0 0 24 24" fill="currentColor" xmlns="http://www.w3.org/2000/svg" version="1.1">
  <path d="M14.509 22a10.021 10.017 0 0 1-7.431-3.305 9.92 9.916 0 0 1-2.518-7.757 10.105 10.101 0 0 1 8.352-8.81 10.888 10.884 0 0 1 4.194.17 2.084 2.083 0 0 1 .924 3.522c-3.801 3.471-3.471 8.87.673 12.008a2.084 2.083 0 0 1-.584 3.6 11.583 11.578 0 0 1-3.61.572zm.063-18.333a8.997 8.994 0 0 0-1.398.106 8.414 8.41 0 0 0-6.956 7.333 8.275 8.272 0 0 0 2.098 6.478 8.733 8.73 0 0 0 9.247 2.274.417.417 0 0 0 .116-.714c-4.943-3.731-5.335-10.404-.79-14.54a.383.382 0 0 0 .106-.388.408.408 0 0 0-.296-.301 8.884 8.88 0 0 0-2.127-.248Z"/>
</svg>