<svg height="24" width="24" xmlns="http://www.w3.org/2000/svg">
   <path fill="currentColor" d="M21.255 2.723a2.616 2.62 0 0 0-3.61 0l-9.34 9.346a4.624 4.63 0 0 0-.882-.083 4.548 4.554 0 0 0-3.238 1.343c-1.127 1.129-1.922 4.158-2.158 5.803A2.5 2.504 0 0 0 4.5 22a2.584 2.587 0 0 0 .366-.026c1.643-.236 4.668-1.032 5.796-2.16a4.58 4.585 0 0 0 1.25-4.124l9.342-9.354a2.557 2.56 0 0 0 0-3.613zM9.483 18.633c-.604.606-2.917 1.41-4.854 1.689a.846.847 0 0 1-.716-.236.834.835 0 0 1-.235-.717c.277-1.939 1.083-4.256 1.685-4.86a2.917 2.92 0 0 1 4.12 4.125zM20.078 5.157l-8.853 8.864a4.483 4.488 0 0 0-1.25-1.258l8.85-8.86a.905.906 0 0 1 1.25 0 .885.886 0 0 1 .003 1.254z"/>
</svg>