<svg width="24px" height="24px" viewBox="0 0 24 24" fill="currentColor" xmlns="http://www.w3.org/2000/svg" version="1.1">
  <path d="M 12.347656 2.0058594 A 10.000018 9.9998969 0 0 0 2 12 A 10.011685 10.011563 0 0 0 12 22 C 12.281667 22 12.55703 21.982324 12.832031 21.958984 A 0.83333484 0.83332474 0 0 0 13.595703 21.125 L 13.570312 18.134766 A 2.9725053 2.9724693 0 0 1 18.644531 16 L 18.728516 16.083984 A 1.5933362 1.5933169 0 0 0 20.201172 16.517578 A 1.5733361 1.5733171 0 0 0 21.349609 15.537109 A 9.9366846 9.9365642 0 0 0 21.996094 11.75 A 10.129185 10.129062 0 0 0 12.347656 2.0058594 z M 11.998047 3.6660156 C 12.095547 3.6660156 12.194636 3.6668744 12.292969 3.671875 A 8.4391819 8.4390796 0 0 1 20.330078 11.791016 A 8.2433482 8.2432483 0 0 1 19.833984 14.833984 L 19.832031 14.839844 L 19.820312 14.828125 A 4.6391751 4.6391188 0 0 0 11.904297 18.148438 L 11.923828 20.333984 A 8.334168 8.334067 0 0 1 11.998047 3.6660156 z M 12.378906 6.1679688 A 1.2500023 1.2499871 0 0 0 12.025391 6.2089844 A 1.2500023 1.2499871 0 1 0 13.554688 7.0957031 A 1.2500023 1.2499871 0 0 0 12.378906 6.1679688 z M 8.2128906 8.6660156 A 1.2500023 1.2499871 0 0 0 7.859375 8.7089844 A 1.2500023 1.2499871 0 1 0 9.3886719 9.5957031 A 1.2500023 1.2499871 0 0 0 8.2128906 8.6660156 z M 16.546875 8.6660156 A 1.2500023 1.2499871 0 0 0 16.193359 8.7089844 A 1.2500023 1.2499871 0 1 0 17.722656 9.5957031 A 1.2500023 1.2499871 0 0 0 16.546875 8.6660156 z M 8.2128906 13.666016 A 1.2500023 1.2499871 0 0 0 7.859375 13.708984 A 1.2500023 1.2499871 0 1 0 9.3886719 14.595703 A 1.2500023 1.2499871 0 0 0 8.2128906 13.666016 z "/>
</svg>