<svg width="24px" height="24px" viewBox="0 0 24 24" fill="currentColor" xmlns="http://www.w3.org/2000/svg" version="1.1">
  <path d="M21.266 2.735a2.472 2.472 0 0 0-2.333-.667L5.597 4.876a4.163 4.163 0 0 0-2.377 7.068l1.431 1.43a.833.833 0 0 1 .245.59v2.64a2.471 2.47 0 0 0 .25 1.072l-.007.006.022.021a2.5 2.5 0 0 0 1.135 1.13l.022.022.005-.007a2.471 2.47 0 0 0 1.071.25h2.64a.833.833 0 0 1 .59.244l1.43 1.43A4.136 4.136 0 0 0 14.99 22a4.208 4.208 0 0 0 1.337-.22 4.111 4.11 0 0 0 2.787-3.322l2.813-13.363a2.48 2.48 0 0 0-.66-2.36zM5.832 12.198l-1.433-1.43a2.45 2.45 0 0 1-.602-2.562 2.482 2.482 0 0 1 2.084-1.689l13.202-2.78L6.561 16.262v-2.296a2.482 2.482 0 0 0-.73-1.767zm11.644 5.975a2.5 2.5 0 0 1-4.242 1.427l-1.433-1.433a2.482 2.482 0 0 0-1.766-.732H7.739L20.263 4.916z"/>
</svg>