<svg width="24" height="24" fill="currentColor" xmlns="http://www.w3.org/2000/svg"><path d="M8.803 8.662a2.083 2.082 0 0 1-1.315-.495A4.027 4.025 0 0 1 6.19 5.452c-.202-2.077.931-3.302 2.155-3.439A2.212 2.211 0 0 1 10 2.508a3.482 3.48 0 0 1 1.147 2.415c.186 1.936-.707 3.74-2.344 3.74zM8.53 3.665c-.48.053-.767.735-.68 1.62a2.39 2.389 0 0 0 .688 1.583.45.449 0 0 0 .295.128c.293-.032.764-.783.653-1.915C9.2 3.527 8.55 3.665 8.53 3.669zm-3.893 9.994a2.083 2.082 0 0 1-1.316-.494 4.027 4.025 0 0 1-1.297-2.716c-.203-2.077.93-3.302 2.155-3.438a2.22 2.218 0 0 1 1.654.494A3.482 3.48 0 0 1 6.98 9.921c.187 1.935-.749 3.738-2.343 3.738zm-.273-4.997c-.481.054-.768.736-.681 1.62a2.39 2.389 0 0 0 .688 1.583.464.464 0 0 0 .296.129c.292-.033.763-.784.652-1.916-.22-1.522-.935-1.416-.955-1.412zm10.833 0c-1.424.01-2.529-1.804-2.34-3.741a3.482 3.48 0 0 1 1.147-2.415 2.216 2.215 0 0 1 1.65-.493c1.225.137 2.358 1.362 2.156 3.439a4.027 4.025 0 0 1-1.298 2.716 2.083 2.082 0 0 1-1.315.494zm-.68-3.581c-.111 1.128.36 1.88.652 1.915a.46.46 0 0 0 .293-.12 2.39 2.389 0 0 0 .689-1.583c.175-2.183-1.484-2.04-1.634-.212zm4.846 8.578c-1.551 0-2.528-1.804-2.339-3.74a3.482 3.48 0 0 1 1.147-2.416 2.21 2.21 0 0 1 1.65-.495c1.225.137 2.358 1.362 2.155 3.438a4.027 4.025 0 0 1-1.297 2.717 2.083 2.082 0 0 1-1.316.496zm-.68-3.58c-.11 1.128.36 1.879.653 1.915a.478.478 0 0 0 .293-.121 2.39 2.389 0 0 0 .688-1.583c.084-.885-.2-1.567-.68-1.62-.021-.008-.875-.082-.954 1.408zm-3.35 11.909a4.044 4.042 0 0 1-2.039-.505 2.777 2.775 0 0 0-2.588 0c-2.51 1.407-5.437-.139-5.372-3.66 0-3.86 3.755-7.495 6.666-7.495 2.91 0 6.666 3.635 6.666 7.496 0 2.452-1.37 4.164-3.333 4.164zM12 19.489a4.054 4.052 0 0 1 2.04.504c1.863 1.015 2.989-.36 2.96-2.17 0-2.814-2.934-5.83-5-5.83s-5 3.016-5 5.83c-.027 1.807 1.09 3.185 2.96 2.17A4.054 4.052 0 0 1 12 19.49z"/></svg>