<svg width="24px" height="24px" viewBox="0 0 24 24" fill="currentColor" xmlns="http://www.w3.org/2000/svg" version="1.1">
  <path d="M11.66 2.026A2.496 2.5 0 0 0 9.52 4.5v.428a7.47 7.481 0 0 0-2.37 1.37l-.372-.214a2.498 2.501 0 0 0-2.496 4.333l.37.213a7.572 7.584 0 0 0 0 2.742l-.37.214a2.498 2.501 0 1 0 2.496 4.332l.371-.213a7.47 7.481 0 0 0 2.371 1.367v.428a2.496 2.5 0 0 0 4.993 0v-.428a7.47 7.481 0 0 0 2.37-1.37l.372.215a2.498 2.502 0 0 0 2.496-4.335v.002l-.37-.213a7.572 7.584 0 0 0 0-2.743l.37-.213a2.498 2.501 0 0 0-2.496-4.333l-.37.213a7.47 7.481 0 0 0-2.372-1.367V4.5a2.496 2.5 0 0 0-2.852-2.474zm.171 1.662a.832.833 0 0 1 1.018.812v1.043a.832.833 0 0 0 .625.808 5.811 5.82 0 0 1 2.698 1.566.832.833 0 0 0 1.011.138l.902-.523a.832.833 0 1 1 .832 1.443l-.902.522a.832.833 0 0 0-.385.94 5.865 5.873 0 0 1 0 3.124.832.833 0 0 0 .387.946l.902.52a.832.834 0 0 1-.832 1.444l-.905-.522a.832.833 0 0 0-1.011.137 5.811 5.82 0 0 1-2.698 1.562.832.833 0 0 0-.626.808V19.5a.832.833 0 0 1-1.664 0v-1.043a.832.833 0 0 0-.624-.807 5.811 5.82 0 0 1-2.698-1.566.832.833 0 0 0-1.011-.138l-.902.522a.832.833 0 1 1-.832-1.442l.902-.522a.832.833 0 0 0 .387-.944 5.865 5.873 0 0 1 0-3.125.832.833 0 0 0-.389-.941l-.902-.523a.832.834 0 0 1 .832-1.443l.906.524a.832.833 0 0 0 1.009-.135 5.811 5.82 0 0 1 2.698-1.563.832.833 0 0 0 .625-.81V4.5a.832.833 0 0 1 .647-.812zm.186 4.979A3.328 3.333 0 1 0 15.345 12a3.328 3.333 0 0 0-3.328-3.333zm-.325 1.7A1.664 1.667 0 0 1 13.68 12a1.664 1.667 0 0 1-1.664 1.667 1.664 1.667 0 0 1-.325-3.3z"/>
</svg>