<svg width="24" height="24" fill="currentColor" xmlns="http://www.w3.org/2000/svg">
  <path d="M9.836 3.912c-2.027 0-4.052.79-5.598 2.37-3.09 3.159-3.09 8.281 0 11.44a7.807 7.807 0 0 0 11.198 0 .74.74 0 0 0 .224-.562.777.777 0 0 0-.224-.494.751.751 0 0 0-.487-.23.71.71 0 0 0-.553.23c-2.034 2.08-4.781 2.38-7.027 1.43-2.245-.951-3.982-3.152-3.982-6.094s1.737-5.143 3.982-6.094c2.246-.95 4.993-.65 7.027 1.43a.71.71 0 0 0 .553.23.751.751 0 0 0 .487-.23.777.777 0 0 0 .224-.494.74.74 0 0 0-.224-.563 7.808 7.808 0 0 0-5.6-2.369zM18.947 7c-.285.003-.499.239-.586.518-.086.278-.062.616.125.877v.001l1.998 2.694c.01.013.016.03.026.045l-7.875.021a.58.58 0 0 0-.483.274 1.018 1.018 0 0 0-.152.556c0 .199.048.4.152.559a.578.578 0 0 0 .485.271l7.892-.023c-.017.029-.03.065-.049.092l-1.994 2.691a.98.98 0 0 0-.007 1.158c.108.147.26.252.431.264.17.012.35-.078.49-.271l1.998-2.692c.8-1.079.782-2.735.067-3.879-.292-.701-1.44-2.074-2.063-2.912A.575.575 0 0 0 18.947 7z" />
</svg>