<svg width="24px" height="24px" viewBox="0 0 24 24" fill="currentColor" xmlns="http://www.w3.org/2000/svg" version="1.1">
  <path d="M 6.1674486,2 A 4.1724508,4.1716667 0 0 0 1.9999988,6.1666667 V 17.833333 A 4.1724508,4.1716667 0 0 0 6.1674486,22 h 1.66698 a 0.83349014,0.8333335 0 0 0 0,-1.666667 h -1.66698 a 2.5004699,2.5 0 0 1 -2.5004699,-2.5 V 6.1666667 a 2.5004699,2.5 0 0 1 2.5004699,-2.5 h 1.66698 A 0.83348999,0.83333335 0 0 0 7.8344286,2 Z M 17.207935,6.1764323 a 0.83348997,0.83333333 0 0 0 -0.592559,1.4127604 l 3.233029,3.2324223 a 1.7144889,1.7141667 0 0 1 0.250699,0.32552 c -0.0125,0 -0.02168,-0.0065 -0.03419,-0.0065 l -13.0737429,0.02603 a 0.83348997,0.83333333 0 0 0 0,1.666666 l 13.0688629,-0.02604 c 0.02334,0 0.04098,-0.01298 0.06349,-0.01465 a 1.6669799,1.6666667 0 0 1 -0.278373,0.385741 l -3.233029,3.232423 a 0.83348997,0.83333333 0 1 0 1.178606,1.178385 l 3.233031,-3.232422 a 3.3339599,3.3333333 0 0 0 0,-4.7135415 h 0.0033 L 17.793983,6.4108073 a 0.83348997,0.83333333 0 0 0 -0.586048,-0.234375 z"/>
</svg>