<svg version="1.1" viewBox="0 0 24 24" xmlns="http://www.w3.org/2000/svg">
  <path fill="currentColor" d="m12 1.7754c-2.9232 0-5.3242 2.4049-5.3242 5.4238 0 3.019 2.401 5.4258 5.3242 5.4258 2.9232 0 5.3242-2.4068 5.3242-5.4258 1e-6 -3.019-2.401-5.4238-5.3242-5.4238zm0 1.75c1.9714 0 3.6758 1.7024 3.6758 3.6738 0 2.0841-1.5917 3.6758-3.6758 3.6758-1.9714-1e-6 -3.6758-1.7044-3.6758-3.6758 0-1.9786 1.5985-3.6738 3.6758-3.6738zm-0.50977 10.549c-3.9263-1e-6 -7.125 3.3069-7.125 7.3262 0 0.46571 0.37046 0.85547 0.83398 0.85547 0.46353 0 0.83594-0.38976 0.83594-0.85547 0-3.0781 2.5004-5.5762 5.4746-5.5762h1.2012c2.9742 0 5.4746 2.498 5.4746 5.5762 0 0.46571 0.37046 0.85547 0.83398 0.85547s0.83594-0.38976 0.83594-0.85547c1e-6 -4.0192-3.1987-7.3262-7.125-7.3262z"/>
</svg>
