<svg version="1.1" viewBox="0 0 24 24" xmlns="http://www.w3.org/2000/svg">
  <path fill="currentColor" d="m12 2c-2.8 0-5.1 2.3-5.1 5.2s2.3 5.2 5.1 5.2c2.8 0 5.1-2.3 5.1-5.2 1e-6 -2.9-2.3-5.2-5.1-5.2zm0 1.3c2.1 0 3.9 1.8 3.9 3.9 0 2.2-1.7 3.9-3.9 3.9-2.1-1e-6 -3.9-1.8-3.9-3.9s1.7-3.9 3.9-3.9zm-0.51 11c-3.8-1e-6 -6.9 3.2-6.9 7.1 0 0.35 0.27 0.63 0.61 0.63s0.61-0.28 0.61-0.63c0-3.2 2.6-5.8 5.7-5.8h1.2c3.1 0 5.7 2.6 5.7 5.8 0 0.35 0.27 0.63 0.61 0.63 0.34 0 0.61-0.28 0.61-0.63 1e-6 -3.9-3.1-7.1-6.9-7.1z"/>
</svg>
